<?xml version="1.0" encoding="UTF-8" standalone="no"?>
<svg width="134px" height="68px" viewBox="0 0 134 68" version="1.1" xmlns="http://www.w3.org/2000/svg" xmlns:xlink="http://www.w3.org/1999/xlink" xmlns:sketch="http://www.bohemiancoding.com/sketch/ns">
    <!-- Generator: Sketch 3.4.2 (15855) - http://www.bohemiancoding.com/sketch -->
    <title>BILLED TO</title>
    <desc>Created with Sketch.</desc>
    <defs></defs>
    <g id="Page-1" stroke="none" stroke-width="1" fill="none" fill-rule="evenodd" sketch:type="MSPage">
        <g id="Inclusive-simple-Copy-4" sketch:type="MSArtboardGroup" transform="translate(-72.000000, -275.000000)" fill="#2F2F2F">
            <path d="M76.58,282 C77.84,282 78.52,281.23 78.52,280.19 C78.52,279.38 77.95,278.67 77.23,278.56 C77.85,278.43 78.39,277.86 78.39,277.03 C78.39,276.09 77.72,275.33 76.49,275.33 L73.21,275.33 L73.21,282 L76.58,282 Z M76.26,278.08 L74.38,278.08 L74.38,276.36 L76.26,276.36 C76.85,276.36 77.19,276.73 77.19,277.22 C77.19,277.73 76.85,278.08 76.26,278.08 L76.26,278.08 Z M76.31,280.97 L74.38,280.97 L74.38,279.11 L76.31,279.11 C76.97,279.11 77.32,279.54 77.32,280.04 C77.32,280.62 76.94,280.97 76.31,280.97 L76.31,280.97 Z M80.87,282 L80.87,275.33 L79.7,275.33 L79.7,282 L80.87,282 Z M86.32,282 L86.32,280.97 L83.38,280.97 L83.38,275.33 L82.21,275.33 L82.21,282 L86.32,282 Z M91.38,282 L91.38,280.97 L88.44,280.97 L88.44,275.33 L87.27,275.33 L87.27,282 L91.38,282 Z M96.98,282 L96.98,280.97 L93.58,280.97 L93.58,279.11 L96.91,279.11 L96.91,278.08 L93.58,278.08 L93.58,276.36 L96.98,276.36 L96.98,275.33 L92.41,275.33 L92.41,282 L96.98,282 Z M100.67,282 C102.75,282 104.15,280.63 104.15,278.66 C104.15,276.71 102.75,275.33 100.66,275.33 L98.18,275.33 L98.18,282 L100.67,282 Z M100.66,280.97 L99.35,280.97 L99.35,276.36 L100.67,276.36 C102.15,276.36 102.95,277.38 102.95,278.66 C102.95,279.93 102.11,280.97 100.66,280.97 L100.66,280.97 Z M110.62,282 L110.62,276.36 L112.64,276.36 L112.64,275.33 L107.43,275.33 L107.43,276.36 L109.45,276.36 L109.45,282 L110.62,282 Z M116.5,282.12 C118.49,282.12 119.91,280.66 119.91,278.67 C119.91,276.68 118.49,275.22 116.5,275.22 C114.5,275.22 113.09,276.68 113.09,278.67 C113.09,280.66 114.5,282.12 116.5,282.12 L116.5,282.12 Z M116.5,281.08 C115.15,281.08 114.29,280.04 114.29,278.67 C114.29,277.29 115.15,276.26 116.5,276.26 C117.84,276.26 118.71,277.29 118.71,278.67 C118.71,280.04 117.84,281.08 116.5,281.08 L116.5,281.08 Z M75.09,301.168 C76.644,301.168 77.918,300.244 77.918,298.298 L77.918,291.662 L77.12,291.662 L77.12,298.298 C77.12,299.558 76.322,300.44 75.048,300.44 C74.18,300.44 73.606,299.964 73.186,299.404 L72.696,300.02 C73.312,300.818 74.082,301.168 75.09,301.168 L75.09,301.168 Z M83.07,301.168 C85.072,301.168 86.332,299.586 86.332,297.612 C86.332,295.638 85.072,294.07 83.07,294.07 C81.096,294.07 79.836,295.638 79.836,297.612 C79.836,299.586 81.096,301.168 83.07,301.168 L83.07,301.168 Z M83.07,300.51 C81.502,300.51 80.606,299.124 80.606,297.612 C80.606,296.114 81.502,294.728 83.07,294.728 C84.666,294.728 85.548,296.114 85.548,297.612 C85.548,299.124 84.666,300.51 83.07,300.51 L83.07,300.51 Z M93.5,301 L93.5,296.268 C93.5,294.742 92.744,294.07 91.372,294.07 C90.392,294.07 89.426,294.672 88.936,295.26 L88.936,294.238 L88.208,294.238 L88.208,301 L88.936,301 L88.936,295.89 C89.37,295.274 90.266,294.728 91.134,294.728 C92.114,294.728 92.772,295.12 92.772,296.422 L92.772,301 L93.5,301 Z M100.794,301 L100.794,296.24 C100.794,294.728 99.702,294.07 98.33,294.07 C97.21,294.07 96.426,294.448 95.726,295.204 L96.132,295.708 C96.748,295.008 97.406,294.714 98.26,294.714 C99.254,294.714 100.066,295.26 100.066,296.268 L100.066,297.64 C99.478,296.982 98.708,296.674 97.77,296.674 C96.594,296.674 95.404,297.444 95.404,298.914 C95.404,300.37 96.608,301.168 97.77,301.168 C98.708,301.168 99.464,300.86 100.066,300.202 L100.066,301 L100.794,301 Z M98.022,300.594 C96.916,300.594 96.174,299.88 96.174,298.928 C96.174,297.962 96.916,297.248 98.022,297.248 C98.834,297.248 99.59,297.556 100.066,298.186 L100.066,299.67 C99.59,300.286 98.834,300.594 98.022,300.594 L98.022,300.594 Z M104.532,301.168 C105.092,301.168 105.414,301 105.68,300.748 L105.4,300.188 C105.246,300.356 104.966,300.51 104.644,300.51 C104.168,300.51 103.944,300.132 103.944,299.586 L103.944,294.882 L105.316,294.882 L105.316,294.238 L103.944,294.238 L103.944,292.39 L103.202,292.39 L103.202,294.238 L102.082,294.238 L102.082,294.882 L103.202,294.882 L103.202,299.698 C103.202,300.622 103.636,301.168 104.532,301.168 L104.532,301.168 Z M112.204,301 L112.204,296.24 C112.204,294.714 111.448,294.07 110.076,294.07 C109.096,294.07 108.13,294.672 107.64,295.26 L107.64,291.662 L106.912,291.662 L106.912,301 L107.64,301 L107.64,295.89 C108.074,295.274 108.97,294.728 109.838,294.728 C110.818,294.728 111.476,295.092 111.476,296.394 L111.476,301 L112.204,301 Z M119.498,301 L119.498,296.24 C119.498,294.728 118.406,294.07 117.034,294.07 C115.914,294.07 115.13,294.448 114.43,295.204 L114.836,295.708 C115.452,295.008 116.11,294.714 116.964,294.714 C117.958,294.714 118.77,295.26 118.77,296.268 L118.77,297.64 C118.182,296.982 117.412,296.674 116.474,296.674 C115.298,296.674 114.108,297.444 114.108,298.914 C114.108,300.37 115.312,301.168 116.474,301.168 C117.412,301.168 118.168,300.86 118.77,300.202 L118.77,301 L119.498,301 Z M116.726,300.594 C115.62,300.594 114.878,299.88 114.878,298.928 C114.878,297.962 115.62,297.248 116.726,297.248 C117.538,297.248 118.294,297.556 118.77,298.186 L118.77,299.67 C118.294,300.286 117.538,300.594 116.726,300.594 L116.726,300.594 Z M127.058,301 L127.058,296.268 C127.058,294.742 126.302,294.07 124.93,294.07 C123.95,294.07 122.984,294.672 122.494,295.26 L122.494,294.238 L121.766,294.238 L121.766,301 L122.494,301 L122.494,295.89 C122.928,295.274 123.824,294.728 124.692,294.728 C125.672,294.728 126.33,295.12 126.33,296.422 L126.33,301 L127.058,301 Z M133.778,301 L133.778,291.662 L132.98,291.662 L132.98,301 L133.778,301 Z M138.72,301 L141.576,294.238 L140.75,294.238 L138.314,300.146 L135.85,294.238 L135.038,294.238 L137.894,301 L138.72,301 Z M145.804,301.168 C146.924,301.168 147.778,300.776 148.45,300.076 L148.072,299.6 C147.498,300.216 146.714,300.538 145.86,300.538 C144.264,300.538 143.284,299.32 143.214,297.85 L148.87,297.85 L148.87,297.654 C148.87,295.694 147.736,294.07 145.678,294.07 C143.802,294.07 142.43,295.652 142.43,297.612 C142.43,299.698 143.83,301.168 145.804,301.168 L145.804,301.168 Z M148.128,297.276 L143.214,297.276 C143.27,296.1 144.068,294.7 145.664,294.7 C147.358,294.7 148.114,296.128 148.128,297.276 L148.128,297.276 Z M151.712,300.804 C151.712,300.23 151.376,299.908 150.998,299.908 C150.662,299.908 150.396,300.188 150.396,300.51 C150.396,300.846 150.634,301.098 150.97,301.098 C151.012,301.098 151.11,301.084 151.11,301.084 C151.082,301.518 150.746,302.064 150.298,302.372 L150.704,302.708 C151.25,302.33 151.712,301.588 151.712,300.804 L151.712,300.804 Z M75.65,321 L75.65,311.662 L74.922,311.662 L72.864,313.832 L73.354,314.35 L74.852,312.754 L74.852,321 L75.65,321 Z M80.998,321.168 C82.72,321.168 84.148,320.02 84.148,318.158 C84.148,316.212 82.734,315.176 81.166,315.176 C80.2,315.176 79.402,315.596 78.94,316.044 L78.94,312.39 L83.532,312.39 L83.532,311.662 L78.142,311.662 L78.142,316.562 L78.744,316.814 C79.43,316.184 80.158,315.904 81.012,315.904 C82.356,315.904 83.336,316.772 83.336,318.186 C83.336,319.46 82.356,320.44 80.998,320.44 C79.794,320.44 78.982,319.964 78.38,319.11 L77.848,319.642 C78.492,320.566 79.444,321.168 80.998,321.168 L80.998,321.168 Z M88.964,321.168 C90.756,321.168 92.142,320.174 92.142,318.662 C92.142,317.36 91.008,316.506 89.818,316.184 C90.924,315.89 91.988,315.176 91.988,313.93 C91.988,312.278 90.42,311.522 88.964,311.522 C87.494,311.522 85.94,312.278 85.94,313.93 C85.94,315.176 87.004,315.89 88.11,316.184 C86.92,316.506 85.786,317.36 85.786,318.662 C85.786,320.188 87.158,321.168 88.964,321.168 L88.964,321.168 Z M88.964,315.848 C88.404,315.736 86.752,315.316 86.752,314.014 C86.752,312.894 87.746,312.25 88.964,312.25 C90.182,312.25 91.176,312.894 91.176,314.014 C91.176,315.316 89.538,315.736 88.964,315.848 L88.964,315.848 Z M88.964,320.44 C87.718,320.44 86.598,319.74 86.598,318.606 C86.598,317.178 88.39,316.618 88.964,316.548 C89.524,316.618 91.33,317.178 91.33,318.606 C91.33,319.74 90.182,320.44 88.964,320.44 L88.964,320.44 Z M96.958,321.168 C98.75,321.168 100.136,320.174 100.136,318.662 C100.136,317.36 99.002,316.506 97.812,316.184 C98.918,315.89 99.982,315.176 99.982,313.93 C99.982,312.278 98.414,311.522 96.958,311.522 C95.488,311.522 93.934,312.278 93.934,313.93 C93.934,315.176 94.998,315.89 96.104,316.184 C94.914,316.506 93.78,317.36 93.78,318.662 C93.78,320.188 95.152,321.168 96.958,321.168 L96.958,321.168 Z M96.958,315.848 C96.398,315.736 94.746,315.316 94.746,314.014 C94.746,312.894 95.74,312.25 96.958,312.25 C98.176,312.25 99.17,312.894 99.17,314.014 C99.17,315.316 97.532,315.736 96.958,315.848 L96.958,315.848 Z M96.958,320.44 C95.712,320.44 94.592,319.74 94.592,318.606 C94.592,317.178 96.384,316.618 96.958,316.548 C97.518,316.618 99.324,317.178 99.324,318.606 C99.324,319.74 98.176,320.44 96.958,320.44 L96.958,320.44 Z M110.118,321.168 C111.602,321.168 112.694,320.524 113.534,319.502 L112.848,319.082 C112.26,319.894 111.238,320.44 110.118,320.44 C107.934,320.44 106.226,318.746 106.226,316.338 C106.226,313.902 107.934,312.236 110.118,312.236 C111.238,312.236 112.26,312.782 112.848,313.594 L113.52,313.16 C112.736,312.166 111.602,311.508 110.118,311.508 C107.472,311.508 105.386,313.468 105.386,316.338 C105.386,319.208 107.472,321.168 110.118,321.168 L110.118,321.168 Z M115.83,321 L115.83,316.072 C116.138,315.484 117.062,314.868 117.748,314.868 C117.888,314.868 117.986,314.868 118.112,314.896 L118.112,314.098 C117.174,314.098 116.404,314.644 115.83,315.4 L115.83,314.238 L115.102,314.238 L115.102,321 L115.83,321 Z M124.832,321 L124.832,314.238 L124.104,314.238 L124.104,319.39 C123.656,319.992 122.774,320.51 121.906,320.51 C120.926,320.51 120.268,320.146 120.268,318.83 L120.268,314.238 L119.54,314.238 L119.54,318.998 C119.54,320.524 120.296,321.168 121.668,321.168 C122.648,321.168 123.558,320.622 124.104,320.006 L124.104,321 L124.832,321 Z M129.998,321.168 C131.174,321.168 131.846,320.706 132.392,320.006 L131.888,319.558 C131.398,320.23 130.782,320.51 130.04,320.51 C128.458,320.51 127.492,319.236 127.492,317.612 C127.492,315.988 128.458,314.728 130.04,314.728 C130.782,314.728 131.398,314.994 131.888,315.666 L132.392,315.218 C131.846,314.532 131.174,314.07 129.998,314.07 C128.01,314.07 126.722,315.638 126.722,317.612 C126.722,319.586 128.01,321.168 129.998,321.168 L129.998,321.168 Z M137.012,321.168 C138.132,321.168 138.986,320.776 139.658,320.076 L139.28,319.6 C138.706,320.216 137.922,320.538 137.068,320.538 C135.472,320.538 134.492,319.32 134.422,317.85 L140.078,317.85 L140.078,317.654 C140.078,315.694 138.944,314.07 136.886,314.07 C135.01,314.07 133.638,315.652 133.638,317.612 C133.638,319.698 135.038,321.168 137.012,321.168 L137.012,321.168 Z M139.336,317.276 L134.422,317.276 C134.478,316.1 135.276,314.7 136.872,314.7 C138.566,314.7 139.322,316.128 139.336,317.276 L139.336,317.276 Z M142.682,321 L142.682,316.072 C142.99,315.484 143.914,314.868 144.6,314.868 C144.74,314.868 144.838,314.868 144.964,314.896 L144.964,314.098 C144.026,314.098 143.256,314.644 142.682,315.4 L142.682,314.238 L141.954,314.238 L141.954,321 L142.682,321 Z M149.248,321.168 C151.25,321.168 152.51,319.586 152.51,317.612 C152.51,315.638 151.25,314.07 149.248,314.07 C147.274,314.07 146.014,315.638 146.014,317.612 C146.014,319.586 147.274,321.168 149.248,321.168 L149.248,321.168 Z M149.248,320.51 C147.68,320.51 146.784,319.124 146.784,317.612 C146.784,316.114 147.68,314.728 149.248,314.728 C150.844,314.728 151.726,316.114 151.726,317.612 C151.726,319.124 150.844,320.51 149.248,320.51 L149.248,320.51 Z M165.726,321 L161.904,311.662 L160.91,311.662 L157.088,321 L158.012,321 L158.936,318.704 L163.878,318.704 L164.802,321 L165.726,321 Z M163.612,317.976 L159.202,317.976 L161.414,312.516 L163.612,317.976 Z M169.436,321 L172.292,314.238 L171.466,314.238 L169.03,320.146 L166.566,314.238 L165.754,314.238 L168.61,321 L169.436,321 Z M176.52,321.168 C177.64,321.168 178.494,320.776 179.166,320.076 L178.788,319.6 C178.214,320.216 177.43,320.538 176.576,320.538 C174.98,320.538 174,319.32 173.93,317.85 L179.586,317.85 L179.586,317.654 C179.586,315.694 178.452,314.07 176.394,314.07 C174.518,314.07 173.146,315.652 173.146,317.612 C173.146,319.698 174.546,321.168 176.52,321.168 L176.52,321.168 Z M178.844,317.276 L173.93,317.276 C173.986,316.1 174.784,314.7 176.38,314.7 C178.074,314.7 178.83,316.128 178.844,317.276 L178.844,317.276 Z M186.754,321 L186.754,316.268 C186.754,314.742 185.998,314.07 184.626,314.07 C183.646,314.07 182.68,314.672 182.19,315.26 L182.19,314.238 L181.462,314.238 L181.462,321 L182.19,321 L182.19,315.89 C182.624,315.274 183.52,314.728 184.388,314.728 C185.368,314.728 186.026,315.12 186.026,316.422 L186.026,321 L186.754,321 Z M194.314,321 L194.314,314.238 L193.586,314.238 L193.586,319.39 C193.138,319.992 192.256,320.51 191.388,320.51 C190.408,320.51 189.75,320.146 189.75,318.83 L189.75,314.238 L189.022,314.238 L189.022,318.998 C189.022,320.524 189.778,321.168 191.15,321.168 C192.13,321.168 193.04,320.622 193.586,320.006 L193.586,321 L194.314,321 Z M199.578,321.168 C200.698,321.168 201.552,320.776 202.224,320.076 L201.846,319.6 C201.272,320.216 200.488,320.538 199.634,320.538 C198.038,320.538 197.058,319.32 196.988,317.85 L202.644,317.85 L202.644,317.654 C202.644,315.694 201.51,314.07 199.452,314.07 C197.576,314.07 196.204,315.652 196.204,317.612 C196.204,319.698 197.604,321.168 199.578,321.168 L199.578,321.168 Z M201.902,317.276 L196.988,317.276 C197.044,316.1 197.842,314.7 199.438,314.7 C201.132,314.7 201.888,316.128 201.902,317.276 L201.902,317.276 Z M205.486,320.804 C205.486,320.23 205.15,319.908 204.772,319.908 C204.436,319.908 204.17,320.188 204.17,320.51 C204.17,320.846 204.408,321.098 204.744,321.098 C204.786,321.098 204.884,321.084 204.884,321.084 C204.856,321.518 204.52,322.064 204.072,322.372 L204.478,322.708 C205.024,322.33 205.486,321.588 205.486,320.804 L205.486,320.804 Z M76.56,341.168 C79.08,341.168 79.878,339.726 79.878,338.522 C79.878,335.036 74.278,336.352 74.278,333.958 C74.278,332.95 75.216,332.236 76.462,332.236 C77.512,332.236 78.464,332.6 79.136,333.412 L79.668,332.824 C78.954,331.998 77.89,331.508 76.504,331.508 C74.81,331.508 73.438,332.474 73.438,334 C73.438,337.262 79.038,335.834 79.038,338.578 C79.038,339.376 78.492,340.44 76.588,340.44 C75.244,340.44 74.264,339.768 73.662,339.082 L73.144,339.684 C73.858,340.538 75.02,341.168 76.56,341.168 L76.56,341.168 Z M86.794,341 L86.794,336.24 C86.794,334.728 85.702,334.07 84.33,334.07 C83.21,334.07 82.426,334.448 81.726,335.204 L82.132,335.708 C82.748,335.008 83.406,334.714 84.26,334.714 C85.254,334.714 86.066,335.26 86.066,336.268 L86.066,337.64 C85.478,336.982 84.708,336.674 83.77,336.674 C82.594,336.674 81.404,337.444 81.404,338.914 C81.404,340.37 82.608,341.168 83.77,341.168 C84.708,341.168 85.464,340.86 86.066,340.202 L86.066,341 L86.794,341 Z M84.022,340.594 C82.916,340.594 82.174,339.88 82.174,338.928 C82.174,337.962 82.916,337.248 84.022,337.248 C84.834,337.248 85.59,337.556 86.066,338.186 L86.066,339.67 C85.59,340.286 84.834,340.594 84.022,340.594 L84.022,340.594 Z M94.354,341 L94.354,336.268 C94.354,334.742 93.598,334.07 92.226,334.07 C91.246,334.07 90.28,334.672 89.79,335.26 L89.79,334.238 L89.062,334.238 L89.062,341 L89.79,341 L89.79,335.89 C90.224,335.274 91.12,334.728 91.988,334.728 C92.968,334.728 93.626,335.12 93.626,336.422 L93.626,341 L94.354,341 Z M101.704,341.168 C103.258,341.168 104.532,340.244 104.532,338.298 L104.532,331.662 L103.734,331.662 L103.734,338.298 C103.734,339.558 102.936,340.44 101.662,340.44 C100.794,340.44 100.22,339.964 99.8,339.404 L99.31,340.02 C99.926,340.818 100.696,341.168 101.704,341.168 L101.704,341.168 Z M109.684,341.168 C111.686,341.168 112.946,339.586 112.946,337.612 C112.946,335.638 111.686,334.07 109.684,334.07 C107.71,334.07 106.45,335.638 106.45,337.612 C106.45,339.586 107.71,341.168 109.684,341.168 L109.684,341.168 Z M109.684,340.51 C108.116,340.51 107.22,339.124 107.22,337.612 C107.22,336.114 108.116,334.728 109.684,334.728 C111.28,334.728 112.162,336.114 112.162,337.612 C112.162,339.124 111.28,340.51 109.684,340.51 L109.684,340.51 Z M116.838,341.168 C118.532,341.168 119.372,340.272 119.372,339.18 C119.372,336.576 115.116,337.612 115.116,335.918 C115.116,335.218 115.746,334.686 116.796,334.686 C117.692,334.686 118.42,335.05 118.812,335.582 L119.218,335.064 C118.728,334.518 117.958,334.07 116.796,334.07 C115.27,334.07 114.388,334.91 114.388,335.946 C114.388,338.382 118.658,337.332 118.658,339.18 C118.658,339.964 117.986,340.552 116.852,340.552 C115.9,340.552 115.102,340.104 114.668,339.558 L114.234,340.09 C114.906,340.846 115.746,341.168 116.838,341.168 L116.838,341.168 Z M124.244,341.168 C125.364,341.168 126.218,340.776 126.89,340.076 L126.512,339.6 C125.938,340.216 125.154,340.538 124.3,340.538 C122.704,340.538 121.724,339.32 121.654,337.85 L127.31,337.85 L127.31,337.654 C127.31,335.694 126.176,334.07 124.118,334.07 C122.242,334.07 120.87,335.652 120.87,337.612 C120.87,339.698 122.27,341.168 124.244,341.168 L124.244,341.168 Z M126.568,337.276 L121.654,337.276 C121.71,336.1 122.508,334.7 124.104,334.7 C125.798,334.7 126.554,336.128 126.568,337.276 L126.568,337.276 Z M130.152,340.804 C130.152,340.23 129.816,339.908 129.438,339.908 C129.102,339.908 128.836,340.188 128.836,340.51 C128.836,340.846 129.074,341.098 129.41,341.098 C129.452,341.098 129.55,341.084 129.55,341.084 C129.522,341.518 129.186,342.064 128.738,342.372 L129.144,342.708 C129.69,342.33 130.152,341.588 130.152,340.804 L130.152,340.804 Z M140.162,341.168 C141.646,341.168 142.738,340.524 143.578,339.502 L142.892,339.082 C142.304,339.894 141.282,340.44 140.162,340.44 C137.978,340.44 136.27,338.746 136.27,336.338 C136.27,333.902 137.978,332.236 140.162,332.236 C141.282,332.236 142.304,332.782 142.892,333.594 L143.564,333.16 C142.78,332.166 141.646,331.508 140.162,331.508 C137.516,331.508 135.43,333.468 135.43,336.338 C135.43,339.208 137.516,341.168 140.162,341.168 L140.162,341.168 Z M152.832,341 L149.01,331.662 L148.016,331.662 L144.194,341 L145.118,341 L146.042,338.704 L150.984,338.704 L151.908,341 L152.832,341 Z M150.718,337.976 L146.308,337.976 L148.52,332.516 L150.718,337.976 Z M160.462,341.154 C163.038,341.154 164.032,338.732 164.032,336.338 C164.032,333.832 163.122,331.508 160.602,331.508 C158.614,331.508 157.466,332.964 157.466,334.49 C157.466,336.478 158.796,337.444 160.476,337.444 C161.75,337.444 162.828,336.534 163.22,335.89 L163.22,336.324 C163.22,338.284 162.52,340.426 160.462,340.426 C159.44,340.426 158.88,339.992 158.418,339.39 L157.942,339.964 C158.502,340.664 159.244,341.154 160.462,341.154 L160.462,341.154 Z M160.616,336.73 C159.286,336.73 158.278,336.002 158.278,334.476 C158.278,333.468 159.034,332.236 160.63,332.236 C162.394,332.236 163.052,333.86 163.164,335.134 C162.632,336.072 161.638,336.73 160.616,336.73 L160.616,336.73 Z M169.03,341.168 C170.752,341.168 172.18,340.02 172.18,338.158 C172.18,336.212 170.766,335.176 169.198,335.176 C168.232,335.176 167.434,335.596 166.972,336.044 L166.972,332.39 L171.564,332.39 L171.564,331.662 L166.174,331.662 L166.174,336.562 L166.776,336.814 C167.462,336.184 168.19,335.904 169.044,335.904 C170.388,335.904 171.368,336.772 171.368,338.186 C171.368,339.46 170.388,340.44 169.03,340.44 C167.826,340.44 167.014,339.964 166.412,339.11 L165.88,339.642 C166.524,340.566 167.476,341.168 169.03,341.168 L169.03,341.168 Z M176.142,341 L176.142,331.662 L175.414,331.662 L173.356,333.832 L173.846,334.35 L175.344,332.754 L175.344,341 L176.142,341 Z M184.248,341 L184.248,340.272 L179.334,340.272 C182.036,338.088 184.206,336.212 184.206,334.154 C184.206,332.306 182.638,331.522 181.266,331.522 C179.95,331.522 178.816,332.068 178.158,332.964 L178.704,333.468 C179.208,332.754 180.104,332.25 181.266,332.25 C182.288,332.25 183.394,332.81 183.394,334.154 C183.394,335.96 181.266,337.78 178.088,340.342 L178.088,341 L184.248,341 Z M192.396,341 L192.396,340.272 L187.482,340.272 C190.184,338.088 192.354,336.212 192.354,334.154 C192.354,332.306 190.786,331.522 189.414,331.522 C188.098,331.522 186.964,332.068 186.306,332.964 L186.852,333.468 C187.356,332.754 188.252,332.25 189.414,332.25 C190.436,332.25 191.542,332.81 191.542,334.154 C191.542,335.96 189.414,337.78 186.236,340.342 L186.236,341 L192.396,341 Z" id="BILLED-TO" sketch:type="MSShapeGroup"></path>
        </g>
    </g>
</svg>