<?xml version="1.0" encoding="UTF-8" standalone="no"?>
<svg width="347px" height="72px" viewBox="0 0 347 72" version="1.1" xmlns="http://www.w3.org/2000/svg" xmlns:xlink="http://www.w3.org/1999/xlink" xmlns:sketch="http://www.bohemiancoding.com/sketch/ns">
    <!-- Generator: Sketch 3.4.2 (15855) - http://www.bohemiancoding.com/sketch -->
    <title>Rectangle 1 + The amazing coupon $ + Festive coupon $5 of</title>
    <desc>Created with Sketch.</desc>
    <defs></defs>
    <g id="Page-1" stroke="none" stroke-width="1" fill="none" fill-rule="evenodd" sketch:type="MSPage">
        <g id="Inclusive-detailed" sketch:type="MSArtboardGroup" transform="translate(-71.000000, -624.000000)">
            <g id="Rectangle-1-+-The-amazing-coupon-$-+-Festive-coupon-$5-of" sketch:type="MSLayerGroup" transform="translate(71.000000, 624.000000)">
                <rect id="Rectangle-1" opacity="0.5" fill="#D8D8D8" sketch:type="MSShapeGroup" x="0" y="0" width="347" height="72"></rect>
                <path d="M22.912,27 L22.912,19.884 L25.456,19.884 L25.456,18.996 L19.384,18.996 L19.384,19.884 L21.916,19.884 L21.916,27 L22.912,27 Z M31.564,27 L31.564,22.908 C31.564,21.648 30.928,21.06 29.716,21.06 C28.84,21.06 28.048,21.552 27.652,22.044 L27.652,18.996 L26.752,18.996 L26.752,27 L27.652,27 L27.652,22.764 C27.988,22.296 28.66,21.864 29.356,21.864 C30.148,21.864 30.664,22.152 30.664,23.184 L30.664,27 L31.564,27 Z M35.992,27.144 C36.928,27.144 37.708,26.82 38.296,26.244 L37.864,25.656 C37.396,26.136 36.736,26.4 36.064,26.4 C34.816,26.4 34.06,25.488 33.988,24.396 L38.668,24.396 L38.668,24.168 C38.668,22.428 37.636,21.06 35.884,21.06 C34.228,21.06 33.028,22.416 33.028,24.096 C33.028,25.908 34.264,27.144 35.992,27.144 L35.992,27.144 Z M37.78,23.724 L33.976,23.724 C34.024,22.848 34.636,21.804 35.872,21.804 C37.192,21.804 37.768,22.872 37.78,23.724 L37.78,23.724 Z M47.752,27 L47.752,23.016 C47.752,21.612 46.744,21.06 45.508,21.06 C44.56,21.06 43.816,21.372 43.192,22.02 L43.612,22.644 C44.128,22.08 44.692,21.84 45.388,21.84 C46.228,21.84 46.852,22.284 46.852,23.052 L46.852,24.096 C46.384,23.568 45.724,23.316 44.932,23.316 C43.948,23.316 42.916,23.916 42.916,25.224 C42.916,26.484 43.96,27.144 44.932,27.144 C45.712,27.144 46.384,26.868 46.852,26.34 L46.852,27 L47.752,27 Z M45.268,26.496 C44.416,26.496 43.828,25.968 43.828,25.224 C43.828,24.492 44.416,23.964 45.268,23.964 C45.892,23.964 46.504,24.204 46.852,24.672 L46.852,25.776 C46.504,26.256 45.892,26.496 45.268,26.496 L45.268,26.496 Z M57.46,27 L57.46,22.812 C57.46,21.648 56.896,21.06 55.84,21.06 C55,21.06 54.22,21.612 53.896,22.14 C53.728,21.54 53.224,21.06 52.348,21.06 C51.484,21.06 50.716,21.672 50.464,22.044 L50.464,21.204 L49.564,21.204 L49.564,27 L50.464,27 L50.464,22.764 C50.776,22.296 51.4,21.864 51.988,21.864 C52.756,21.864 53.056,22.332 53.056,23.064 L53.056,27 L53.956,27 L53.956,22.752 C54.256,22.284 54.892,21.864 55.492,21.864 C56.248,21.864 56.56,22.332 56.56,23.064 L56.56,27 L57.46,27 Z M63.784,27 L63.784,23.016 C63.784,21.612 62.776,21.06 61.54,21.06 C60.592,21.06 59.848,21.372 59.224,22.02 L59.644,22.644 C60.16,22.08 60.724,21.84 61.42,21.84 C62.26,21.84 62.884,22.284 62.884,23.052 L62.884,24.096 C62.416,23.568 61.756,23.316 60.964,23.316 C59.98,23.316 58.948,23.916 58.948,25.224 C58.948,26.484 59.992,27.144 60.964,27.144 C61.744,27.144 62.416,26.868 62.884,26.34 L62.884,27 L63.784,27 Z M61.3,26.496 C60.448,26.496 59.86,25.968 59.86,25.224 C59.86,24.492 60.448,23.964 61.3,23.964 C61.924,23.964 62.536,24.204 62.884,24.672 L62.884,25.776 C62.536,26.256 61.924,26.496 61.3,26.496 L61.3,26.496 Z M69.736,27 L69.736,26.208 L66.472,26.208 L69.688,21.888 L69.688,21.204 L65.32,21.204 L65.32,21.996 L68.512,21.996 L65.32,26.292 L65.32,27 L69.736,27 Z M71.716,20.376 C72.052,20.376 72.316,20.112 72.316,19.776 C72.316,19.44 72.052,19.164 71.716,19.164 C71.38,19.164 71.104,19.44 71.104,19.776 C71.104,20.112 71.38,20.376 71.716,20.376 L71.716,20.376 Z M72.16,27 L72.16,21.204 L71.26,21.204 L71.26,27 L72.16,27 Z M78.772,27 L78.772,22.932 C78.772,21.672 78.136,21.06 76.936,21.06 C76.06,21.06 75.268,21.552 74.86,22.044 L74.86,21.204 L73.96,21.204 L73.96,27 L74.86,27 L74.86,22.764 C75.208,22.296 75.868,21.864 76.576,21.864 C77.356,21.864 77.884,22.176 77.884,23.208 L77.884,27 L78.772,27 Z M82.912,29.352 C84.328,29.352 85.684,28.752 85.684,26.916 L85.684,21.204 L84.784,21.204 L84.784,22.08 C84.316,21.444 83.608,21.06 82.828,21.06 C81.304,21.06 80.248,22.212 80.248,24.072 C80.248,25.944 81.316,27.072 82.828,27.072 C83.644,27.072 84.352,26.628 84.784,26.04 L84.784,26.916 C84.784,28.14 83.872,28.608 82.912,28.608 C82.084,28.608 81.508,28.392 81.028,27.828 L80.572,28.476 C81.268,29.16 81.94,29.352 82.912,29.352 L82.912,29.352 Z M83.056,26.268 C81.88,26.268 81.184,25.344 81.184,24.072 C81.184,22.788 81.88,21.864 83.056,21.864 C83.764,21.864 84.46,22.296 84.784,22.788 L84.784,25.332 C84.46,25.836 83.764,26.268 83.056,26.268 L83.056,26.268 Z M93.148,27.144 C94.204,27.144 94.828,26.712 95.272,26.136 L94.672,25.584 C94.288,26.1 93.796,26.34 93.196,26.34 C91.972,26.34 91.192,25.38 91.192,24.096 C91.192,22.812 91.972,21.864 93.196,21.864 C93.796,21.864 94.288,22.08 94.672,22.608 L95.272,22.068 C94.828,21.492 94.204,21.06 93.148,21.06 C91.42,21.06 90.256,22.38 90.256,24.096 C90.256,25.812 91.42,27.144 93.148,27.144 L93.148,27.144 Z M99.076,27.144 C100.84,27.144 101.944,25.776 101.944,24.096 C101.944,22.416 100.84,21.06 99.076,21.06 C97.312,21.06 96.208,22.416 96.208,24.096 C96.208,25.776 97.312,27.144 99.076,27.144 L99.076,27.144 Z M99.076,26.34 C97.84,26.34 97.156,25.284 97.156,24.096 C97.156,22.92 97.84,21.864 99.076,21.864 C100.312,21.864 100.996,22.92 100.996,24.096 C100.996,25.284 100.312,26.34 99.076,26.34 L99.076,26.34 Z M108.22,27 L108.22,21.204 L107.32,21.204 L107.32,25.464 C106.984,25.932 106.312,26.34 105.616,26.34 C104.824,26.34 104.308,26.04 104.308,25.02 L104.308,21.204 L103.408,21.204 L103.408,25.296 C103.408,26.544 104.044,27.144 105.256,27.144 C106.12,27.144 106.876,26.688 107.32,26.184 L107.32,27 L108.22,27 Z M112.876,27.144 C114.4,27.144 115.456,25.968 115.456,24.096 C115.456,22.212 114.4,21.06 112.876,21.06 C112.06,21.06 111.34,21.48 110.92,22.068 L110.92,21.204 L110.02,21.204 L110.02,29.208 L110.92,29.208 L110.92,26.124 C111.4,26.76 112.084,27.144 112.876,27.144 L112.876,27.144 Z M112.648,26.34 C111.94,26.34 111.232,25.908 110.92,25.404 L110.92,22.788 C111.232,22.284 111.94,21.864 112.648,21.864 C113.812,21.864 114.508,22.812 114.508,24.096 C114.508,25.38 113.812,26.34 112.648,26.34 L112.648,26.34 Z M119.416,27.144 C121.18,27.144 122.284,25.776 122.284,24.096 C122.284,22.416 121.18,21.06 119.416,21.06 C117.652,21.06 116.548,22.416 116.548,24.096 C116.548,25.776 117.652,27.144 119.416,27.144 L119.416,27.144 Z M119.416,26.34 C118.18,26.34 117.496,25.284 117.496,24.096 C117.496,22.92 118.18,21.864 119.416,21.864 C120.652,21.864 121.336,22.92 121.336,24.096 C121.336,25.284 120.652,26.34 119.416,26.34 L119.416,26.34 Z M128.56,27 L128.56,22.932 C128.56,21.672 127.924,21.06 126.724,21.06 C125.848,21.06 125.056,21.552 124.648,22.044 L124.648,21.204 L123.748,21.204 L123.748,27 L124.648,27 L124.648,22.764 C124.996,22.296 125.656,21.864 126.364,21.864 C127.144,21.864 127.672,22.176 127.672,23.208 L127.672,27 L128.56,27 Z M135.808,28.2 L136.768,28.2 L136.768,27.12 C138.568,26.964 139.372,25.884 139.372,24.66 C139.372,23.052 138.016,22.584 136.768,22.26 L136.768,20.184 C137.356,20.304 137.932,20.58 138.388,21.036 L139.18,19.992 C138.556,19.392 137.74,19.008 136.768,18.9 L136.768,17.784 L135.808,17.784 L135.808,18.888 C134.26,19.02 133.276,19.992 133.276,21.216 C133.276,22.776 134.572,23.22 135.808,23.532 L135.808,25.86 C134.944,25.728 134.248,25.272 133.804,24.78 L133.012,25.872 C133.648,26.532 134.572,27.024 135.808,27.12 L135.808,28.2 Z M137.932,24.792 C137.932,25.26 137.596,25.752 136.768,25.872 L136.768,23.784 C137.428,23.988 137.932,24.252 137.932,24.792 L137.932,24.792 Z M134.716,21.108 C134.716,20.58 135.136,20.208 135.808,20.124 L135.808,22.008 C135.172,21.816 134.716,21.576 134.716,21.108 L134.716,21.108 Z M143.548,27 L143.548,18.996 L142.324,18.996 L140.02,21.324 L140.836,22.176 L142.144,20.808 L142.144,27 L143.548,27 Z M148.108,27.144 C150.352,27.144 151.3,25.008 151.3,23.004 C151.3,20.988 150.352,18.876 148.108,18.876 C145.852,18.876 144.904,20.988 144.904,23.004 C144.904,25.008 145.852,27.144 148.108,27.144 L148.108,27.144 Z M148.108,25.896 C146.8,25.896 146.332,24.528 146.332,23.004 C146.332,21.468 146.8,20.124 148.108,20.124 C149.416,20.124 149.872,21.468 149.872,23.004 C149.872,24.528 149.404,25.896 148.108,25.896 L148.108,25.896 Z M158.344,27.144 C160.192,27.144 161.32,25.752 161.32,24.096 C161.32,22.428 160.192,21.06 158.344,21.06 C156.496,21.06 155.368,22.428 155.368,24.096 C155.368,25.752 156.496,27.144 158.344,27.144 L158.344,27.144 Z M158.344,26.028 C157.276,26.028 156.676,25.128 156.676,24.096 C156.676,23.076 157.276,22.176 158.344,22.176 C159.424,22.176 160.012,23.076 160.012,24.096 C160.012,25.128 159.424,26.028 158.344,26.028 L158.344,26.028 Z M164.176,27 L164.176,22.296 L165.352,22.296 L165.352,21.204 L164.176,21.204 L164.176,20.88 C164.176,20.232 164.476,19.908 164.98,19.908 C165.256,19.908 165.472,20.004 165.64,20.16 L166.132,19.38 C165.784,19.008 165.268,18.876 164.74,18.876 C163.648,18.876 162.916,19.62 162.916,20.88 L162.916,21.204 L161.956,21.204 L161.956,22.296 L162.916,22.296 L162.916,27 L164.176,27 Z M167.884,27 L167.884,22.296 L169.06,22.296 L169.06,21.204 L167.884,21.204 L167.884,20.88 C167.884,20.232 168.184,19.908 168.688,19.908 C168.964,19.908 169.18,20.004 169.348,20.16 L169.84,19.38 C169.492,19.008 168.976,18.876 168.448,18.876 C167.356,18.876 166.624,19.62 166.624,20.88 L166.624,21.204 L165.664,21.204 L165.664,22.296 L166.624,22.296 L166.624,27 L167.884,27 Z M175.072,28.968 C174.292,27.456 173.812,26.076 173.812,24.084 C173.812,22.08 174.292,20.712 175.072,19.188 L174.52,18.78 C173.44,20.268 172.828,22.152 172.828,24.084 C172.828,26.016 173.44,27.9 174.52,29.388 L175.072,28.968 Z M178.408,27 L178.408,18.996 L177.532,18.996 L175.528,21.06 L176.128,21.672 L177.412,20.304 L177.412,27 L178.408,27 Z M183.016,27.144 C185.2,27.144 186.076,24.948 186.076,23.004 C186.076,21.048 185.2,18.876 183.016,18.876 C180.82,18.876 179.956,21.048 179.956,23.004 C179.956,24.948 180.82,27.144 183.016,27.144 L183.016,27.144 Z M183.016,26.256 C181.492,26.256 180.976,24.6 180.976,23.004 C180.976,21.408 181.492,19.764 183.016,19.764 C184.54,19.764 185.056,21.408 185.056,23.004 C185.056,24.6 184.54,26.256 183.016,26.256 L183.016,26.256 Z M188.992,22.824 C190.144,22.824 190.924,21.972 190.924,20.868 C190.924,19.728 190.144,18.876 188.992,18.876 C187.852,18.876 187.06,19.728 187.06,20.868 C187.06,21.972 187.852,22.824 188.992,22.824 L188.992,22.824 Z M188.884,27 L194.008,18.996 L193.336,18.996 L188.224,27 L188.884,27 Z M193.168,27.144 C194.308,27.144 195.088,26.292 195.088,25.176 C195.088,24.06 194.308,23.196 193.168,23.196 C192.028,23.196 191.236,24.06 191.236,25.176 C191.236,26.292 192.028,27.144 193.168,27.144 L193.168,27.144 Z M188.992,22.212 C188.284,22.212 187.78,21.624 187.78,20.868 C187.78,20.076 188.284,19.488 188.992,19.488 C189.712,19.488 190.204,20.076 190.204,20.868 C190.204,21.624 189.712,22.212 188.992,22.212 L188.992,22.212 Z M193.168,26.532 C192.436,26.532 191.944,25.944 191.944,25.176 C191.944,24.396 192.436,23.808 193.168,23.808 C193.888,23.808 194.38,24.396 194.38,25.176 C194.38,25.944 193.888,26.532 193.168,26.532 L193.168,26.532 Z M195.676,28.968 C196.456,27.456 196.936,26.076 196.936,24.084 C196.936,22.08 196.456,20.712 195.676,19.188 L196.228,18.78 C197.308,20.268 197.92,22.152 197.92,24.084 C197.92,26.016 197.308,27.9 196.228,29.388 L195.676,28.968 Z M206.98,27 L206.98,23.016 C206.98,21.612 205.972,21.06 204.736,21.06 C203.788,21.06 203.044,21.372 202.42,22.02 L202.84,22.644 C203.356,22.08 203.92,21.84 204.616,21.84 C205.456,21.84 206.08,22.284 206.08,23.052 L206.08,24.096 C205.612,23.568 204.952,23.316 204.16,23.316 C203.176,23.316 202.144,23.916 202.144,25.224 C202.144,26.484 203.188,27.144 204.16,27.144 C204.94,27.144 205.612,26.868 206.08,26.34 L206.08,27 L206.98,27 Z M204.496,26.496 C203.644,26.496 203.056,25.968 203.056,25.224 C203.056,24.492 203.644,23.964 204.496,23.964 C205.12,23.964 205.732,24.204 206.08,24.672 L206.08,25.776 C205.732,26.256 205.12,26.496 204.496,26.496 L204.496,26.496 Z M211.648,27.144 C213.172,27.144 214.228,25.968 214.228,24.096 C214.228,22.212 213.172,21.06 211.648,21.06 C210.832,21.06 210.112,21.48 209.692,22.068 L209.692,21.204 L208.792,21.204 L208.792,29.208 L209.692,29.208 L209.692,26.124 C210.172,26.76 210.856,27.144 211.648,27.144 L211.648,27.144 Z M211.42,26.34 C210.712,26.34 210.004,25.908 209.692,25.404 L209.692,22.788 C210.004,22.284 210.712,21.864 211.42,21.864 C212.584,21.864 213.28,22.812 213.28,24.096 C213.28,25.38 212.584,26.34 211.42,26.34 L211.42,26.34 Z M218.512,27.144 C220.036,27.144 221.092,25.968 221.092,24.096 C221.092,22.212 220.036,21.06 218.512,21.06 C217.696,21.06 216.976,21.48 216.556,22.068 L216.556,21.204 L215.656,21.204 L215.656,29.208 L216.556,29.208 L216.556,26.124 C217.036,26.76 217.72,27.144 218.512,27.144 L218.512,27.144 Z M218.284,26.34 C217.576,26.34 216.868,25.908 216.556,25.404 L216.556,22.788 C216.868,22.284 217.576,21.864 218.284,21.864 C219.448,21.864 220.144,22.812 220.144,24.096 C220.144,25.38 219.448,26.34 218.284,26.34 L218.284,26.34 Z M223.42,27 L223.42,18.996 L222.52,18.996 L222.52,27 L223.42,27 Z M225.676,20.376 C226.012,20.376 226.276,20.112 226.276,19.776 C226.276,19.44 226.012,19.164 225.676,19.164 C225.34,19.164 225.064,19.44 225.064,19.776 C225.064,20.112 225.34,20.376 225.676,20.376 L225.676,20.376 Z M226.12,27 L226.12,21.204 L225.22,21.204 L225.22,27 L226.12,27 Z M230.548,27.144 C231.484,27.144 232.264,26.82 232.852,26.244 L232.42,25.656 C231.952,26.136 231.292,26.4 230.62,26.4 C229.372,26.4 228.616,25.488 228.544,24.396 L233.224,24.396 L233.224,24.168 C233.224,22.428 232.192,21.06 230.44,21.06 C228.784,21.06 227.584,22.416 227.584,24.096 C227.584,25.908 228.82,27.144 230.548,27.144 L230.548,27.144 Z M232.336,23.724 L228.532,23.724 C228.58,22.848 229.192,21.804 230.428,21.804 C231.748,21.804 232.324,22.872 232.336,23.724 L232.336,23.724 Z M239.776,27 L239.776,18.996 L238.876,18.996 L238.876,22.08 C238.408,21.444 237.7,21.06 236.92,21.06 C235.408,21.06 234.34,22.248 234.34,24.108 C234.34,25.992 235.408,27.144 236.92,27.144 C237.736,27.144 238.444,26.724 238.876,26.136 L238.876,27 L239.776,27 Z M237.148,26.34 C235.972,26.34 235.276,25.392 235.276,24.108 C235.276,22.824 235.972,21.864 237.148,21.864 C237.856,21.864 238.564,22.296 238.876,22.8 L238.876,25.416 C238.564,25.92 237.856,26.34 237.148,26.34 L237.148,26.34 Z M247.216,27.144 C248.98,27.144 250.084,25.776 250.084,24.096 C250.084,22.416 248.98,21.06 247.216,21.06 C245.452,21.06 244.348,22.416 244.348,24.096 C244.348,25.776 245.452,27.144 247.216,27.144 L247.216,27.144 Z M247.216,26.34 C245.98,26.34 245.296,25.284 245.296,24.096 C245.296,22.92 245.98,21.864 247.216,21.864 C248.452,21.864 249.136,22.92 249.136,24.096 C249.136,25.284 248.452,26.34 247.216,26.34 L247.216,26.34 Z M256.36,27 L256.36,22.932 C256.36,21.672 255.724,21.06 254.524,21.06 C253.648,21.06 252.856,21.552 252.448,22.044 L252.448,21.204 L251.548,21.204 L251.548,27 L252.448,27 L252.448,22.764 C252.796,22.296 253.456,21.864 254.164,21.864 C254.944,21.864 255.472,22.176 255.472,23.208 L255.472,27 L256.36,27 Z M261.892,20.58 C262.396,20.58 262.804,20.172 262.804,19.668 C262.804,19.164 262.396,18.768 261.892,18.768 C261.4,18.768 260.992,19.164 260.992,19.668 C260.992,20.172 261.4,20.58 261.892,20.58 L261.892,20.58 Z M262.66,27 L262.66,21.204 L261.136,21.204 L261.136,27 L262.66,27 Z M266.116,27.144 C266.752,27.144 267.16,26.976 267.388,26.772 L267.064,25.608 C266.98,25.704 266.764,25.788 266.536,25.788 C266.2,25.788 266.008,25.512 266.008,25.14 L266.008,22.536 L267.184,22.536 L267.184,21.204 L266.008,21.204 L266.008,19.62 L264.484,19.62 L264.484,21.204 L263.524,21.204 L263.524,22.536 L264.484,22.536 L264.484,25.548 C264.484,26.592 265.048,27.144 266.116,27.144 L266.116,27.144 Z M270.952,27.144 C271.852,27.144 272.764,26.868 273.34,26.34 L272.656,25.332 C272.284,25.692 271.612,25.896 271.12,25.896 C270.136,25.896 269.56,25.308 269.452,24.6 L273.76,24.6 L273.76,24.24 C273.76,22.356 272.596,21.06 270.856,21.06 C269.104,21.06 267.856,22.416 267.856,24.096 C267.856,25.956 269.188,27.144 270.952,27.144 L270.952,27.144 Z M272.296,23.544 L269.44,23.544 C269.5,22.968 269.908,22.308 270.856,22.308 C271.864,22.308 272.248,22.992 272.296,23.544 L272.296,23.544 Z M283.588,27 L283.588,22.812 C283.588,21.624 282.952,21.06 281.884,21.06 C280.996,21.06 280.228,21.588 279.892,22.104 C279.688,21.456 279.136,21.06 278.284,21.06 C277.396,21.06 276.64,21.612 276.388,21.948 L276.388,21.204 L274.864,21.204 L274.864,27 L276.388,27 L276.388,23.088 C276.616,22.776 277.06,22.416 277.588,22.416 C278.212,22.416 278.452,22.8 278.452,23.34 L278.452,27 L279.988,27 L279.988,23.088 C280.204,22.776 280.648,22.416 281.188,22.416 C281.812,22.416 282.052,22.8 282.052,23.34 L282.052,27 L283.588,27 Z M287.188,27.144 C288.796,27.144 289.708,26.364 289.708,25.296 C289.708,22.956 286.264,23.676 286.264,22.824 C286.264,22.5 286.624,22.26 287.176,22.26 C287.884,22.26 288.544,22.572 288.892,22.932 L289.504,21.852 C288.928,21.396 288.148,21.06 287.176,21.06 C285.64,21.06 284.8,21.912 284.8,22.884 C284.8,25.164 288.232,24.384 288.232,25.332 C288.232,25.692 287.92,25.944 287.26,25.944 C286.54,25.944 285.688,25.548 285.256,25.14 L284.596,26.244 C285.208,26.808 286.18,27.144 287.188,27.144 L287.188,27.144 Z M297.292,27 L297.292,18.996 L295.804,18.996 L293.284,21.528 L294.256,22.548 L295.588,21.192 L295.588,27 L297.292,27 Z M308.824,27 C308.272,26.436 307.756,25.908 307.276,25.38 C307.744,24.78 308.104,24.096 308.392,23.46 L307.18,22.896 C307.036,23.364 306.784,23.928 306.448,24.456 C306.22,24.192 305.992,23.916 305.764,23.628 C305.56,23.388 305.32,23.088 305.08,22.764 C306.064,22.308 307.036,21.792 307.036,20.568 C307.036,19.488 306.064,18.876 304.936,18.876 C303.604,18.876 302.656,19.716 302.656,20.796 C302.656,21.336 302.86,21.924 303.184,22.512 C302.26,22.98 301.456,23.616 301.456,24.828 C301.456,26.376 302.632,27.144 304.096,27.144 C304.948,27.144 305.68,26.856 306.28,26.4 C306.508,26.64 306.712,26.844 306.88,27 L308.824,27 Z M304.312,25.944 C303.652,25.944 303.076,25.464 303.076,24.684 C303.076,24.132 303.352,23.76 303.772,23.46 C304.024,23.832 304.312,24.192 304.576,24.516 C304.768,24.756 305.104,25.14 305.464,25.536 C305.116,25.788 304.72,25.944 304.312,25.944 L304.312,25.944 Z M304.168,20.832 C304.168,20.328 304.54,19.98 305.008,19.98 C305.404,19.98 305.716,20.232 305.716,20.652 C305.716,21.24 305.188,21.588 304.516,21.912 C304.3,21.528 304.168,21.156 304.168,20.832 L304.168,20.832 Z M318.604,27 L318.604,25.5 L315.34,25.5 C317.416,23.988 318.544,22.8 318.544,21.432 C318.544,19.836 317.2,18.876 315.484,18.876 C314.368,18.876 313.18,19.284 312.4,20.184 L313.372,21.312 C313.912,20.748 314.608,20.388 315.52,20.388 C316.18,20.388 316.816,20.724 316.816,21.432 C316.816,22.416 315.856,23.232 312.58,25.656 L312.58,27 L318.604,27 Z" id="The-amazing-coupon-$" fill="#2F2F2F" sketch:type="MSShapeGroup"></path>
                <path d="M22.932,55 L22.932,51.352 L27.096,51.352 L27.096,50.464 L22.932,50.464 L22.932,47.884 L27.18,47.884 L27.18,46.996 L21.936,46.996 L21.936,55 L22.932,55 Z M31.14,55.144 C32.076,55.144 32.856,54.82 33.444,54.244 L33.012,53.656 C32.544,54.136 31.884,54.4 31.212,54.4 C29.964,54.4 29.208,53.488 29.136,52.396 L33.816,52.396 L33.816,52.168 C33.816,50.428 32.784,49.06 31.032,49.06 C29.376,49.06 28.176,50.416 28.176,52.096 C28.176,53.908 29.412,55.144 31.14,55.144 L31.14,55.144 Z M32.928,51.724 L29.124,51.724 C29.172,50.848 29.784,49.804 31.02,49.804 C32.34,49.804 32.916,50.872 32.928,51.724 L32.928,51.724 Z M37.116,55.144 C38.604,55.144 39.384,54.364 39.384,53.392 C39.384,51.136 35.796,51.964 35.796,50.704 C35.796,50.188 36.288,49.792 37.08,49.792 C37.836,49.792 38.46,50.104 38.808,50.524 L39.228,49.9 C38.772,49.432 38.076,49.06 37.08,49.06 C35.7,49.06 34.932,49.816 34.932,50.728 C34.932,52.876 38.52,52.012 38.52,53.416 C38.52,53.992 38.028,54.412 37.14,54.412 C36.348,54.412 35.616,54.028 35.232,53.584 L34.776,54.232 C35.364,54.844 36.156,55.144 37.116,55.144 L37.116,55.144 Z M42.324,55.144 C42.84,55.144 43.164,54.988 43.392,54.772 L43.128,54.088 C43.008,54.22 42.78,54.34 42.516,54.34 C42.132,54.34 41.94,54.028 41.94,53.596 L41.94,49.996 L43.116,49.996 L43.116,49.204 L41.94,49.204 L41.94,47.62 L41.028,47.62 L41.028,49.204 L40.068,49.204 L40.068,49.996 L41.028,49.996 L41.028,53.788 C41.028,54.652 41.46,55.144 42.324,55.144 L42.324,55.144 Z M44.832,48.376 C45.168,48.376 45.432,48.112 45.432,47.776 C45.432,47.44 45.168,47.164 44.832,47.164 C44.496,47.164 44.22,47.44 44.22,47.776 C44.22,48.112 44.496,48.376 44.832,48.376 L44.832,48.376 Z M45.276,55 L45.276,49.204 L44.376,49.204 L44.376,55 L45.276,55 Z M49.608,55 L52.02,49.204 L51.048,49.204 L49.116,53.956 L47.196,49.204 L46.212,49.204 L48.624,55 L49.608,55 Z M55.584,55.144 C56.52,55.144 57.3,54.82 57.888,54.244 L57.456,53.656 C56.988,54.136 56.328,54.4 55.656,54.4 C54.408,54.4 53.652,53.488 53.58,52.396 L58.26,52.396 L58.26,52.168 C58.26,50.428 57.228,49.06 55.476,49.06 C53.82,49.06 52.62,50.416 52.62,52.096 C52.62,53.908 53.856,55.144 55.584,55.144 L55.584,55.144 Z M57.372,51.724 L53.568,51.724 C53.616,50.848 54.228,49.804 55.464,49.804 C56.784,49.804 57.36,50.872 57.372,51.724 L57.372,51.724 Z M65.376,55.144 C66.432,55.144 67.056,54.712 67.5,54.136 L66.9,53.584 C66.516,54.1 66.024,54.34 65.424,54.34 C64.2,54.34 63.42,53.38 63.42,52.096 C63.42,50.812 64.2,49.864 65.424,49.864 C66.024,49.864 66.516,50.08 66.9,50.608 L67.5,50.068 C67.056,49.492 66.432,49.06 65.376,49.06 C63.648,49.06 62.484,50.38 62.484,52.096 C62.484,53.812 63.648,55.144 65.376,55.144 L65.376,55.144 Z M71.304,55.144 C73.068,55.144 74.172,53.776 74.172,52.096 C74.172,50.416 73.068,49.06 71.304,49.06 C69.54,49.06 68.436,50.416 68.436,52.096 C68.436,53.776 69.54,55.144 71.304,55.144 L71.304,55.144 Z M71.304,54.34 C70.068,54.34 69.384,53.284 69.384,52.096 C69.384,50.92 70.068,49.864 71.304,49.864 C72.54,49.864 73.224,50.92 73.224,52.096 C73.224,53.284 72.54,54.34 71.304,54.34 L71.304,54.34 Z M80.448,55 L80.448,49.204 L79.548,49.204 L79.548,53.464 C79.212,53.932 78.54,54.34 77.844,54.34 C77.052,54.34 76.536,54.04 76.536,53.02 L76.536,49.204 L75.636,49.204 L75.636,53.296 C75.636,54.544 76.272,55.144 77.484,55.144 C78.348,55.144 79.104,54.688 79.548,54.184 L79.548,55 L80.448,55 Z M85.104,55.144 C86.628,55.144 87.684,53.968 87.684,52.096 C87.684,50.212 86.628,49.06 85.104,49.06 C84.288,49.06 83.568,49.48 83.148,50.068 L83.148,49.204 L82.248,49.204 L82.248,57.208 L83.148,57.208 L83.148,54.124 C83.628,54.76 84.312,55.144 85.104,55.144 L85.104,55.144 Z M84.876,54.34 C84.168,54.34 83.46,53.908 83.148,53.404 L83.148,50.788 C83.46,50.284 84.168,49.864 84.876,49.864 C86.04,49.864 86.736,50.812 86.736,52.096 C86.736,53.38 86.04,54.34 84.876,54.34 L84.876,54.34 Z M91.644,55.144 C93.408,55.144 94.512,53.776 94.512,52.096 C94.512,50.416 93.408,49.06 91.644,49.06 C89.88,49.06 88.776,50.416 88.776,52.096 C88.776,53.776 89.88,55.144 91.644,55.144 L91.644,55.144 Z M91.644,54.34 C90.408,54.34 89.724,53.284 89.724,52.096 C89.724,50.92 90.408,49.864 91.644,49.864 C92.88,49.864 93.564,50.92 93.564,52.096 C93.564,53.284 92.88,54.34 91.644,54.34 L91.644,54.34 Z M100.788,55 L100.788,50.932 C100.788,49.672 100.152,49.06 98.952,49.06 C98.076,49.06 97.284,49.552 96.876,50.044 L96.876,49.204 L95.976,49.204 L95.976,55 L96.876,55 L96.876,50.764 C97.224,50.296 97.884,49.864 98.592,49.864 C99.372,49.864 99.9,50.176 99.9,51.208 L99.9,55 L100.788,55 Z M108.036,56.2 L108.996,56.2 L108.996,55.12 C110.796,54.964 111.6,53.884 111.6,52.66 C111.6,51.052 110.244,50.584 108.996,50.26 L108.996,48.184 C109.584,48.304 110.16,48.58 110.616,49.036 L111.408,47.992 C110.784,47.392 109.968,47.008 108.996,46.9 L108.996,45.784 L108.036,45.784 L108.036,46.888 C106.488,47.02 105.504,47.992 105.504,49.216 C105.504,50.776 106.8,51.22 108.036,51.532 L108.036,53.86 C107.172,53.728 106.476,53.272 106.032,52.78 L105.24,53.872 C105.876,54.532 106.8,55.024 108.036,55.12 L108.036,56.2 Z M110.16,52.792 C110.16,53.26 109.824,53.752 108.996,53.872 L108.996,51.784 C109.656,51.988 110.16,52.252 110.16,52.792 L110.16,52.792 Z M106.944,49.108 C106.944,48.58 107.364,48.208 108.036,48.124 L108.036,50.008 C107.4,49.816 106.944,49.576 106.944,49.108 L106.944,49.108 Z M115.716,55.144 C117.504,55.144 118.776,54.088 118.776,52.432 C118.776,50.788 117.564,49.852 116.208,49.852 C115.44,49.852 114.792,50.164 114.396,50.536 L114.396,48.232 L118.236,48.232 L118.236,46.996 L112.992,46.996 L112.992,51.46 L113.988,51.748 C114.504,51.268 115.068,51.064 115.74,51.064 C116.724,51.064 117.348,51.628 117.348,52.48 C117.348,53.272 116.724,53.896 115.704,53.896 C114.816,53.896 114.084,53.56 113.556,52.936 L112.752,53.908 C113.4,54.664 114.348,55.144 115.716,55.144 L115.716,55.144 Z M125.808,55.144 C127.656,55.144 128.784,53.752 128.784,52.096 C128.784,50.428 127.656,49.06 125.808,49.06 C123.96,49.06 122.832,50.428 122.832,52.096 C122.832,53.752 123.96,55.144 125.808,55.144 L125.808,55.144 Z M125.808,54.028 C124.74,54.028 124.14,53.128 124.14,52.096 C124.14,51.076 124.74,50.176 125.808,50.176 C126.888,50.176 127.476,51.076 127.476,52.096 C127.476,53.128 126.888,54.028 125.808,54.028 L125.808,54.028 Z M131.64,55 L131.64,50.296 L132.816,50.296 L132.816,49.204 L131.64,49.204 L131.64,48.88 C131.64,48.232 131.94,47.908 132.444,47.908 C132.72,47.908 132.936,48.004 133.104,48.16 L133.596,47.38 C133.248,47.008 132.732,46.876 132.204,46.876 C131.112,46.876 130.38,47.62 130.38,48.88 L130.38,49.204 L129.42,49.204 L129.42,50.296 L130.38,50.296 L130.38,55 L131.64,55 Z M135.348,55 L135.348,50.296 L136.524,50.296 L136.524,49.204 L135.348,49.204 L135.348,48.88 C135.348,48.232 135.648,47.908 136.152,47.908 C136.428,47.908 136.644,48.004 136.812,48.16 L137.304,47.38 C136.956,47.008 136.44,46.876 135.912,46.876 C134.82,46.876 134.088,47.62 134.088,48.88 L134.088,49.204 L133.128,49.204 L133.128,50.296 L134.088,50.296 L134.088,55 L135.348,55 Z M145.188,55 L145.188,51.016 C145.188,49.612 144.18,49.06 142.944,49.06 C141.996,49.06 141.252,49.372 140.628,50.02 L141.048,50.644 C141.564,50.08 142.128,49.84 142.824,49.84 C143.664,49.84 144.288,50.284 144.288,51.052 L144.288,52.096 C143.82,51.568 143.16,51.316 142.368,51.316 C141.384,51.316 140.352,51.916 140.352,53.224 C140.352,54.484 141.396,55.144 142.368,55.144 C143.148,55.144 143.82,54.868 144.288,54.34 L144.288,55 L145.188,55 Z M142.704,54.496 C141.852,54.496 141.264,53.968 141.264,53.224 C141.264,52.492 141.852,51.964 142.704,51.964 C143.328,51.964 143.94,52.204 144.288,52.672 L144.288,53.776 C143.94,54.256 143.328,54.496 142.704,54.496 L142.704,54.496 Z M149.856,55.144 C151.38,55.144 152.436,53.968 152.436,52.096 C152.436,50.212 151.38,49.06 149.856,49.06 C149.04,49.06 148.32,49.48 147.9,50.068 L147.9,49.204 L147,49.204 L147,57.208 L147.9,57.208 L147.9,54.124 C148.38,54.76 149.064,55.144 149.856,55.144 L149.856,55.144 Z M149.628,54.34 C148.92,54.34 148.212,53.908 147.9,53.404 L147.9,50.788 C148.212,50.284 148.92,49.864 149.628,49.864 C150.792,49.864 151.488,50.812 151.488,52.096 C151.488,53.38 150.792,54.34 149.628,54.34 L149.628,54.34 Z M156.72,55.144 C158.244,55.144 159.3,53.968 159.3,52.096 C159.3,50.212 158.244,49.06 156.72,49.06 C155.904,49.06 155.184,49.48 154.764,50.068 L154.764,49.204 L153.864,49.204 L153.864,57.208 L154.764,57.208 L154.764,54.124 C155.244,54.76 155.928,55.144 156.72,55.144 L156.72,55.144 Z M156.492,54.34 C155.784,54.34 155.076,53.908 154.764,53.404 L154.764,50.788 C155.076,50.284 155.784,49.864 156.492,49.864 C157.656,49.864 158.352,50.812 158.352,52.096 C158.352,53.38 157.656,54.34 156.492,54.34 L156.492,54.34 Z M161.628,55 L161.628,46.996 L160.728,46.996 L160.728,55 L161.628,55 Z M163.884,48.376 C164.22,48.376 164.484,48.112 164.484,47.776 C164.484,47.44 164.22,47.164 163.884,47.164 C163.548,47.164 163.272,47.44 163.272,47.776 C163.272,48.112 163.548,48.376 163.884,48.376 L163.884,48.376 Z M164.328,55 L164.328,49.204 L163.428,49.204 L163.428,55 L164.328,55 Z M168.756,55.144 C169.692,55.144 170.472,54.82 171.06,54.244 L170.628,53.656 C170.16,54.136 169.5,54.4 168.828,54.4 C167.58,54.4 166.824,53.488 166.752,52.396 L171.432,52.396 L171.432,52.168 C171.432,50.428 170.4,49.06 168.648,49.06 C166.992,49.06 165.792,50.416 165.792,52.096 C165.792,53.908 167.028,55.144 168.756,55.144 L168.756,55.144 Z M170.544,51.724 L166.74,51.724 C166.788,50.848 167.4,49.804 168.636,49.804 C169.956,49.804 170.532,50.872 170.544,51.724 L170.544,51.724 Z M177.984,55 L177.984,46.996 L177.084,46.996 L177.084,50.08 C176.616,49.444 175.908,49.06 175.128,49.06 C173.616,49.06 172.548,50.248 172.548,52.108 C172.548,53.992 173.616,55.144 175.128,55.144 C175.944,55.144 176.652,54.724 177.084,54.136 L177.084,55 L177.984,55 Z M175.356,54.34 C174.18,54.34 173.484,53.392 173.484,52.108 C173.484,50.824 174.18,49.864 175.356,49.864 C176.064,49.864 176.772,50.296 177.084,50.8 L177.084,53.416 C176.772,53.92 176.064,54.34 175.356,54.34 L175.356,54.34 Z M185.424,55.144 C187.188,55.144 188.292,53.776 188.292,52.096 C188.292,50.416 187.188,49.06 185.424,49.06 C183.66,49.06 182.556,50.416 182.556,52.096 C182.556,53.776 183.66,55.144 185.424,55.144 L185.424,55.144 Z M185.424,54.34 C184.188,54.34 183.504,53.284 183.504,52.096 C183.504,50.92 184.188,49.864 185.424,49.864 C186.66,49.864 187.344,50.92 187.344,52.096 C187.344,53.284 186.66,54.34 185.424,54.34 L185.424,54.34 Z M194.568,55 L194.568,50.932 C194.568,49.672 193.932,49.06 192.732,49.06 C191.856,49.06 191.064,49.552 190.656,50.044 L190.656,49.204 L189.756,49.204 L189.756,55 L190.656,55 L190.656,50.764 C191.004,50.296 191.664,49.864 192.372,49.864 C193.152,49.864 193.68,50.176 193.68,51.208 L193.68,55 L194.568,55 Z M200.1,48.58 C200.604,48.58 201.012,48.172 201.012,47.668 C201.012,47.164 200.604,46.768 200.1,46.768 C199.608,46.768 199.2,47.164 199.2,47.668 C199.2,48.172 199.608,48.58 200.1,48.58 L200.1,48.58 Z M200.868,55 L200.868,49.204 L199.344,49.204 L199.344,55 L200.868,55 Z M204.324,55.144 C204.96,55.144 205.368,54.976 205.596,54.772 L205.272,53.608 C205.188,53.704 204.972,53.788 204.744,53.788 C204.408,53.788 204.216,53.512 204.216,53.14 L204.216,50.536 L205.392,50.536 L205.392,49.204 L204.216,49.204 L204.216,47.62 L202.692,47.62 L202.692,49.204 L201.732,49.204 L201.732,50.536 L202.692,50.536 L202.692,53.548 C202.692,54.592 203.256,55.144 204.324,55.144 L204.324,55.144 Z M209.16,55.144 C210.06,55.144 210.972,54.868 211.548,54.34 L210.864,53.332 C210.492,53.692 209.82,53.896 209.328,53.896 C208.344,53.896 207.768,53.308 207.66,52.6 L211.968,52.6 L211.968,52.24 C211.968,50.356 210.804,49.06 209.064,49.06 C207.312,49.06 206.064,50.416 206.064,52.096 C206.064,53.956 207.396,55.144 209.16,55.144 L209.16,55.144 Z M210.504,51.544 L207.648,51.544 C207.708,50.968 208.116,50.308 209.064,50.308 C210.072,50.308 210.456,50.992 210.504,51.544 L210.504,51.544 Z M221.796,55 L221.796,50.812 C221.796,49.624 221.16,49.06 220.092,49.06 C219.204,49.06 218.436,49.588 218.1,50.104 C217.896,49.456 217.344,49.06 216.492,49.06 C215.604,49.06 214.848,49.612 214.596,49.948 L214.596,49.204 L213.072,49.204 L213.072,55 L214.596,55 L214.596,51.088 C214.824,50.776 215.268,50.416 215.796,50.416 C216.42,50.416 216.66,50.8 216.66,51.34 L216.66,55 L218.196,55 L218.196,51.088 C218.412,50.776 218.856,50.416 219.396,50.416 C220.02,50.416 220.26,50.8 220.26,51.34 L220.26,55 L221.796,55 Z M232.224,55 L232.224,53.5 L228.96,53.5 C231.036,51.988 232.164,50.8 232.164,49.432 C232.164,47.836 230.82,46.876 229.104,46.876 C227.988,46.876 226.8,47.284 226.02,48.184 L226.992,49.312 C227.532,48.748 228.228,48.388 229.14,48.388 C229.8,48.388 230.436,48.724 230.436,49.432 C230.436,50.416 229.476,51.232 226.2,53.656 L226.2,55 L232.224,55 Z" id="Festive-coupon-$5-of" fill="#2F2F2F" sketch:type="MSShapeGroup"></path>
            </g>
        </g>
    </g>
</svg>