<?xml version="1.0" encoding="UTF-8" standalone="no"?>
<svg width="701px" height="141px" viewBox="0 0 701 141" version="1.1" xmlns="http://www.w3.org/2000/svg" xmlns:xlink="http://www.w3.org/1999/xlink">
    <!-- Generator: Sketch 41 (35326) - http://www.bohemiancoding.com/sketch -->
    <title>new-01</title>
    <desc>Created with Sketch.</desc>
    <defs></defs>
    <g id="Page-1" stroke="none" stroke-width="1" fill="none" fill-rule="evenodd">
        <g id="new-01">
            <g id="Page-1">
                <g id="reference-invoice-new">
                    <g id="Group-3">
                        <path d="M12.308841,75 L12.308841,65.662 L10.2328026,65.662 L7.95545128,72.074 L5.66551795,65.662 L3.58947949,65.662 L3.58947949,75 L5.06157949,75 L5.06157949,67.79 L7.6409,75 L8.27000256,75 L10.836741,67.79 L10.836741,75 L12.308841,75 Z M13.8061051,77.646 C13.9822538,77.702 14.3597154,77.744 14.5484462,77.744 C15.4921,77.73 16.2092769,77.366 16.6244846,76.218 L19.5561026,68.238 L18.1469128,68.238 L16.3728436,73.306 L14.5987744,68.238 L13.1770026,68.238 L15.6808308,75.084 L15.3788615,75.854 C15.2027128,76.302 14.9259077,76.442 14.4981179,76.442 C14.3471333,76.442 14.1332385,76.4 13.9948359,76.33 L13.8061051,77.646 Z M27.7344359,75 L24.4379385,65.662 L22.600959,65.662 L19.3044615,75 L20.9778744,75 L21.5943949,73.194 L25.4445026,73.194 L26.0610231,75 L27.7344359,75 Z M25.0292949,71.752 L22.0096026,71.752 L23.5194487,67.3 L25.0292949,71.752 Z M35.1075179,75 L36.9948256,68.238 L35.6108,68.238 L34.3274308,73.152 L32.8930769,68.238 L31.7229462,68.238 L30.2760103,73.152 L28.992641,68.238 L27.6211974,68.238 L29.5085051,75 L30.8925308,75 L32.3017205,70.044 L33.7234923,75 L35.1075179,75 Z M40.7316949,75.168 C41.6879308,75.168 42.5812564,74.818 43.1977769,74.174 L42.5938385,73.208 C42.1534667,73.698 41.4614538,73.964 40.8575154,73.964 C39.7125487,73.964 39.0331179,73.11 38.9324615,72.102 L43.6129846,72.102 L43.6129846,71.738 C43.6129846,69.61 42.4554359,68.07 40.6310385,68.07 C38.8318051,68.07 37.5484359,69.652 37.5484359,71.612 C37.5484359,73.754 38.8947154,75.168 40.7316949,75.168 Z M42.3421974,71.052 L38.9198795,71.052 C38.9702077,70.24 39.4986538,69.274 40.6184564,69.274 C41.8137513,69.274 42.3044513,70.254 42.3421974,71.052 Z M47.0101385,75.168 C48.6458051,75.168 49.5391308,74.258 49.5391308,73.054 C49.5391308,70.366 45.8651718,71.262 45.8651718,70.072 C45.8651718,69.596 46.2929615,69.232 46.9849744,69.232 C47.7524795,69.232 48.4193282,69.596 48.7842077,70.044 L49.3378179,69.008 C48.7967897,68.476 48.0167026,68.07 46.9849744,68.07 C45.4499641,68.07 44.5943846,69.008 44.5943846,70.114 C44.5943846,72.718 48.2683436,71.766 48.2683436,73.096 C48.2683436,73.628 47.8531359,73.992 47.0604667,73.992 C46.2803795,73.992 45.4373821,73.544 45.0095923,73.054 L44.4056538,74.104 C45.0347564,74.79 45.9658282,75.168 47.0101385,75.168 Z M53.6157154,75.168 C55.5533513,75.168 56.7360641,73.544 56.7360641,71.612 C56.7360641,69.666 55.5533513,68.07 53.6157154,68.07 C51.6780795,68.07 50.4953667,69.666 50.4953667,71.612 C50.4953667,73.544 51.6780795,75.168 53.6157154,75.168 Z M53.6157154,73.866 C52.4959128,73.866 51.8668103,72.816 51.8668103,71.612 C51.8668103,70.422 52.4959128,69.372 53.6157154,69.372 C54.7481,69.372 55.3646205,70.422 55.3646205,71.612 C55.3646205,72.816 54.7481,73.866 53.6157154,73.866 Z M66.8646154,75 L66.8646154,70.114 C66.8646154,68.742 66.2229308,68.07 65.1157103,68.07 C64.1972205,68.07 63.3919692,68.7 63.0522538,69.302 C62.850941,68.574 62.2973308,68.07 61.3914231,68.07 C60.4603513,68.07 59.6676821,68.742 59.403459,69.148 L59.403459,68.238 L58.0823436,68.238 L58.0823436,75 L59.403459,75 L59.403459,70.268 C59.6802641,69.834 60.2212923,69.372 60.8126487,69.372 C61.5298256,69.372 61.8066308,69.862 61.8066308,70.59 L61.8066308,75 L63.1277462,75 L63.1277462,70.268 C63.3919692,69.82 63.9455795,69.372 64.5369359,69.372 C65.2541128,69.372 65.5435,69.862 65.5435,70.59 L65.5435,75 L66.8646154,75 Z M71.3941538,75.168 C72.3503897,75.168 73.2437154,74.818 73.8602359,74.174 L73.2562974,73.208 C72.8159256,73.698 72.1239128,73.964 71.5199744,73.964 C70.3750077,73.964 69.6955769,73.11 69.5949205,72.102 L74.2754436,72.102 L74.2754436,71.738 C74.2754436,69.61 73.1178949,68.07 71.2934974,68.07 C69.4942641,68.07 68.2108949,69.652 68.2108949,71.612 C68.2108949,73.754 69.5571744,75.168 71.3941538,75.168 Z M73.0046564,71.052 L69.5823385,71.052 C69.6326667,70.24 70.1611128,69.274 71.2809154,69.274 C72.4762103,69.274 72.9669103,70.254 73.0046564,71.052 Z M80.3399923,75 L80.3399923,71.5 L82.5670154,71.5 C84.3159205,71.5 85.2973205,70.17 85.2973205,68.588 C85.2973205,66.992 84.3285026,65.662 82.5670154,65.662 L78.8678923,65.662 L78.8678923,75 L80.3399923,75 Z M82.3657026,70.058 L80.3399923,70.058 L80.3399923,67.104 L82.3657026,67.104 C83.1961179,67.104 83.7874744,67.692 83.7874744,68.588 C83.7874744,69.47 83.1961179,70.058 82.3657026,70.058 Z M87.8137308,75 L87.8137308,65.662 L86.4926154,65.662 L86.4926154,75 L87.8137308,75 Z M94.5702923,75 L94.5702923,70.506 C94.5702923,68.7 93.3875795,68.07 92.0287179,68.07 C91.0599,68.07 90.1791564,68.406 89.4745615,69.162 L90.0281718,70.184 C90.5440359,69.596 91.1479744,69.316 91.8274051,69.316 C92.6578205,69.316 93.2491769,69.792 93.2491769,70.576 L93.2491769,71.584 C92.7962231,71.01 92.1042103,70.716 91.2737949,70.716 C90.2798128,70.716 89.1725923,71.36 89.1725923,72.928 C89.1725923,74.412 90.2923949,75.168 91.2737949,75.168 C92.0790462,75.168 92.7962231,74.846 93.2491769,74.258 L93.2491769,75 L94.5702923,75 Z M91.802241,74.16 C91.0599,74.16 90.4937077,73.684 90.4937077,72.942 C90.4937077,72.214 91.0599,71.724 91.802241,71.724 C92.3684333,71.724 92.9346256,71.962 93.2491769,72.424 L93.2491769,73.46 C92.9346256,73.922 92.3684333,74.16 91.802241,74.16 Z M101.716897,75 L101.716897,70.24 C101.716897,68.854 101.062631,68.07 99.7540974,68.07 C98.7978615,68.07 98.0051923,68.616 97.6025667,69.148 L97.6025667,68.238 L96.2814513,68.238 L96.2814513,75 L97.6025667,75 L97.6025667,70.268 C97.9171179,69.82 98.4958923,69.372 99.162741,69.372 C99.9050821,69.372 100.395782,69.708 100.395782,70.772 L100.395782,75 L101.716897,75 Z M109.593262,75.168 C111.845449,75.168 112.839431,73.824 112.839431,72.27 C112.839431,68.798 107.957595,69.876 107.957595,68.126 C107.957595,67.44 108.511205,66.964 109.366785,66.964 C110.247528,66.964 111.140854,67.3 111.807703,68.042 L112.638118,66.824 C111.870613,65.984 110.801138,65.508 109.505187,65.508 C107.655626,65.508 106.447749,66.698 106.447749,68.252 C106.447749,71.682 111.329585,70.464 111.329585,72.424 C111.329585,73.054 110.864049,73.712 109.656172,73.712 C108.486041,73.712 107.567551,73.096 107.001359,72.41 L106.170944,73.684 C106.925867,74.552 108.045669,75.168 109.593262,75.168 Z M116.966344,75.168 C117.922579,75.168 118.815905,74.818 119.432426,74.174 L118.828487,73.208 C118.388115,73.698 117.696103,73.964 117.092164,73.964 C115.947197,73.964 115.267767,73.11 115.16711,72.102 L119.847633,72.102 L119.847633,71.738 C119.847633,69.61 118.690085,68.07 116.865687,68.07 C115.066454,68.07 113.783085,69.652 113.783085,71.612 C113.783085,73.754 115.129364,75.168 116.966344,75.168 Z M118.576846,71.052 L115.154528,71.052 C115.204856,70.24 115.733303,69.274 116.853105,69.274 C118.0484,69.274 118.5391,70.254 118.576846,71.052 Z M122.993146,75.168 C123.597085,75.168 123.987128,74.972 124.226187,74.734 L123.911636,73.614 C123.810979,73.74 123.584503,73.866 123.332862,73.866 C122.9554,73.866 122.754087,73.516 122.754087,73.054 L122.754087,69.512 L123.987128,69.512 L123.987128,68.238 L122.754087,68.238 L122.754087,66.39 L121.432972,66.39 L121.432972,68.238 L120.426408,68.238 L120.426408,69.512 L121.432972,69.512 L121.432972,73.418 C121.432972,74.552 121.961418,75.168 122.993146,75.168 Z M130.592705,75 L130.592705,68.238 L129.27159,68.238 L129.27159,72.984 C128.969621,73.432 128.390846,73.866 127.723997,73.866 C126.969074,73.866 126.490956,73.53 126.490956,72.48 L126.490956,68.238 L125.169841,68.238 L125.169841,73.026 C125.169841,74.398 125.824108,75.168 127.132641,75.168 C128.088877,75.168 128.8438,74.636 129.27159,74.104 L129.27159,75 L130.592705,75 Z M135.575197,75.168 C137.147954,75.168 138.267756,73.838 138.267756,71.612 C138.267756,69.386 137.147954,68.07 135.575197,68.07 C134.782528,68.07 134.077933,68.49 133.624979,69.162 L133.624979,68.238 L132.303864,68.238 L132.303864,77.576 L133.624979,77.576 L133.624979,74.062 C134.128262,74.776 134.807692,75.168 135.575197,75.168 Z M135.185154,73.866 C134.568633,73.866 133.914367,73.446 133.624979,72.942 L133.624979,70.268 C133.926949,69.764 134.568633,69.372 135.185154,69.372 C136.229464,69.372 136.908895,70.296 136.908895,71.612 C136.908895,72.928 136.229464,73.866 135.185154,73.866 Z M144.344887,75 L144.344887,70.954 L148.53471,70.954 L148.53471,69.512 L144.344887,69.512 L144.344887,67.104 L148.622785,67.104 L148.622785,65.662 L142.872787,65.662 L142.872787,75 L144.344887,75 Z M152.737115,75.168 C153.693351,75.168 154.586677,74.818 155.203197,74.174 L154.599259,73.208 C154.158887,73.698 153.466874,73.964 152.862936,73.964 C151.717969,73.964 151.038538,73.11 150.937882,72.102 L155.618405,72.102 L155.618405,71.738 C155.618405,69.61 154.460856,68.07 152.636459,68.07 C150.837226,68.07 149.553856,69.652 149.553856,71.612 C149.553856,73.754 150.900136,75.168 152.737115,75.168 Z M154.347618,71.052 L150.9253,71.052 C150.975628,70.24 151.504074,69.274 152.623877,69.274 C153.819172,69.274 154.309872,70.254 154.347618,71.052 Z M159.745318,75.168 C160.701554,75.168 161.594879,74.818 162.2114,74.174 L161.607462,73.208 C161.16709,73.698 160.475077,73.964 159.871138,73.964 C158.726172,73.964 158.046741,73.11 157.946085,72.102 L162.626608,72.102 L162.626608,71.738 C162.626608,69.61 161.469059,68.07 159.644662,68.07 C157.845428,68.07 156.562059,69.652 156.562059,71.612 C156.562059,73.754 157.908338,75.168 159.745318,75.168 Z M161.355821,71.052 L157.933503,71.052 C157.983831,70.24 158.512277,69.274 159.632079,69.274 C160.827374,69.274 161.318074,70.254 161.355821,71.052 Z" id="MyAwesome-Plan-Setup" fill="#2F2F2F"></path>
                        <path d="M12.308841,114.268 L12.308841,104.93 L10.2328026,104.93 L7.95545128,111.342 L5.66551795,104.93 L3.58947949,104.93 L3.58947949,114.268 L5.06157949,114.268 L5.06157949,107.058 L7.6409,114.268 L8.27000256,114.268 L10.836741,107.058 L10.836741,114.268 L12.308841,114.268 Z M13.8061051,116.914 C13.9822538,116.97 14.3597154,117.012 14.5484462,117.012 C15.4921,116.998 16.2092769,116.634 16.6244846,115.486 L19.5561026,107.506 L18.1469128,107.506 L16.3728436,112.574 L14.5987744,107.506 L13.1770026,107.506 L15.6808308,114.352 L15.3788615,115.122 C15.2027128,115.57 14.9259077,115.71 14.4981179,115.71 C14.3471333,115.71 14.1332385,115.668 13.9948359,115.598 L13.8061051,116.914 Z M27.7344359,114.268 L24.4379385,104.93 L22.600959,104.93 L19.3044615,114.268 L20.9778744,114.268 L21.5943949,112.462 L25.4445026,112.462 L26.0610231,114.268 L27.7344359,114.268 Z M25.0292949,111.02 L22.0096026,111.02 L23.5194487,106.568 L25.0292949,111.02 Z M35.1075179,114.268 L36.9948256,107.506 L35.6108,107.506 L34.3274308,112.42 L32.8930769,107.506 L31.7229462,107.506 L30.2760103,112.42 L28.992641,107.506 L27.6211974,107.506 L29.5085051,114.268 L30.8925308,114.268 L32.3017205,109.312 L33.7234923,114.268 L35.1075179,114.268 Z M40.7316949,114.436 C41.6879308,114.436 42.5812564,114.086 43.1977769,113.442 L42.5938385,112.476 C42.1534667,112.966 41.4614538,113.232 40.8575154,113.232 C39.7125487,113.232 39.0331179,112.378 38.9324615,111.37 L43.6129846,111.37 L43.6129846,111.006 C43.6129846,108.878 42.4554359,107.338 40.6310385,107.338 C38.8318051,107.338 37.5484359,108.92 37.5484359,110.88 C37.5484359,113.022 38.8947154,114.436 40.7316949,114.436 Z M42.3421974,110.32 L38.9198795,110.32 C38.9702077,109.508 39.4986538,108.542 40.6184564,108.542 C41.8137513,108.542 42.3044513,109.522 42.3421974,110.32 Z M47.0101385,114.436 C48.6458051,114.436 49.5391308,113.526 49.5391308,112.322 C49.5391308,109.634 45.8651718,110.53 45.8651718,109.34 C45.8651718,108.864 46.2929615,108.5 46.9849744,108.5 C47.7524795,108.5 48.4193282,108.864 48.7842077,109.312 L49.3378179,108.276 C48.7967897,107.744 48.0167026,107.338 46.9849744,107.338 C45.4499641,107.338 44.5943846,108.276 44.5943846,109.382 C44.5943846,111.986 48.2683436,111.034 48.2683436,112.364 C48.2683436,112.896 47.8531359,113.26 47.0604667,113.26 C46.2803795,113.26 45.4373821,112.812 45.0095923,112.322 L44.4056538,113.372 C45.0347564,114.058 45.9658282,114.436 47.0101385,114.436 Z M53.6157154,114.436 C55.5533513,114.436 56.7360641,112.812 56.7360641,110.88 C56.7360641,108.934 55.5533513,107.338 53.6157154,107.338 C51.6780795,107.338 50.4953667,108.934 50.4953667,110.88 C50.4953667,112.812 51.6780795,114.436 53.6157154,114.436 Z M53.6157154,113.134 C52.4959128,113.134 51.8668103,112.084 51.8668103,110.88 C51.8668103,109.69 52.4959128,108.64 53.6157154,108.64 C54.7481,108.64 55.3646205,109.69 55.3646205,110.88 C55.3646205,112.084 54.7481,113.134 53.6157154,113.134 Z M66.8646154,114.268 L66.8646154,109.382 C66.8646154,108.01 66.2229308,107.338 65.1157103,107.338 C64.1972205,107.338 63.3919692,107.968 63.0522538,108.57 C62.850941,107.842 62.2973308,107.338 61.3914231,107.338 C60.4603513,107.338 59.6676821,108.01 59.403459,108.416 L59.403459,107.506 L58.0823436,107.506 L58.0823436,114.268 L59.403459,114.268 L59.403459,109.536 C59.6802641,109.102 60.2212923,108.64 60.8126487,108.64 C61.5298256,108.64 61.8066308,109.13 61.8066308,109.858 L61.8066308,114.268 L63.1277462,114.268 L63.1277462,109.536 C63.3919692,109.088 63.9455795,108.64 64.5369359,108.64 C65.2541128,108.64 65.5435,109.13 65.5435,109.858 L65.5435,114.268 L66.8646154,114.268 Z M71.3941538,114.436 C72.3503897,114.436 73.2437154,114.086 73.8602359,113.442 L73.2562974,112.476 C72.8159256,112.966 72.1239128,113.232 71.5199744,113.232 C70.3750077,113.232 69.6955769,112.378 69.5949205,111.37 L74.2754436,111.37 L74.2754436,111.006 C74.2754436,108.878 73.1178949,107.338 71.2934974,107.338 C69.4942641,107.338 68.2108949,108.92 68.2108949,110.88 C68.2108949,113.022 69.5571744,114.436 71.3941538,114.436 Z M73.0046564,110.32 L69.5823385,110.32 C69.6326667,109.508 70.1611128,108.542 71.2809154,108.542 C72.4762103,108.542 72.9669103,109.522 73.0046564,110.32 Z M80.3399923,114.268 L80.3399923,110.768 L82.5670154,110.768 C84.3159205,110.768 85.2973205,109.438 85.2973205,107.856 C85.2973205,106.26 84.3285026,104.93 82.5670154,104.93 L78.8678923,104.93 L78.8678923,114.268 L80.3399923,114.268 Z M82.3657026,109.326 L80.3399923,109.326 L80.3399923,106.372 L82.3657026,106.372 C83.1961179,106.372 83.7874744,106.96 83.7874744,107.856 C83.7874744,108.738 83.1961179,109.326 82.3657026,109.326 Z M87.8137308,114.268 L87.8137308,104.93 L86.4926154,104.93 L86.4926154,114.268 L87.8137308,114.268 Z M94.5702923,114.268 L94.5702923,109.774 C94.5702923,107.968 93.3875795,107.338 92.0287179,107.338 C91.0599,107.338 90.1791564,107.674 89.4745615,108.43 L90.0281718,109.452 C90.5440359,108.864 91.1479744,108.584 91.8274051,108.584 C92.6578205,108.584 93.2491769,109.06 93.2491769,109.844 L93.2491769,110.852 C92.7962231,110.278 92.1042103,109.984 91.2737949,109.984 C90.2798128,109.984 89.1725923,110.628 89.1725923,112.196 C89.1725923,113.68 90.2923949,114.436 91.2737949,114.436 C92.0790462,114.436 92.7962231,114.114 93.2491769,113.526 L93.2491769,114.268 L94.5702923,114.268 Z M91.802241,113.428 C91.0599,113.428 90.4937077,112.952 90.4937077,112.21 C90.4937077,111.482 91.0599,110.992 91.802241,110.992 C92.3684333,110.992 92.9346256,111.23 93.2491769,111.692 L93.2491769,112.728 C92.9346256,113.19 92.3684333,113.428 91.802241,113.428 Z M101.716897,114.268 L101.716897,109.508 C101.716897,108.122 101.062631,107.338 99.7540974,107.338 C98.7978615,107.338 98.0051923,107.884 97.6025667,108.416 L97.6025667,107.506 L96.2814513,107.506 L96.2814513,114.268 L97.6025667,114.268 L97.6025667,109.536 C97.9171179,109.088 98.4958923,108.64 99.162741,108.64 C99.9050821,108.64 100.395782,108.976 100.395782,110.04 L100.395782,114.268 L101.716897,114.268 Z" id="MyAwesome-Plan" fill="#2F2F2F"></path>
                        <polygon id="1-copy" fill="#2F2F2F" points="106.818021 110.106 106.818021 104.506 105.937277 104.506 104.377103 106.228 104.968459 106.914 105.798874 105.948 105.798874 110.106"></polygon>
                        <path d="M458.497138,75 L458.497138,73.964 L454.382808,73.964 C456.723069,71.906 458.459392,70.17 458.459392,68.266 C458.459392,66.404 457.037621,65.522 455.641013,65.522 C454.4583,65.522 453.363662,66.04 452.721977,66.992 L453.363662,67.734 C453.854362,67.034 454.634449,66.558 455.641013,66.558 C456.509174,66.558 457.4025,67.062 457.4025,68.266 C457.4025,69.876 455.754251,71.43 452.734559,74.062 L452.734559,75 L458.497138,75 Z" id="2" fill="#2F2F2F"></path>
                        <polygon id="1-copy-2" fill="#2F2F2F" points="455.339044 114.268 455.339044 104.93 454.420554 104.93 452.319351 107.338 452.948454 108.052 454.294733 106.456 454.294733 114.268"></polygon>
                        <path d="M558.736544,76.4 L559.504049,76.4 L559.504049,75.154 C561.454267,75 562.184026,73.684 562.184026,72.424 C562.184026,70.59 560.8,70.058 559.504049,69.652 L559.504049,66.6 C560.208644,66.712 560.86291,67.062 561.366192,67.678 L561.995295,66.824 C561.378774,66.11 560.548359,65.634 559.504049,65.536 L559.504049,64.248 L558.736544,64.248 L558.736544,65.522 C557.226697,65.648 556.132059,66.67 556.132059,68.112 C556.132059,69.834 557.453174,70.31 558.736544,70.702 L558.736544,74.104 C557.742562,73.978 556.975056,73.418 556.496938,72.788 L555.867836,73.684 C556.496938,74.482 557.465756,75.07 558.736544,75.154 L558.736544,76.4 Z M561.101969,72.508 C561.101969,73.18 560.699344,73.978 559.504049,74.118 L559.504049,70.926 C560.384792,71.22 561.101969,71.598 561.101969,72.508 Z M557.214115,68.042 C557.214115,67.23 557.843218,66.642 558.736544,66.572 L558.736544,69.428 C557.880964,69.148 557.214115,68.812 557.214115,68.042 Z M565.467941,75 L568.902841,66.46 L568.902841,65.662 L563.178008,65.662 L563.178008,66.698 L567.694964,66.698 L564.310392,75 L565.467941,75 Z M569.494197,75.14 C569.871659,75.14 570.18621,74.79 570.18621,74.37 C570.18621,73.95 569.871659,73.6 569.494197,73.6 C569.116736,73.6 568.802185,73.95 568.802185,74.37 C568.802185,74.79 569.116736,75.14 569.494197,75.14 Z M574.413779,75.168 C576.703713,75.168 577.622203,72.606 577.622203,70.338 C577.622203,68.056 576.703713,65.522 574.413779,65.522 C572.111264,65.522 571.205356,68.056 571.205356,70.338 C571.205356,72.606 572.111264,75.168 574.413779,75.168 Z M574.413779,74.132 C572.815859,74.132 572.274831,72.2 572.274831,70.338 C572.274831,68.476 572.815859,66.558 574.413779,66.558 C576.0117,66.558 576.552728,68.476 576.552728,70.338 C576.552728,72.2 576.0117,74.132 574.413779,74.132 Z M582.113995,75.168 C584.403928,75.168 585.322418,72.606 585.322418,70.338 C585.322418,68.056 584.403928,65.522 582.113995,65.522 C579.811479,65.522 578.905572,68.056 578.905572,70.338 C578.905572,72.606 579.811479,75.168 582.113995,75.168 Z M582.113995,74.132 C580.516074,74.132 579.975046,72.2 579.975046,70.338 C579.975046,68.476 580.516074,66.558 582.113995,66.558 C583.711915,66.558 584.252944,68.476 584.252944,70.338 C584.252944,72.2 583.711915,74.132 582.113995,74.132 Z" id="$7.00" fill="#2F2F2F"></path>
                        <path d="M549.929108,115.4 L550.696613,115.4 L550.696613,114.154 C552.646831,114 553.37659,112.684 553.37659,111.424 C553.37659,109.59 551.992564,109.058 550.696613,108.652 L550.696613,105.6 C551.401208,105.712 552.055474,106.062 552.558756,106.678 L553.187859,105.824 C552.571338,105.11 551.740923,104.634 550.696613,104.536 L550.696613,103.248 L549.929108,103.248 L549.929108,104.522 C548.419262,104.648 547.324623,105.67 547.324623,107.112 C547.324623,108.834 548.645738,109.31 549.929108,109.702 L549.929108,113.104 C548.935126,112.978 548.167621,112.418 547.689503,111.788 L547.0604,112.684 C547.689503,113.482 548.658321,114.07 549.929108,114.154 L549.929108,115.4 Z M552.294533,111.508 C552.294533,112.18 551.891908,112.978 550.696613,113.118 L550.696613,109.926 C551.577356,110.22 552.294533,110.598 552.294533,111.508 Z M548.406679,107.042 C548.406679,106.23 549.035782,105.642 549.929108,105.572 L549.929108,108.428 C549.073528,108.148 548.406679,107.812 548.406679,107.042 Z M559.415974,114 L559.415974,111.634 L560.598687,111.634 L560.598687,110.612 L559.415974,110.612 L559.415974,104.662 L557.981621,104.662 L554.383154,110.668 L554.383154,111.634 L558.371664,111.634 L558.371664,114 L559.415974,114 Z M558.371664,110.612 L555.427464,110.612 L558.371664,105.74 L558.371664,110.612 Z M564.385885,114.154 C566.738728,114.154 567.808203,111.858 567.808203,109.338 C567.808203,106.79 566.902295,104.508 564.562033,104.508 C562.725054,104.508 561.617833,105.95 561.617833,107.56 C561.617833,109.548 562.863456,110.542 564.373303,110.542 C565.442777,110.542 566.373849,109.73 566.738728,109.086 C566.75131,109.212 566.75131,109.338 566.75131,109.45 C566.75131,111.228 566.084462,113.118 564.385885,113.118 C563.517723,113.118 563.014441,112.726 562.586651,112.166 L562.058205,113.034 C562.586651,113.692 563.31641,114.154 564.385885,114.154 Z M564.612362,109.534 C563.530305,109.534 562.674726,108.89 562.674726,107.518 C562.674726,106.622 563.31641,105.544 564.599779,105.544 C566.059297,105.544 566.612908,106.986 566.713564,108.134 C566.26061,108.96 565.442777,109.534 564.612362,109.534 Z M569.494197,114.14 C569.871659,114.14 570.18621,113.79 570.18621,113.37 C570.18621,112.95 569.871659,112.6 569.494197,112.6 C569.116736,112.6 568.802185,112.95 568.802185,113.37 C568.802185,113.79 569.116736,114.14 569.494197,114.14 Z M574.413779,114.168 C576.703713,114.168 577.622203,111.606 577.622203,109.338 C577.622203,107.056 576.703713,104.522 574.413779,104.522 C572.111264,104.522 571.205356,107.056 571.205356,109.338 C571.205356,111.606 572.111264,114.168 574.413779,114.168 Z M574.413779,113.132 C572.815859,113.132 572.274831,111.2 572.274831,109.338 C572.274831,107.476 572.815859,105.558 574.413779,105.558 C576.0117,105.558 576.552728,107.476 576.552728,109.338 C576.552728,111.2 576.0117,113.132 574.413779,113.132 Z M582.113995,114.168 C584.403928,114.168 585.322418,111.606 585.322418,109.338 C585.322418,107.056 584.403928,104.522 582.113995,104.522 C579.811479,104.522 578.905572,107.056 578.905572,109.338 C578.905572,111.606 579.811479,114.168 582.113995,114.168 Z M582.113995,113.132 C580.516074,113.132 579.975046,111.2 579.975046,109.338 C579.975046,107.476 580.516074,105.558 582.113995,105.558 C583.711915,105.558 584.252944,107.476 584.252944,109.338 C584.252944,111.2 583.711915,113.132 582.113995,113.132 Z" id="$49.00-copy" fill="#2F2F2F"></path>
                        <path d="M663.690623,76.4 L664.697187,76.4 L664.697187,75.14 C666.584495,74.958 667.427492,73.698 667.427492,72.27 C667.427492,70.394 666.005721,69.848 664.697187,69.47 L664.697187,67.048 C665.313708,67.188 665.917646,67.51 666.395764,68.042 L667.226179,66.824 C666.571913,66.124 665.716333,65.676 664.697187,65.55 L664.697187,64.248 L663.690623,64.248 L663.690623,65.536 C662.067538,65.69 661.03581,66.824 661.03581,68.252 C661.03581,70.072 662.394672,70.59 663.690623,70.954 L663.690623,73.67 C662.784715,73.516 662.054956,72.984 661.589421,72.41 L660.759005,73.684 C661.425854,74.454 662.394672,75.028 663.690623,75.14 L663.690623,76.4 Z M665.917646,72.424 C665.917646,72.97 665.565349,73.544 664.697187,73.684 L664.697187,71.248 C665.3892,71.486 665.917646,71.794 665.917646,72.424 Z M662.545656,68.126 C662.545656,67.51 662.986028,67.076 663.690623,66.978 L663.690623,69.176 C663.023774,68.952 662.545656,68.672 662.545656,68.126 Z M671.806046,75 L671.806046,65.662 L670.522677,65.662 L668.106923,68.378 L668.962503,69.372 L670.333946,67.776 L670.333946,75 L671.806046,75 Z M678.524862,75 L678.524862,72.886 L679.644664,72.886 L679.644664,71.444 L678.524862,71.444 L678.524862,65.662 L676.499151,65.662 L673.051669,71.57 L673.051669,72.886 L677.052762,72.886 L677.052762,75 L678.524862,75 Z M677.052762,71.444 L674.498605,71.444 L677.052762,67.132 L677.052762,71.444 Z M681.544554,75.154 C682.022672,75.154 682.425297,74.692 682.425297,74.16 C682.425297,73.642 682.022672,73.194 681.544554,73.194 C681.066436,73.194 680.66381,73.642 680.66381,74.16 C680.66381,74.692 681.066436,75.154 681.544554,75.154 Z M686.665449,75.168 C689.018292,75.168 690.012274,72.676 690.012274,70.338 C690.012274,67.986 689.018292,65.522 686.665449,65.522 C684.300023,65.522 683.306041,67.986 683.306041,70.338 C683.306041,72.676 684.300023,75.168 686.665449,75.168 Z M686.665449,73.712 C685.294005,73.712 684.803305,72.116 684.803305,70.338 C684.803305,68.546 685.294005,66.978 686.665449,66.978 C688.036892,66.978 688.51501,68.546 688.51501,70.338 C688.51501,72.116 688.02431,73.712 686.665449,73.712 Z M694.428574,75.168 C696.781418,75.168 697.7754,72.676 697.7754,70.338 C697.7754,67.986 696.781418,65.522 694.428574,65.522 C692.063149,65.522 691.069167,67.986 691.069167,70.338 C691.069167,72.676 692.063149,75.168 694.428574,75.168 Z M694.428574,73.712 C693.057131,73.712 692.566431,72.116 692.566431,70.338 C692.566431,68.546 693.057131,66.978 694.428574,66.978 C695.800018,66.978 696.278136,68.546 696.278136,70.338 C696.278136,72.116 695.787436,73.712 694.428574,73.712 Z" id="$14.00" fill="#2F2F2F"></path>
                        <path d="M661.224541,115.4 L662.231105,115.4 L662.231105,114.14 C664.118413,113.958 664.96141,112.698 664.96141,111.27 C664.96141,109.394 663.539638,108.848 662.231105,108.47 L662.231105,106.048 C662.847626,106.188 663.451564,106.51 663.929682,107.042 L664.760097,105.824 C664.105831,105.124 663.250251,104.676 662.231105,104.55 L662.231105,103.248 L661.224541,103.248 L661.224541,104.536 C659.601456,104.69 658.569728,105.824 658.569728,107.252 C658.569728,109.072 659.92859,109.59 661.224541,109.954 L661.224541,112.67 C660.318633,112.516 659.588874,111.984 659.123338,111.41 L658.292923,112.684 C658.959772,113.454 659.92859,114.028 661.224541,114.14 L661.224541,115.4 Z M663.451564,111.424 C663.451564,111.97 663.099267,112.544 662.231105,112.684 L662.231105,110.248 C662.923118,110.486 663.451564,110.794 663.451564,111.424 Z M660.079574,107.126 C660.079574,106.51 660.519946,106.076 661.224541,105.978 L661.224541,108.176 C660.557692,107.952 660.079574,107.672 660.079574,107.126 Z M671.2776,114 L671.2776,111.886 L672.397403,111.886 L672.397403,110.444 L671.2776,110.444 L671.2776,104.662 L669.25189,104.662 L665.804408,110.57 L665.804408,111.886 L669.8055,111.886 L669.8055,114 L671.2776,114 Z M669.8055,110.444 L667.251344,110.444 L669.8055,106.132 L669.8055,110.444 Z M676.096526,114.154 C678.524862,114.154 679.795649,112.026 679.795649,109.324 C679.795649,106.734 678.801667,104.508 676.335585,104.508 C674.460859,104.508 673.2404,105.908 673.2404,107.644 C673.2404,109.632 674.536351,110.654 676.046197,110.654 C677.040179,110.654 677.920923,109.982 678.298385,109.352 C678.310967,109.436 678.310967,109.534 678.310967,109.618 C678.310967,111.144 677.618954,112.698 676.096526,112.698 C675.291274,112.698 674.813156,112.39 674.372785,111.872 L673.680772,113.118 C674.246964,113.734 675.052215,114.154 676.096526,114.154 Z M676.448823,109.254 C675.530333,109.254 674.725082,108.736 674.725082,107.588 C674.725082,106.832 675.303856,105.964 676.411077,105.964 C677.707028,105.964 678.197728,107.14 678.285803,108.148 C677.858013,108.82 677.166,109.254 676.448823,109.254 Z M681.544554,114.154 C682.022672,114.154 682.425297,113.692 682.425297,113.16 C682.425297,112.642 682.022672,112.194 681.544554,112.194 C681.066436,112.194 680.66381,112.642 680.66381,113.16 C680.66381,113.692 681.066436,114.154 681.544554,114.154 Z M686.665449,114.168 C689.018292,114.168 690.012274,111.676 690.012274,109.338 C690.012274,106.986 689.018292,104.522 686.665449,104.522 C684.300023,104.522 683.306041,106.986 683.306041,109.338 C683.306041,111.676 684.300023,114.168 686.665449,114.168 Z M686.665449,112.712 C685.294005,112.712 684.803305,111.116 684.803305,109.338 C684.803305,107.546 685.294005,105.978 686.665449,105.978 C688.036892,105.978 688.51501,107.546 688.51501,109.338 C688.51501,111.116 688.02431,112.712 686.665449,112.712 Z M694.428574,114.168 C696.781418,114.168 697.7754,111.676 697.7754,109.338 C697.7754,106.986 696.781418,104.522 694.428574,104.522 C692.063149,104.522 691.069167,106.986 691.069167,109.338 C691.069167,111.676 692.063149,114.168 694.428574,114.168 Z M694.428574,112.712 C693.057131,112.712 692.566431,111.116 692.566431,109.338 C692.566431,107.546 693.057131,105.978 694.428574,105.978 C695.800018,105.978 696.278136,107.546 696.278136,109.338 C696.278136,111.116 695.787436,112.712 694.428574,112.712 Z" id="$49.00-copy-3" fill="#2F2F2F"></path>
                        <path d="M5.57205128,21 C7.44138462,21 8.69958974,19.63 8.69958974,17.66 C8.69958974,15.71 7.44138462,14.33 5.5630641,14.33 L3.33424359,14.33 L3.33424359,21 L5.57205128,21 Z M5.5630641,19.97 L4.38574359,19.97 L4.38574359,15.36 L5.57205128,15.36 C6.90215385,15.36 7.62112821,16.38 7.62112821,17.66 C7.62112821,18.93 6.86620513,19.97 5.5630641,19.97 Z M13.8222821,21 L13.8222821,19.97 L10.766641,19.97 L10.766641,18.11 L13.7593718,18.11 L13.7593718,17.08 L10.766641,17.08 L10.766641,15.36 L13.8222821,15.36 L13.8222821,14.33 L9.71514103,14.33 L9.71514103,21 L13.8222821,21 Z M16.9588077,21.12 C18.5675128,21.12 19.2775,20.16 19.2775,19.05 C19.2775,16.57 15.7904744,17.34 15.7904744,16.09 C15.7904744,15.6 16.1859103,15.26 16.7970385,15.26 C17.426141,15.26 18.0642308,15.5 18.5405513,16.03 L19.1337051,15.16 C18.5854872,14.56 17.8215769,14.22 16.8958974,14.22 C15.5747821,14.22 14.7120128,15.07 14.7120128,16.18 C14.7120128,18.63 18.1990385,17.76 18.1990385,19.16 C18.1990385,19.61 17.8665128,20.08 17.0037436,20.08 C16.1679359,20.08 15.5118718,19.64 15.1074487,19.15 L14.5142949,20.06 C15.0535256,20.68 15.8533846,21.12 16.9588077,21.12 Z M23.1240128,21.12 C24.3282949,21.12 25.0742308,20.41 25.5325769,19.61 L24.633859,19.11 C24.3462692,19.66 23.7621026,20.08 23.1240128,20.08 C21.9377051,20.08 21.0569615,19.06 21.0569615,17.67 C21.0569615,16.26 21.9377051,15.26 23.1240128,15.26 C23.7621026,15.26 24.3462692,15.67 24.633859,16.23 L25.5235897,15.71 C25.0832179,14.91 24.3282949,14.22 23.1240128,14.22 C21.3535385,14.22 19.9785,15.61 19.9785,17.67 C19.9785,19.72 21.3535385,21.12 23.1240128,21.12 Z M31.0147564,21 L29.540859,18.38 C30.2688205,18.25 30.9698205,17.6 30.9698205,16.42 C30.9698205,15.18 30.1879359,14.33 29.0016282,14.33 L26.3683846,14.33 L26.3683846,21 L27.4198846,21 L27.4198846,18.51 L28.4713846,18.51 L29.7925,21 L31.0147564,21 Z M28.8668205,17.48 L27.4198846,17.48 L27.4198846,15.36 L28.8668205,15.36 C29.4599744,15.36 29.891359,15.77 29.891359,16.41 C29.891359,17.06 29.4599744,17.48 28.8668205,17.48 Z M33.0728205,21 L33.0728205,14.33 L32.0213205,14.33 L32.0213205,21 L33.0728205,21 Z M35.4005,21 L35.4005,18.5 L36.9912308,18.5 C38.2404487,18.5 38.9414487,17.55 38.9414487,16.42 C38.9414487,15.28 38.2494359,14.33 36.9912308,14.33 L34.349,14.33 L34.349,21 L35.4005,21 Z M36.8474359,17.47 L35.4005,17.47 L35.4005,15.36 L36.8474359,15.36 C37.4405897,15.36 37.8629872,15.78 37.8629872,16.42 C37.8629872,17.05 37.4405897,17.47 36.8474359,17.47 Z M42.3026538,21 L42.3026538,15.36 L44.1180641,15.36 L44.1180641,14.33 L39.4357436,14.33 L39.4357436,15.36 L41.2511538,15.36 L41.2511538,21 L42.3026538,21 Z M46.0592949,21 L46.0592949,14.33 L45.0077949,14.33 L45.0077949,21 L46.0592949,21 Z M50.1394744,21.12 C51.9279231,21.12 53.2041026,19.66 53.2041026,17.67 C53.2041026,15.68 51.9279231,14.22 50.1394744,14.22 C48.3420385,14.22 47.0748462,15.68 47.0748462,17.67 C47.0748462,19.66 48.3420385,21.12 50.1394744,21.12 Z M50.1394744,20.08 C48.9262051,20.08 48.1533077,19.04 48.1533077,17.67 C48.1533077,16.29 48.9262051,15.26 50.1394744,15.26 C51.3437564,15.26 52.125641,16.29 52.125641,17.67 C52.125641,19.04 51.3437564,20.08 50.1394744,20.08 Z M59.4052564,21 L59.4052564,14.33 L58.3537564,14.33 L58.3537564,18.95 L55.2891282,14.33 L54.2106667,14.33 L54.2106667,21 L55.2621667,21 L55.2621667,16.23 L58.3897051,21 L59.4052564,21 Z" id="DESCRIPTION" fill="#2F2F2F"></path>
                        <path d="M446.303333,22.12 C448.046846,22.12 448.900628,21.01 448.900628,19.36 L448.900628,15.33 L447.831154,15.33 L447.831154,19.33 C447.831154,20.39 447.30091,21.08 446.303333,21.08 C445.305756,21.08 444.775513,20.39 444.775513,19.33 L444.775513,15.33 L443.706038,15.33 L443.706038,19.36 C443.706038,21.01 444.568808,22.12 446.303333,22.12 Z M455.371397,22 L455.371397,15.33 L454.319897,15.33 L454.319897,19.95 L451.255269,15.33 L450.176808,15.33 L450.176808,22 L451.228308,22 L451.228308,17.23 L454.355846,22 L455.371397,22 Z M457.699077,22 L457.699077,15.33 L456.647577,15.33 L456.647577,22 L457.699077,22 Z M461.455718,22 L461.455718,16.36 L463.271128,16.36 L463.271128,15.33 L458.588808,15.33 L458.588808,16.36 L460.404218,16.36 L460.404218,22 L461.455718,22 Z M466.173987,22.12 C467.782692,22.12 468.492679,21.16 468.492679,20.05 C468.492679,17.57 465.005654,18.34 465.005654,17.09 C465.005654,16.6 465.40109,16.26 466.012218,16.26 C466.641321,16.26 467.27941,16.5 467.755731,17.03 L468.348885,16.16 C467.800667,15.56 467.036756,15.22 466.111077,15.22 C464.789962,15.22 463.927192,16.07 463.927192,17.18 C463.927192,19.63 467.414218,18.76 467.414218,20.16 C467.414218,20.61 467.081692,21.08 466.218923,21.08 C465.383115,21.08 464.727051,20.64 464.322628,20.15 L463.729474,21.06 C464.268705,21.68 465.068564,22.12 466.173987,22.12 Z" id="Units" fill="#2F2F2F"></path>
                        <path d="M542.466154,22.12 C544.209667,22.12 545.063449,21.01 545.063449,19.36 L545.063449,15.33 L543.993974,15.33 L543.993974,19.33 C543.993974,20.39 543.463731,21.08 542.466154,21.08 C541.468577,21.08 540.938333,20.39 540.938333,19.33 L540.938333,15.33 L539.868859,15.33 L539.868859,19.36 C539.868859,21.01 540.731628,22.12 542.466154,22.12 Z M551.534218,22 L551.534218,15.33 L550.482718,15.33 L550.482718,19.95 L547.41809,15.33 L546.339628,15.33 L546.339628,22 L547.391128,22 L547.391128,17.23 L550.518667,22 L551.534218,22 Z M553.861897,22 L553.861897,15.33 L552.810397,15.33 L552.810397,22 L553.861897,22 Z M557.618538,22 L557.618538,16.36 L559.433949,16.36 L559.433949,15.33 L554.751628,15.33 L554.751628,16.36 L556.567038,16.36 L556.567038,22 L557.618538,22 Z M563.693872,22 L563.693872,19.5 L565.284603,19.5 C566.533821,19.5 567.234821,18.55 567.234821,17.42 C567.234821,16.28 566.542808,15.33 565.284603,15.33 L562.642372,15.33 L562.642372,22 L563.693872,22 Z M565.140808,18.47 L563.693872,18.47 L563.693872,16.36 L565.140808,16.36 C565.733962,16.36 566.156359,16.78 566.156359,17.42 C566.156359,18.05 565.733962,18.47 565.140808,18.47 Z M572.761936,22 L571.288038,19.38 C572.016,19.25 572.717,18.6 572.717,17.42 C572.717,16.18 571.935115,15.33 570.748808,15.33 L568.115564,15.33 L568.115564,22 L569.167064,22 L569.167064,19.51 L570.218564,19.51 L571.539679,22 L572.761936,22 Z M570.614,18.48 L569.167064,18.48 L569.167064,16.36 L570.614,16.36 C571.207154,16.36 571.638538,16.77 571.638538,17.41 C571.638538,18.06 571.207154,18.48 570.614,18.48 Z M574.82,22 L574.82,15.33 L573.7685,15.33 L573.7685,22 L574.82,22 Z M578.981064,22.12 C580.185346,22.12 580.931282,21.41 581.389628,20.61 L580.49091,20.11 C580.203321,20.66 579.619154,21.08 578.981064,21.08 C577.794756,21.08 576.914013,20.06 576.914013,18.67 C576.914013,17.26 577.794756,16.26 578.981064,16.26 C579.619154,16.26 580.203321,16.67 580.49091,17.23 L581.380641,16.71 C580.940269,15.91 580.185346,15.22 578.981064,15.22 C577.21059,15.22 575.835551,16.61 575.835551,18.67 C575.835551,20.72 577.21059,22.12 578.981064,22.12 Z M586.332577,22 L586.332577,20.97 L583.276936,20.97 L583.276936,19.11 L586.269667,19.11 L586.269667,18.08 L583.276936,18.08 L583.276936,16.36 L586.332577,16.36 L586.332577,15.33 L582.225436,15.33 L582.225436,22 L586.332577,22 Z" id="UNIT-PRICE" fill="#2F2F2F"></path>
                        <path d="M665.788231,22 L663.43359,15.33 L662.121462,15.33 L659.766821,22 L660.962115,22 L661.402487,20.71 L664.152564,20.71 L664.592936,22 L665.788231,22 Z M663.855987,19.68 L661.699064,19.68 L662.777526,16.5 L663.855987,19.68 Z M672.663423,22 L672.663423,15.33 L671.180538,15.33 L669.553859,19.91 L667.918192,15.33 L666.435308,15.33 L666.435308,22 L667.486808,22 L667.486808,16.85 L669.329179,22 L669.778538,22 L671.611923,16.85 L671.611923,22 L672.663423,22 Z M676.743603,22.12 C678.532051,22.12 679.808231,20.66 679.808231,18.67 C679.808231,16.68 678.532051,15.22 676.743603,15.22 C674.946167,15.22 673.678974,16.68 673.678974,18.67 C673.678974,20.66 674.946167,22.12 676.743603,22.12 Z M676.743603,21.08 C675.530333,21.08 674.757436,20.04 674.757436,18.67 C674.757436,17.29 675.530333,16.26 676.743603,16.26 C677.947885,16.26 678.729769,17.29 678.729769,18.67 C678.729769,20.04 677.947885,21.08 676.743603,21.08 Z M683.41209,22.12 C685.155603,22.12 686.009385,21.01 686.009385,19.36 L686.009385,15.33 L684.93991,15.33 L684.93991,19.33 C684.93991,20.39 684.409667,21.08 683.41209,21.08 C682.414513,21.08 681.884269,20.39 681.884269,19.33 L681.884269,15.33 L680.814795,15.33 L680.814795,19.36 C680.814795,21.01 681.677564,22.12 683.41209,22.12 Z M692.480154,22 L692.480154,15.33 L691.428654,15.33 L691.428654,19.95 L688.364026,15.33 L687.285564,15.33 L687.285564,22 L688.337064,22 L688.337064,17.23 L691.464603,22 L692.480154,22 Z M696.236795,22 L696.236795,16.36 L698.052205,16.36 L698.052205,15.33 L693.369885,15.33 L693.369885,16.36 L695.185295,16.36 L695.185295,22 L696.236795,22 Z" id="AMOUNT" fill="#2F2F2F"></path>
                        <polygon id="Line-Copy-2" fill="#979797" opacity="0.200000003" points="2.67415341 1 700.884747 1 700.884747 0 2.67415341 0"></polygon>
                        <polygon id="Line-4" fill="#979797" opacity="0.200000003" points="2.67415341 40 700.884747 40 700.884747 39 2.67415341 39"></polygon>
                        <polygon id="Line-5" fill="#979797" opacity="0.200000003" points="0.876717509 141 699.087311 141 699.087311 140 0.876717509 140"></polygon>
                    </g>
                </g>
            </g>
        </g>
    </g>
</svg>