<?xml version="1.0" encoding="UTF-8" standalone="no"?>
<svg width="133px" height="68px" viewBox="0 0 133 68" version="1.1" xmlns="http://www.w3.org/2000/svg" xmlns:xlink="http://www.w3.org/1999/xlink" xmlns:sketch="http://www.bohemiancoding.com/sketch/ns">
    <!-- Generator: Sketch 3.4.2 (15855) - http://www.bohemiancoding.com/sketch -->
    <title>SHIPPED TO</title>
    <desc>Created with Sketch.</desc>
    <defs></defs>
    <g id="Page-1" stroke="none" stroke-width="1" fill="none" fill-rule="evenodd" sketch:type="MSPage">
        <g id="Inclusive-simple-Copy-4" sketch:type="MSArtboardGroup" transform="translate(-335.000000, -274.000000)" fill="#2F2F2F">
            <path d="M338,281.12 C339.79,281.12 340.58,280.16 340.58,279.05 C340.58,276.57 336.7,277.34 336.7,276.09 C336.7,275.6 337.14,275.26 337.82,275.26 C338.52,275.26 339.23,275.5 339.76,276.03 L340.42,275.16 C339.81,274.56 338.96,274.22 337.93,274.22 C336.46,274.22 335.5,275.07 335.5,276.18 C335.5,278.63 339.38,277.76 339.38,279.16 C339.38,279.61 339.01,280.08 338.05,280.08 C337.12,280.08 336.39,279.64 335.94,279.15 L335.28,280.06 C335.88,280.68 336.77,281.12 338,281.12 L338,281.12 Z M347.46,281 L347.46,274.33 L346.29,274.33 L346.29,277.05 L342.82,277.05 L342.82,274.33 L341.65,274.33 L341.65,281 L342.82,281 L342.82,278.08 L346.29,278.08 L346.29,281 L347.46,281 Z M350.05,281 L350.05,274.33 L348.88,274.33 L348.88,281 L350.05,281 Z M352.64,281 L352.64,278.5 L354.41,278.5 C355.8,278.5 356.58,277.55 356.58,276.42 C356.58,275.28 355.81,274.33 354.41,274.33 L351.47,274.33 L351.47,281 L352.64,281 Z M354.25,277.47 L352.64,277.47 L352.64,275.36 L354.25,275.36 C354.91,275.36 355.38,275.78 355.38,276.42 C355.38,277.05 354.91,277.47 354.25,277.47 L354.25,277.47 Z M358.73,281 L358.73,278.5 L360.5,278.5 C361.89,278.5 362.67,277.55 362.67,276.42 C362.67,275.28 361.9,274.33 360.5,274.33 L357.56,274.33 L357.56,281 L358.73,281 Z M360.34,277.47 L358.73,277.47 L358.73,275.36 L360.34,275.36 C361,275.36 361.47,275.78 361.47,276.42 C361.47,277.05 361,277.47 360.34,277.47 L360.34,277.47 Z M368.22,281 L368.22,279.97 L364.82,279.97 L364.82,278.11 L368.15,278.11 L368.15,277.08 L364.82,277.08 L364.82,275.36 L368.22,275.36 L368.22,274.33 L363.65,274.33 L363.65,281 L368.22,281 Z M371.91,281 C373.99,281 375.39,279.63 375.39,277.66 C375.39,275.71 373.99,274.33 371.9,274.33 L369.42,274.33 L369.42,281 L371.91,281 Z M371.9,279.97 L370.59,279.97 L370.59,275.36 L371.91,275.36 C373.39,275.36 374.19,276.38 374.19,277.66 C374.19,278.93 373.35,279.97 371.9,279.97 L371.9,279.97 Z M381.86,281 L381.86,275.36 L383.88,275.36 L383.88,274.33 L378.67,274.33 L378.67,275.36 L380.69,275.36 L380.69,281 L381.86,281 Z M387.74,281.12 C389.73,281.12 391.15,279.66 391.15,277.67 C391.15,275.68 389.73,274.22 387.74,274.22 C385.74,274.22 384.33,275.68 384.33,277.67 C384.33,279.66 385.74,281.12 387.74,281.12 L387.74,281.12 Z M387.74,280.08 C386.39,280.08 385.53,279.04 385.53,277.67 C385.53,276.29 386.39,275.26 387.74,275.26 C389.08,275.26 389.95,276.29 389.95,277.67 C389.95,279.04 389.08,280.08 387.74,280.08 L387.74,280.08 Z M337.59,300.168 C339.144,300.168 340.418,299.244 340.418,297.298 L340.418,290.662 L339.62,290.662 L339.62,297.298 C339.62,298.558 338.822,299.44 337.548,299.44 C336.68,299.44 336.106,298.964 335.686,298.404 L335.196,299.02 C335.812,299.818 336.582,300.168 337.59,300.168 L337.59,300.168 Z M345.57,300.168 C347.572,300.168 348.832,298.586 348.832,296.612 C348.832,294.638 347.572,293.07 345.57,293.07 C343.596,293.07 342.336,294.638 342.336,296.612 C342.336,298.586 343.596,300.168 345.57,300.168 L345.57,300.168 Z M345.57,299.51 C344.002,299.51 343.106,298.124 343.106,296.612 C343.106,295.114 344.002,293.728 345.57,293.728 C347.166,293.728 348.048,295.114 348.048,296.612 C348.048,298.124 347.166,299.51 345.57,299.51 L345.57,299.51 Z M356,300 L356,295.268 C356,293.742 355.244,293.07 353.872,293.07 C352.892,293.07 351.926,293.672 351.436,294.26 L351.436,293.238 L350.708,293.238 L350.708,300 L351.436,300 L351.436,294.89 C351.87,294.274 352.766,293.728 353.634,293.728 C354.614,293.728 355.272,294.12 355.272,295.422 L355.272,300 L356,300 Z M363.294,300 L363.294,295.24 C363.294,293.728 362.202,293.07 360.83,293.07 C359.71,293.07 358.926,293.448 358.226,294.204 L358.632,294.708 C359.248,294.008 359.906,293.714 360.76,293.714 C361.754,293.714 362.566,294.26 362.566,295.268 L362.566,296.64 C361.978,295.982 361.208,295.674 360.27,295.674 C359.094,295.674 357.904,296.444 357.904,297.914 C357.904,299.37 359.108,300.168 360.27,300.168 C361.208,300.168 361.964,299.86 362.566,299.202 L362.566,300 L363.294,300 Z M360.522,299.594 C359.416,299.594 358.674,298.88 358.674,297.928 C358.674,296.962 359.416,296.248 360.522,296.248 C361.334,296.248 362.09,296.556 362.566,297.186 L362.566,298.67 C362.09,299.286 361.334,299.594 360.522,299.594 L360.522,299.594 Z M367.032,300.168 C367.592,300.168 367.914,300 368.18,299.748 L367.9,299.188 C367.746,299.356 367.466,299.51 367.144,299.51 C366.668,299.51 366.444,299.132 366.444,298.586 L366.444,293.882 L367.816,293.882 L367.816,293.238 L366.444,293.238 L366.444,291.39 L365.702,291.39 L365.702,293.238 L364.582,293.238 L364.582,293.882 L365.702,293.882 L365.702,298.698 C365.702,299.622 366.136,300.168 367.032,300.168 L367.032,300.168 Z M374.704,300 L374.704,295.24 C374.704,293.714 373.948,293.07 372.576,293.07 C371.596,293.07 370.63,293.672 370.14,294.26 L370.14,290.662 L369.412,290.662 L369.412,300 L370.14,300 L370.14,294.89 C370.574,294.274 371.47,293.728 372.338,293.728 C373.318,293.728 373.976,294.092 373.976,295.394 L373.976,300 L374.704,300 Z M381.998,300 L381.998,295.24 C381.998,293.728 380.906,293.07 379.534,293.07 C378.414,293.07 377.63,293.448 376.93,294.204 L377.336,294.708 C377.952,294.008 378.61,293.714 379.464,293.714 C380.458,293.714 381.27,294.26 381.27,295.268 L381.27,296.64 C380.682,295.982 379.912,295.674 378.974,295.674 C377.798,295.674 376.608,296.444 376.608,297.914 C376.608,299.37 377.812,300.168 378.974,300.168 C379.912,300.168 380.668,299.86 381.27,299.202 L381.27,300 L381.998,300 Z M379.226,299.594 C378.12,299.594 377.378,298.88 377.378,297.928 C377.378,296.962 378.12,296.248 379.226,296.248 C380.038,296.248 380.794,296.556 381.27,297.186 L381.27,298.67 C380.794,299.286 380.038,299.594 379.226,299.594 L379.226,299.594 Z M389.558,300 L389.558,295.268 C389.558,293.742 388.802,293.07 387.43,293.07 C386.45,293.07 385.484,293.672 384.994,294.26 L384.994,293.238 L384.266,293.238 L384.266,300 L384.994,300 L384.994,294.89 C385.428,294.274 386.324,293.728 387.192,293.728 C388.172,293.728 388.83,294.12 388.83,295.422 L388.83,300 L389.558,300 Z M396.278,300 L396.278,290.662 L395.48,290.662 L395.48,300 L396.278,300 Z M401.22,300 L404.076,293.238 L403.25,293.238 L400.814,299.146 L398.35,293.238 L397.538,293.238 L400.394,300 L401.22,300 Z M408.304,300.168 C409.424,300.168 410.278,299.776 410.95,299.076 L410.572,298.6 C409.998,299.216 409.214,299.538 408.36,299.538 C406.764,299.538 405.784,298.32 405.714,296.85 L411.37,296.85 L411.37,296.654 C411.37,294.694 410.236,293.07 408.178,293.07 C406.302,293.07 404.93,294.652 404.93,296.612 C404.93,298.698 406.33,300.168 408.304,300.168 L408.304,300.168 Z M410.628,296.276 L405.714,296.276 C405.77,295.1 406.568,293.7 408.164,293.7 C409.858,293.7 410.614,295.128 410.628,296.276 L410.628,296.276 Z M414.212,299.804 C414.212,299.23 413.876,298.908 413.498,298.908 C413.162,298.908 412.896,299.188 412.896,299.51 C412.896,299.846 413.134,300.098 413.47,300.098 C413.512,300.098 413.61,300.084 413.61,300.084 C413.582,300.518 413.246,301.064 412.798,301.372 L413.204,301.708 C413.75,301.33 414.212,300.588 414.212,299.804 L414.212,299.804 Z M338.15,320 L338.15,310.662 L337.422,310.662 L335.364,312.832 L335.854,313.35 L337.352,311.754 L337.352,320 L338.15,320 Z M343.498,320.168 C345.22,320.168 346.648,319.02 346.648,317.158 C346.648,315.212 345.234,314.176 343.666,314.176 C342.7,314.176 341.902,314.596 341.44,315.044 L341.44,311.39 L346.032,311.39 L346.032,310.662 L340.642,310.662 L340.642,315.562 L341.244,315.814 C341.93,315.184 342.658,314.904 343.512,314.904 C344.856,314.904 345.836,315.772 345.836,317.186 C345.836,318.46 344.856,319.44 343.498,319.44 C342.294,319.44 341.482,318.964 340.88,318.11 L340.348,318.642 C340.992,319.566 341.944,320.168 343.498,320.168 L343.498,320.168 Z M351.464,320.168 C353.256,320.168 354.642,319.174 354.642,317.662 C354.642,316.36 353.508,315.506 352.318,315.184 C353.424,314.89 354.488,314.176 354.488,312.93 C354.488,311.278 352.92,310.522 351.464,310.522 C349.994,310.522 348.44,311.278 348.44,312.93 C348.44,314.176 349.504,314.89 350.61,315.184 C349.42,315.506 348.286,316.36 348.286,317.662 C348.286,319.188 349.658,320.168 351.464,320.168 L351.464,320.168 Z M351.464,314.848 C350.904,314.736 349.252,314.316 349.252,313.014 C349.252,311.894 350.246,311.25 351.464,311.25 C352.682,311.25 353.676,311.894 353.676,313.014 C353.676,314.316 352.038,314.736 351.464,314.848 L351.464,314.848 Z M351.464,319.44 C350.218,319.44 349.098,318.74 349.098,317.606 C349.098,316.178 350.89,315.618 351.464,315.548 C352.024,315.618 353.83,316.178 353.83,317.606 C353.83,318.74 352.682,319.44 351.464,319.44 L351.464,319.44 Z M359.458,320.168 C361.25,320.168 362.636,319.174 362.636,317.662 C362.636,316.36 361.502,315.506 360.312,315.184 C361.418,314.89 362.482,314.176 362.482,312.93 C362.482,311.278 360.914,310.522 359.458,310.522 C357.988,310.522 356.434,311.278 356.434,312.93 C356.434,314.176 357.498,314.89 358.604,315.184 C357.414,315.506 356.28,316.36 356.28,317.662 C356.28,319.188 357.652,320.168 359.458,320.168 L359.458,320.168 Z M359.458,314.848 C358.898,314.736 357.246,314.316 357.246,313.014 C357.246,311.894 358.24,311.25 359.458,311.25 C360.676,311.25 361.67,311.894 361.67,313.014 C361.67,314.316 360.032,314.736 359.458,314.848 L359.458,314.848 Z M359.458,319.44 C358.212,319.44 357.092,318.74 357.092,317.606 C357.092,316.178 358.884,315.618 359.458,315.548 C360.018,315.618 361.824,316.178 361.824,317.606 C361.824,318.74 360.676,319.44 359.458,319.44 L359.458,319.44 Z M372.618,320.168 C374.102,320.168 375.194,319.524 376.034,318.502 L375.348,318.082 C374.76,318.894 373.738,319.44 372.618,319.44 C370.434,319.44 368.726,317.746 368.726,315.338 C368.726,312.902 370.434,311.236 372.618,311.236 C373.738,311.236 374.76,311.782 375.348,312.594 L376.02,312.16 C375.236,311.166 374.102,310.508 372.618,310.508 C369.972,310.508 367.886,312.468 367.886,315.338 C367.886,318.208 369.972,320.168 372.618,320.168 L372.618,320.168 Z M378.33,320 L378.33,315.072 C378.638,314.484 379.562,313.868 380.248,313.868 C380.388,313.868 380.486,313.868 380.612,313.896 L380.612,313.098 C379.674,313.098 378.904,313.644 378.33,314.4 L378.33,313.238 L377.602,313.238 L377.602,320 L378.33,320 Z M387.332,320 L387.332,313.238 L386.604,313.238 L386.604,318.39 C386.156,318.992 385.274,319.51 384.406,319.51 C383.426,319.51 382.768,319.146 382.768,317.83 L382.768,313.238 L382.04,313.238 L382.04,317.998 C382.04,319.524 382.796,320.168 384.168,320.168 C385.148,320.168 386.058,319.622 386.604,319.006 L386.604,320 L387.332,320 Z M392.498,320.168 C393.674,320.168 394.346,319.706 394.892,319.006 L394.388,318.558 C393.898,319.23 393.282,319.51 392.54,319.51 C390.958,319.51 389.992,318.236 389.992,316.612 C389.992,314.988 390.958,313.728 392.54,313.728 C393.282,313.728 393.898,313.994 394.388,314.666 L394.892,314.218 C394.346,313.532 393.674,313.07 392.498,313.07 C390.51,313.07 389.222,314.638 389.222,316.612 C389.222,318.586 390.51,320.168 392.498,320.168 L392.498,320.168 Z M399.512,320.168 C400.632,320.168 401.486,319.776 402.158,319.076 L401.78,318.6 C401.206,319.216 400.422,319.538 399.568,319.538 C397.972,319.538 396.992,318.32 396.922,316.85 L402.578,316.85 L402.578,316.654 C402.578,314.694 401.444,313.07 399.386,313.07 C397.51,313.07 396.138,314.652 396.138,316.612 C396.138,318.698 397.538,320.168 399.512,320.168 L399.512,320.168 Z M401.836,316.276 L396.922,316.276 C396.978,315.1 397.776,313.7 399.372,313.7 C401.066,313.7 401.822,315.128 401.836,316.276 L401.836,316.276 Z M405.182,320 L405.182,315.072 C405.49,314.484 406.414,313.868 407.1,313.868 C407.24,313.868 407.338,313.868 407.464,313.896 L407.464,313.098 C406.526,313.098 405.756,313.644 405.182,314.4 L405.182,313.238 L404.454,313.238 L404.454,320 L405.182,320 Z M411.748,320.168 C413.75,320.168 415.01,318.586 415.01,316.612 C415.01,314.638 413.75,313.07 411.748,313.07 C409.774,313.07 408.514,314.638 408.514,316.612 C408.514,318.586 409.774,320.168 411.748,320.168 L411.748,320.168 Z M411.748,319.51 C410.18,319.51 409.284,318.124 409.284,316.612 C409.284,315.114 410.18,313.728 411.748,313.728 C413.344,313.728 414.226,315.114 414.226,316.612 C414.226,318.124 413.344,319.51 411.748,319.51 L411.748,319.51 Z M428.226,320 L424.404,310.662 L423.41,310.662 L419.588,320 L420.512,320 L421.436,317.704 L426.378,317.704 L427.302,320 L428.226,320 Z M426.112,316.976 L421.702,316.976 L423.914,311.516 L426.112,316.976 Z M431.936,320 L434.792,313.238 L433.966,313.238 L431.53,319.146 L429.066,313.238 L428.254,313.238 L431.11,320 L431.936,320 Z M439.02,320.168 C440.14,320.168 440.994,319.776 441.666,319.076 L441.288,318.6 C440.714,319.216 439.93,319.538 439.076,319.538 C437.48,319.538 436.5,318.32 436.43,316.85 L442.086,316.85 L442.086,316.654 C442.086,314.694 440.952,313.07 438.894,313.07 C437.018,313.07 435.646,314.652 435.646,316.612 C435.646,318.698 437.046,320.168 439.02,320.168 L439.02,320.168 Z M441.344,316.276 L436.43,316.276 C436.486,315.1 437.284,313.7 438.88,313.7 C440.574,313.7 441.33,315.128 441.344,316.276 L441.344,316.276 Z M449.254,320 L449.254,315.268 C449.254,313.742 448.498,313.07 447.126,313.07 C446.146,313.07 445.18,313.672 444.69,314.26 L444.69,313.238 L443.962,313.238 L443.962,320 L444.69,320 L444.69,314.89 C445.124,314.274 446.02,313.728 446.888,313.728 C447.868,313.728 448.526,314.12 448.526,315.422 L448.526,320 L449.254,320 Z M456.814,320 L456.814,313.238 L456.086,313.238 L456.086,318.39 C455.638,318.992 454.756,319.51 453.888,319.51 C452.908,319.51 452.25,319.146 452.25,317.83 L452.25,313.238 L451.522,313.238 L451.522,317.998 C451.522,319.524 452.278,320.168 453.65,320.168 C454.63,320.168 455.54,319.622 456.086,319.006 L456.086,320 L456.814,320 Z M462.078,320.168 C463.198,320.168 464.052,319.776 464.724,319.076 L464.346,318.6 C463.772,319.216 462.988,319.538 462.134,319.538 C460.538,319.538 459.558,318.32 459.488,316.85 L465.144,316.85 L465.144,316.654 C465.144,314.694 464.01,313.07 461.952,313.07 C460.076,313.07 458.704,314.652 458.704,316.612 C458.704,318.698 460.104,320.168 462.078,320.168 L462.078,320.168 Z M464.402,316.276 L459.488,316.276 C459.544,315.1 460.342,313.7 461.938,313.7 C463.632,313.7 464.388,315.128 464.402,316.276 L464.402,316.276 Z M467.986,319.804 C467.986,319.23 467.65,318.908 467.272,318.908 C466.936,318.908 466.67,319.188 466.67,319.51 C466.67,319.846 466.908,320.098 467.244,320.098 C467.286,320.098 467.384,320.084 467.384,320.084 C467.356,320.518 467.02,321.064 466.572,321.372 L466.978,321.708 C467.524,321.33 467.986,320.588 467.986,319.804 L467.986,319.804 Z M339.06,340.168 C341.58,340.168 342.378,338.726 342.378,337.522 C342.378,334.036 336.778,335.352 336.778,332.958 C336.778,331.95 337.716,331.236 338.962,331.236 C340.012,331.236 340.964,331.6 341.636,332.412 L342.168,331.824 C341.454,330.998 340.39,330.508 339.004,330.508 C337.31,330.508 335.938,331.474 335.938,333 C335.938,336.262 341.538,334.834 341.538,337.578 C341.538,338.376 340.992,339.44 339.088,339.44 C337.744,339.44 336.764,338.768 336.162,338.082 L335.644,338.684 C336.358,339.538 337.52,340.168 339.06,340.168 L339.06,340.168 Z M349.294,340 L349.294,335.24 C349.294,333.728 348.202,333.07 346.83,333.07 C345.71,333.07 344.926,333.448 344.226,334.204 L344.632,334.708 C345.248,334.008 345.906,333.714 346.76,333.714 C347.754,333.714 348.566,334.26 348.566,335.268 L348.566,336.64 C347.978,335.982 347.208,335.674 346.27,335.674 C345.094,335.674 343.904,336.444 343.904,337.914 C343.904,339.37 345.108,340.168 346.27,340.168 C347.208,340.168 347.964,339.86 348.566,339.202 L348.566,340 L349.294,340 Z M346.522,339.594 C345.416,339.594 344.674,338.88 344.674,337.928 C344.674,336.962 345.416,336.248 346.522,336.248 C347.334,336.248 348.09,336.556 348.566,337.186 L348.566,338.67 C348.09,339.286 347.334,339.594 346.522,339.594 L346.522,339.594 Z M356.854,340 L356.854,335.268 C356.854,333.742 356.098,333.07 354.726,333.07 C353.746,333.07 352.78,333.672 352.29,334.26 L352.29,333.238 L351.562,333.238 L351.562,340 L352.29,340 L352.29,334.89 C352.724,334.274 353.62,333.728 354.488,333.728 C355.468,333.728 356.126,334.12 356.126,335.422 L356.126,340 L356.854,340 Z M364.204,340.168 C365.758,340.168 367.032,339.244 367.032,337.298 L367.032,330.662 L366.234,330.662 L366.234,337.298 C366.234,338.558 365.436,339.44 364.162,339.44 C363.294,339.44 362.72,338.964 362.3,338.404 L361.81,339.02 C362.426,339.818 363.196,340.168 364.204,340.168 L364.204,340.168 Z M372.184,340.168 C374.186,340.168 375.446,338.586 375.446,336.612 C375.446,334.638 374.186,333.07 372.184,333.07 C370.21,333.07 368.95,334.638 368.95,336.612 C368.95,338.586 370.21,340.168 372.184,340.168 L372.184,340.168 Z M372.184,339.51 C370.616,339.51 369.72,338.124 369.72,336.612 C369.72,335.114 370.616,333.728 372.184,333.728 C373.78,333.728 374.662,335.114 374.662,336.612 C374.662,338.124 373.78,339.51 372.184,339.51 L372.184,339.51 Z M379.338,340.168 C381.032,340.168 381.872,339.272 381.872,338.18 C381.872,335.576 377.616,336.612 377.616,334.918 C377.616,334.218 378.246,333.686 379.296,333.686 C380.192,333.686 380.92,334.05 381.312,334.582 L381.718,334.064 C381.228,333.518 380.458,333.07 379.296,333.07 C377.77,333.07 376.888,333.91 376.888,334.946 C376.888,337.382 381.158,336.332 381.158,338.18 C381.158,338.964 380.486,339.552 379.352,339.552 C378.4,339.552 377.602,339.104 377.168,338.558 L376.734,339.09 C377.406,339.846 378.246,340.168 379.338,340.168 L379.338,340.168 Z M386.744,340.168 C387.864,340.168 388.718,339.776 389.39,339.076 L389.012,338.6 C388.438,339.216 387.654,339.538 386.8,339.538 C385.204,339.538 384.224,338.32 384.154,336.85 L389.81,336.85 L389.81,336.654 C389.81,334.694 388.676,333.07 386.618,333.07 C384.742,333.07 383.37,334.652 383.37,336.612 C383.37,338.698 384.77,340.168 386.744,340.168 L386.744,340.168 Z M389.068,336.276 L384.154,336.276 C384.21,335.1 385.008,333.7 386.604,333.7 C388.298,333.7 389.054,335.128 389.068,336.276 L389.068,336.276 Z M392.652,339.804 C392.652,339.23 392.316,338.908 391.938,338.908 C391.602,338.908 391.336,339.188 391.336,339.51 C391.336,339.846 391.574,340.098 391.91,340.098 C391.952,340.098 392.05,340.084 392.05,340.084 C392.022,340.518 391.686,341.064 391.238,341.372 L391.644,341.708 C392.19,341.33 392.652,340.588 392.652,339.804 L392.652,339.804 Z M402.662,340.168 C404.146,340.168 405.238,339.524 406.078,338.502 L405.392,338.082 C404.804,338.894 403.782,339.44 402.662,339.44 C400.478,339.44 398.77,337.746 398.77,335.338 C398.77,332.902 400.478,331.236 402.662,331.236 C403.782,331.236 404.804,331.782 405.392,332.594 L406.064,332.16 C405.28,331.166 404.146,330.508 402.662,330.508 C400.016,330.508 397.93,332.468 397.93,335.338 C397.93,338.208 400.016,340.168 402.662,340.168 L402.662,340.168 Z M415.332,340 L411.51,330.662 L410.516,330.662 L406.694,340 L407.618,340 L408.542,337.704 L413.484,337.704 L414.408,340 L415.332,340 Z M413.218,336.976 L408.808,336.976 L411.02,331.516 L413.218,336.976 Z M422.962,340.154 C425.538,340.154 426.532,337.732 426.532,335.338 C426.532,332.832 425.622,330.508 423.102,330.508 C421.114,330.508 419.966,331.964 419.966,333.49 C419.966,335.478 421.296,336.444 422.976,336.444 C424.25,336.444 425.328,335.534 425.72,334.89 L425.72,335.324 C425.72,337.284 425.02,339.426 422.962,339.426 C421.94,339.426 421.38,338.992 420.918,338.39 L420.442,338.964 C421.002,339.664 421.744,340.154 422.962,340.154 L422.962,340.154 Z M423.116,335.73 C421.786,335.73 420.778,335.002 420.778,333.476 C420.778,332.468 421.534,331.236 423.13,331.236 C424.894,331.236 425.552,332.86 425.664,334.134 C425.132,335.072 424.138,335.73 423.116,335.73 L423.116,335.73 Z M431.53,340.168 C433.252,340.168 434.68,339.02 434.68,337.158 C434.68,335.212 433.266,334.176 431.698,334.176 C430.732,334.176 429.934,334.596 429.472,335.044 L429.472,331.39 L434.064,331.39 L434.064,330.662 L428.674,330.662 L428.674,335.562 L429.276,335.814 C429.962,335.184 430.69,334.904 431.544,334.904 C432.888,334.904 433.868,335.772 433.868,337.186 C433.868,338.46 432.888,339.44 431.53,339.44 C430.326,339.44 429.514,338.964 428.912,338.11 L428.38,338.642 C429.024,339.566 429.976,340.168 431.53,340.168 L431.53,340.168 Z M438.642,340 L438.642,330.662 L437.914,330.662 L435.856,332.832 L436.346,333.35 L437.844,331.754 L437.844,340 L438.642,340 Z M446.748,340 L446.748,339.272 L441.834,339.272 C444.536,337.088 446.706,335.212 446.706,333.154 C446.706,331.306 445.138,330.522 443.766,330.522 C442.45,330.522 441.316,331.068 440.658,331.964 L441.204,332.468 C441.708,331.754 442.604,331.25 443.766,331.25 C444.788,331.25 445.894,331.81 445.894,333.154 C445.894,334.96 443.766,336.78 440.588,339.342 L440.588,340 L446.748,340 Z M454.896,340 L454.896,339.272 L449.982,339.272 C452.684,337.088 454.854,335.212 454.854,333.154 C454.854,331.306 453.286,330.522 451.914,330.522 C450.598,330.522 449.464,331.068 448.806,331.964 L449.352,332.468 C449.856,331.754 450.752,331.25 451.914,331.25 C452.936,331.25 454.042,331.81 454.042,333.154 C454.042,334.96 451.914,336.78 448.736,339.342 L448.736,340 L454.896,340 Z" id="SHIPPED-TO" sketch:type="MSShapeGroup"></path>
        </g>
    </g>
</svg>