<?xml version="1.0" encoding="UTF-8" standalone="no"?>
<svg width="702px" height="173px" viewBox="0 0 702 173" version="1.1" xmlns="http://www.w3.org/2000/svg" xmlns:xlink="http://www.w3.org/1999/xlink" xmlns:sketch="http://www.bohemiancoding.com/sketch/ns">
    <!-- Generator: Sketch 3.4.2 (15855) - http://www.bohemiancoding.com/sketch -->
    <title>Group</title>
    <desc>Created with Sketch.</desc>
    <defs></defs>
    <g id="Page-1" stroke="none" stroke-width="1" fill="none" fill-rule="evenodd" sketch:type="MSPage">
        <g id="Inclusive-simple-Copy-4" sketch:type="MSArtboardGroup" transform="translate(-42.000000, -594.000000)">
            <g id="Group" sketch:type="MSLayerGroup" transform="translate(43.000000, 593.000000)">
                <path d="M445.44,65.182 C446.91,65.182 448.156,64.552 448.982,63.628 L448.982,60.366 L444.656,60.366 L444.656,61.08 L448.184,61.08 L448.184,63.32 C447.68,63.838 446.686,64.454 445.44,64.454 C443.256,64.454 441.548,62.746 441.548,60.338 C441.548,57.902 443.256,56.236 445.44,56.236 C446.63,56.236 447.694,56.754 448.352,57.538 L448.954,57.104 C448.1,56.124 446.98,55.508 445.44,55.508 C442.808,55.508 440.708,57.454 440.708,60.338 C440.708,63.222 442.808,65.182 445.44,65.182 L445.44,65.182 Z M453.91,65.168 C456.43,65.168 457.228,63.726 457.228,62.522 C457.228,59.036 451.628,60.352 451.628,57.958 C451.628,56.95 452.566,56.236 453.812,56.236 C454.862,56.236 455.814,56.6 456.486,57.412 L457.018,56.824 C456.304,55.998 455.24,55.508 453.854,55.508 C452.16,55.508 450.788,56.474 450.788,58 C450.788,61.262 456.388,59.834 456.388,62.578 C456.388,63.376 455.842,64.44 453.938,64.44 C452.594,64.44 451.614,63.768 451.012,63.082 L450.494,63.684 C451.208,64.538 452.37,65.168 453.91,65.168 L453.91,65.168 Z M462.296,65 L462.296,56.39 L465.348,56.39 L465.348,55.662 L458.432,55.662 L458.432,56.39 L461.484,56.39 L461.484,65 L462.296,65 Z M472.404,67.45 C471.522,65.672 470.92,64.02 470.92,61.598 C470.92,59.162 471.522,57.524 472.404,55.718 L471.97,55.41 C470.766,57.23 470.094,59.344 470.094,61.598 C470.094,63.852 470.766,65.966 471.97,67.786 L472.404,67.45 Z M475.792,65 L475.792,55.662 L475.064,55.662 L473.006,57.832 L473.496,58.35 L474.994,56.754 L474.994,65 L475.792,65 Z M481.224,65.168 C483.716,65.168 484.668,62.55 484.668,60.338 C484.668,58.112 483.716,55.522 481.224,55.522 C478.704,55.522 477.766,58.112 477.766,60.338 C477.766,62.55 478.704,65.168 481.224,65.168 L481.224,65.168 Z M481.224,64.44 C479.25,64.44 478.606,62.256 478.606,60.338 C478.606,58.406 479.25,56.25 481.224,56.25 C483.184,56.25 483.814,58.406 483.814,60.338 C483.814,62.256 483.17,64.44 481.224,64.44 L481.224,64.44 Z M488.126,60.114 C489.428,60.114 490.324,59.134 490.324,57.832 C490.324,56.516 489.428,55.522 488.126,55.522 C486.838,55.522 485.942,56.516 485.942,57.832 C485.942,59.134 486.838,60.114 488.126,60.114 L488.126,60.114 Z M487.888,65 L493.866,55.662 L493.222,55.662 L487.258,65 L487.888,65 Z M492.886,65.168 C494.174,65.168 495.084,64.188 495.084,62.886 C495.084,61.57 494.174,60.576 492.886,60.576 C491.598,60.576 490.688,61.57 490.688,62.886 C490.688,64.188 491.598,65.168 492.886,65.168 L492.886,65.168 Z M488.126,59.568 C487.216,59.568 486.586,58.77 486.586,57.832 C486.586,56.852 487.216,56.068 488.126,56.068 C489.05,56.068 489.68,56.852 489.68,57.832 C489.68,58.77 489.05,59.568 488.126,59.568 L488.126,59.568 Z M492.886,64.622 C491.962,64.622 491.332,63.838 491.332,62.886 C491.332,61.92 491.962,61.122 492.886,61.122 C493.81,61.122 494.426,61.92 494.426,62.886 C494.426,63.838 493.81,64.622 492.886,64.622 L492.886,64.622 Z M495.784,67.45 C496.666,65.672 497.268,64.02 497.268,61.598 C497.268,59.162 496.666,57.524 495.784,55.718 L496.218,55.41 C497.422,57.23 498.094,59.344 498.094,61.598 C498.094,63.852 497.422,65.966 496.218,67.786 L495.784,67.45 Z M503.848,57.174 C504.156,57.174 504.408,56.922 504.408,56.614 C504.408,56.306 504.156,56.068 503.848,56.068 C503.554,56.068 503.288,56.306 503.288,56.614 C503.288,56.922 503.554,57.174 503.848,57.174 L503.848,57.174 Z M504.212,65 L504.212,58.238 L503.484,58.238 L503.484,65 L504.212,65 Z M511.772,65 L511.772,60.268 C511.772,58.742 511.016,58.07 509.644,58.07 C508.664,58.07 507.698,58.672 507.208,59.26 L507.208,58.238 L506.48,58.238 L506.48,65 L507.208,65 L507.208,59.89 C507.642,59.274 508.538,58.728 509.406,58.728 C510.386,58.728 511.044,59.12 511.044,60.422 L511.044,65 L511.772,65 Z M516.938,65.168 C518.114,65.168 518.786,64.706 519.332,64.006 L518.828,63.558 C518.338,64.23 517.722,64.51 516.98,64.51 C515.398,64.51 514.432,63.236 514.432,61.612 C514.432,59.988 515.398,58.728 516.98,58.728 C517.722,58.728 518.338,58.994 518.828,59.666 L519.332,59.218 C518.786,58.532 518.114,58.07 516.938,58.07 C514.95,58.07 513.662,59.638 513.662,61.612 C513.662,63.586 514.95,65.168 516.938,65.168 L516.938,65.168 Z M521.684,65 L521.684,55.662 L520.956,55.662 L520.956,65 L521.684,65 Z M524.358,65.126 C524.694,65.126 524.974,64.846 524.974,64.51 C524.974,64.188 524.694,63.908 524.358,63.908 C524.022,63.908 523.728,64.188 523.728,64.51 C523.728,64.846 524.022,65.126 524.358,65.126 L524.358,65.126 Z M531.008,57.174 C531.316,57.174 531.568,56.922 531.568,56.614 C531.568,56.306 531.316,56.068 531.008,56.068 C530.714,56.068 530.448,56.306 530.448,56.614 C530.448,56.922 530.714,57.174 531.008,57.174 L531.008,57.174 Z M531.372,65 L531.372,58.238 L530.644,58.238 L530.644,65 L531.372,65 Z M538.932,65 L538.932,60.268 C538.932,58.742 538.176,58.07 536.804,58.07 C535.824,58.07 534.858,58.672 534.368,59.26 L534.368,58.238 L533.64,58.238 L533.64,65 L534.368,65 L534.368,59.89 C534.802,59.274 535.698,58.728 536.566,58.728 C537.546,58.728 538.204,59.12 538.204,60.422 L538.204,65 L538.932,65 Z M548.046,65 L548.046,56.39 L551.098,56.39 L551.098,55.662 L544.182,55.662 L544.182,56.39 L547.234,56.39 L547.234,65 L548.046,65 Z M553.856,65.168 C555.858,65.168 557.118,63.586 557.118,61.612 C557.118,59.638 555.858,58.07 553.856,58.07 C551.882,58.07 550.622,59.638 550.622,61.612 C550.622,63.586 551.882,65.168 553.856,65.168 L553.856,65.168 Z M553.856,64.51 C552.288,64.51 551.392,63.124 551.392,61.612 C551.392,60.114 552.288,58.728 553.856,58.728 C555.452,58.728 556.334,60.114 556.334,61.612 C556.334,63.124 555.452,64.51 553.856,64.51 L553.856,64.51 Z M560.464,65.168 C561.024,65.168 561.346,65 561.612,64.748 L561.332,64.188 C561.178,64.356 560.898,64.51 560.576,64.51 C560.1,64.51 559.876,64.132 559.876,63.586 L559.876,58.882 L561.248,58.882 L561.248,58.238 L559.876,58.238 L559.876,56.39 L559.134,56.39 L559.134,58.238 L558.014,58.238 L558.014,58.882 L559.134,58.882 L559.134,63.698 C559.134,64.622 559.568,65.168 560.464,65.168 L560.464,65.168 Z M567.87,65 L567.87,60.24 C567.87,58.728 566.778,58.07 565.406,58.07 C564.286,58.07 563.502,58.448 562.802,59.204 L563.208,59.708 C563.824,59.008 564.482,58.714 565.336,58.714 C566.33,58.714 567.142,59.26 567.142,60.268 L567.142,61.64 C566.554,60.982 565.784,60.674 564.846,60.674 C563.67,60.674 562.48,61.444 562.48,62.914 C562.48,64.37 563.684,65.168 564.846,65.168 C565.784,65.168 566.54,64.86 567.142,64.202 L567.142,65 L567.87,65 Z M565.098,64.594 C563.992,64.594 563.25,63.88 563.25,62.928 C563.25,61.962 563.992,61.248 565.098,61.248 C565.91,61.248 566.666,61.556 567.142,62.186 L567.142,63.67 C566.666,64.286 565.91,64.594 565.098,64.594 L565.098,64.594 Z M570.866,65 L570.866,55.662 L570.138,55.662 L570.138,65 L570.866,65 Z" id="GST-(10%)-incl.-in-T" fill="#2F2F2F" sketch:type="MSShapeGroup"></path>
                <path d="M668.158,66.4 L668.802,66.4 L668.802,65.154 C671.014,65.014 671.742,63.67 671.742,62.522 C671.742,60.73 670.244,60.198 668.802,59.792 L668.802,56.264 C669.656,56.362 670.426,56.726 671,57.412 L671.532,56.824 C670.888,56.096 669.978,55.62 668.802,55.522 L668.802,54.248 L668.158,54.248 L668.158,55.522 C666.562,55.592 665.302,56.544 665.302,58 C665.302,59.652 666.73,60.1 668.158,60.506 L668.158,64.426 C666.968,64.342 666.086,63.726 665.526,63.082 L665.008,63.684 C665.68,64.496 666.744,65.084 668.158,65.154 L668.158,66.4 Z M670.902,62.578 C670.902,63.334 670.412,64.3 668.802,64.426 L668.802,60.688 C669.936,61.024 670.902,61.444 670.902,62.578 L670.902,62.578 Z M666.142,57.958 C666.142,57.006 666.996,56.306 668.158,56.25 L668.158,59.61 C667.066,59.302 666.142,58.938 666.142,57.958 L666.142,57.958 Z M676.306,65.154 C678.882,65.154 679.876,62.732 679.876,60.338 C679.876,57.832 678.966,55.508 676.446,55.508 C674.458,55.508 673.31,56.964 673.31,58.49 C673.31,60.478 674.64,61.444 676.32,61.444 C677.594,61.444 678.672,60.534 679.064,59.89 L679.064,60.324 C679.064,62.284 678.364,64.426 676.306,64.426 C675.284,64.426 674.724,63.992 674.262,63.39 L673.786,63.964 C674.346,64.664 675.088,65.154 676.306,65.154 L676.306,65.154 Z M676.46,60.73 C675.13,60.73 674.122,60.002 674.122,58.476 C674.122,57.468 674.878,56.236 676.474,56.236 C678.238,56.236 678.896,57.86 679.008,59.134 C678.476,60.072 677.482,60.73 676.46,60.73 L676.46,60.73 Z M681.724,65.126 C682.06,65.126 682.34,64.846 682.34,64.51 C682.34,64.188 682.06,63.908 681.724,63.908 C681.388,63.908 681.094,64.188 681.094,64.51 C681.094,64.846 681.388,65.126 681.724,65.126 L681.724,65.126 Z M687.044,65.154 C689.62,65.154 690.614,62.732 690.614,60.338 C690.614,57.832 689.704,55.508 687.184,55.508 C685.196,55.508 684.048,56.964 684.048,58.49 C684.048,60.478 685.378,61.444 687.058,61.444 C688.332,61.444 689.41,60.534 689.802,59.89 L689.802,60.324 C689.802,62.284 689.102,64.426 687.044,64.426 C686.022,64.426 685.462,63.992 685,63.39 L684.524,63.964 C685.084,64.664 685.826,65.154 687.044,65.154 L687.044,65.154 Z M687.198,60.73 C685.868,60.73 684.86,60.002 684.86,58.476 C684.86,57.468 685.616,56.236 687.212,56.236 C688.976,56.236 689.634,57.86 689.746,59.134 C689.214,60.072 688.22,60.73 687.198,60.73 L687.198,60.73 Z M697.138,65 L697.138,62.452 L698.51,62.452 L698.51,61.724 L697.138,61.724 L697.138,55.662 L696.06,55.662 L691.916,61.738 L691.916,62.452 L696.34,62.452 L696.34,65 L697.138,65 Z M696.34,61.724 L692.742,61.724 L696.34,56.46 L696.34,61.724 Z" id="$9.94" fill="#2F2F2F" sketch:type="MSShapeGroup"></path>
                <path d="M515.398,102 L515.398,98.122 L518.1,98.122 C519.878,98.122 520.914,96.862 520.914,95.392 C520.914,93.922 519.892,92.662 518.1,92.662 L514.6,92.662 L514.6,102 L515.398,102 Z M518.016,97.394 L515.398,97.394 L515.398,93.39 L518.016,93.39 C519.262,93.39 520.074,94.216 520.074,95.392 C520.074,96.554 519.262,97.394 518.016,97.394 L518.016,97.394 Z M527.312,102 L527.312,97.24 C527.312,95.728 526.22,95.07 524.848,95.07 C523.728,95.07 522.944,95.448 522.244,96.204 L522.65,96.708 C523.266,96.008 523.924,95.714 524.778,95.714 C525.772,95.714 526.584,96.26 526.584,97.268 L526.584,98.64 C525.996,97.982 525.226,97.674 524.288,97.674 C523.112,97.674 521.922,98.444 521.922,99.914 C521.922,101.37 523.126,102.168 524.288,102.168 C525.226,102.168 525.982,101.86 526.584,101.202 L526.584,102 L527.312,102 Z M524.54,101.594 C523.434,101.594 522.692,100.88 522.692,99.928 C522.692,98.962 523.434,98.248 524.54,98.248 C525.352,98.248 526.108,98.556 526.584,99.186 L526.584,100.67 C526.108,101.286 525.352,101.594 524.54,101.594 L524.54,101.594 Z M529.132,104.646 C529.314,104.702 529.622,104.744 529.86,104.744 C530.644,104.744 531.218,104.338 531.582,103.484 L535.082,95.238 L534.256,95.238 L531.82,101.146 L529.356,95.238 L528.544,95.238 L531.414,102.056 L530.882,103.26 C530.602,103.904 530.294,104.086 529.846,104.086 C529.678,104.086 529.412,104.044 529.258,103.974 L529.132,104.646 Z M545.092,102 L545.092,97.128 C545.092,95.77 544.49,95.07 543.244,95.07 C542.292,95.07 541.382,95.714 541.004,96.344 C540.836,95.686 540.276,95.07 539.226,95.07 C538.246,95.07 537.322,95.826 537.042,96.26 L537.042,95.238 L536.314,95.238 L536.314,102 L537.042,102 L537.042,96.89 C537.448,96.274 538.26,95.728 538.988,95.728 C539.94,95.728 540.332,96.316 540.332,97.268 L540.332,102 L541.074,102 L541.074,96.876 C541.452,96.26 542.278,95.728 543.006,95.728 C543.958,95.728 544.364,96.316 544.364,97.268 L544.364,102 L545.092,102 Z M550.356,102.168 C551.476,102.168 552.33,101.776 553.002,101.076 L552.624,100.6 C552.05,101.216 551.266,101.538 550.412,101.538 C548.816,101.538 547.836,100.32 547.766,98.85 L553.422,98.85 L553.422,98.654 C553.422,96.694 552.288,95.07 550.23,95.07 C548.354,95.07 546.982,96.652 546.982,98.612 C546.982,100.698 548.382,102.168 550.356,102.168 L550.356,102.168 Z M552.68,98.276 L547.766,98.276 C547.822,97.1 548.62,95.7 550.216,95.7 C551.91,95.7 552.666,97.128 552.68,98.276 L552.68,98.276 Z M560.59,102 L560.59,97.268 C560.59,95.742 559.834,95.07 558.462,95.07 C557.482,95.07 556.516,95.672 556.026,96.26 L556.026,95.238 L555.298,95.238 L555.298,102 L556.026,102 L556.026,96.89 C556.46,96.274 557.356,95.728 558.224,95.728 C559.204,95.728 559.862,96.12 559.862,97.422 L559.862,102 L560.59,102 Z M564.328,102.168 C564.888,102.168 565.21,102 565.476,101.748 L565.196,101.188 C565.042,101.356 564.762,101.51 564.44,101.51 C563.964,101.51 563.74,101.132 563.74,100.586 L563.74,95.882 L565.112,95.882 L565.112,95.238 L563.74,95.238 L563.74,93.39 L562.998,93.39 L562.998,95.238 L561.878,95.238 L561.878,95.882 L562.998,95.882 L562.998,100.698 C562.998,101.622 563.432,102.168 564.328,102.168 L564.328,102.168 Z M568.724,102.168 C570.418,102.168 571.258,101.272 571.258,100.18 C571.258,97.576 567.002,98.612 567.002,96.918 C567.002,96.218 567.632,95.686 568.682,95.686 C569.578,95.686 570.306,96.05 570.698,96.582 L571.104,96.064 C570.614,95.518 569.844,95.07 568.682,95.07 C567.156,95.07 566.274,95.91 566.274,96.946 C566.274,99.382 570.544,98.332 570.544,100.18 C570.544,100.964 569.872,101.552 568.738,101.552 C567.786,101.552 566.988,101.104 566.554,100.558 L566.12,101.09 C566.792,101.846 567.632,102.168 568.724,102.168 L568.724,102.168 Z" id="Payments" fill="#2F2F2F" sketch:type="MSShapeGroup"></path>
                <path d="M651.82,104.45 C650.938,102.672 650.336,101.02 650.336,98.598 C650.336,96.162 650.938,94.524 651.82,92.718 L651.386,92.41 C650.182,94.23 649.51,96.344 649.51,98.598 C649.51,100.852 650.182,102.966 651.386,104.786 L651.82,104.45 Z M655.88,103.4 L656.524,103.4 L656.524,102.154 C658.736,102.014 659.464,100.67 659.464,99.522 C659.464,97.73 657.966,97.198 656.524,96.792 L656.524,93.264 C657.378,93.362 658.148,93.726 658.722,94.412 L659.254,93.824 C658.61,93.096 657.7,92.62 656.524,92.522 L656.524,91.248 L655.88,91.248 L655.88,92.522 C654.284,92.592 653.024,93.544 653.024,95 C653.024,96.652 654.452,97.1 655.88,97.506 L655.88,101.426 C654.69,101.342 653.808,100.726 653.248,100.082 L652.73,100.684 C653.402,101.496 654.466,102.084 655.88,102.154 L655.88,103.4 Z M658.624,99.578 C658.624,100.334 658.134,101.3 656.524,101.426 L656.524,97.688 C657.658,98.024 658.624,98.444 658.624,99.578 L658.624,99.578 Z M653.864,94.958 C653.864,94.006 654.718,93.306 655.88,93.25 L655.88,96.61 C654.788,96.302 653.864,95.938 653.864,94.958 L653.864,94.958 Z M663.384,102 L663.384,92.662 L662.656,92.662 L660.598,94.832 L661.088,95.35 L662.586,93.754 L662.586,102 L663.384,102 Z M671.49,102 L671.49,101.272 L666.576,101.272 C669.278,99.088 671.448,97.212 671.448,95.154 C671.448,93.306 669.88,92.522 668.508,92.522 C667.192,92.522 666.058,93.068 665.4,93.964 L665.946,94.468 C666.45,93.754 667.346,93.25 668.508,93.25 C669.53,93.25 670.636,93.81 670.636,95.154 C670.636,96.96 668.508,98.78 665.33,101.342 L665.33,102 L671.49,102 Z M675.844,102 L675.844,92.662 L675.116,92.662 L673.058,94.832 L673.548,95.35 L675.046,93.754 L675.046,102 L675.844,102 Z M678.546,102.126 C678.882,102.126 679.162,101.846 679.162,101.51 C679.162,101.188 678.882,100.908 678.546,100.908 C678.21,100.908 677.916,101.188 677.916,101.51 C677.916,101.846 678.21,102.126 678.546,102.126 L678.546,102.126 Z M683.866,102.154 C686.442,102.154 687.436,99.732 687.436,97.338 C687.436,94.832 686.526,92.508 684.006,92.508 C682.018,92.508 680.87,93.964 680.87,95.49 C680.87,97.478 682.2,98.444 683.88,98.444 C685.154,98.444 686.232,97.534 686.624,96.89 L686.624,97.324 C686.624,99.284 685.924,101.426 683.866,101.426 C682.844,101.426 682.284,100.992 681.822,100.39 L681.346,100.964 C681.906,101.664 682.648,102.154 683.866,102.154 L683.866,102.154 Z M684.02,97.73 C682.69,97.73 681.682,97.002 681.682,95.476 C681.682,94.468 682.438,93.236 684.034,93.236 C685.798,93.236 686.456,94.86 686.568,96.134 C686.036,97.072 685.042,97.73 684.02,97.73 L684.02,97.73 Z M693.96,102 L693.96,99.452 L695.332,99.452 L695.332,98.724 L693.96,98.724 L693.96,92.662 L692.882,92.662 L688.738,98.738 L688.738,99.452 L693.162,99.452 L693.162,102 L693.96,102 Z M693.162,98.724 L689.564,98.724 L693.162,93.46 L693.162,98.724 Z M696.06,104.45 C696.942,102.672 697.544,101.02 697.544,98.598 C697.544,96.162 696.942,94.524 696.06,92.718 L696.494,92.41 C697.698,94.23 698.37,96.344 698.37,98.598 C698.37,100.852 697.698,102.966 696.494,104.786 L696.06,104.45 Z" id="($121.94)" fill="#2F2F2F" sketch:type="MSShapeGroup"></path>
                <path d="M478.66,149 L473.2,135.66 L471.78,135.66 L466.32,149 L467.64,149 L468.96,145.72 L476.02,145.72 L477.34,149 L478.66,149 Z M475.64,144.68 L469.34,144.68 L472.5,136.88 L475.64,144.68 Z M493.12,149 L493.12,142.04 C493.12,140.1 492.26,139.1 490.48,139.1 C489.12,139.1 487.82,140.02 487.28,140.92 C487.04,139.98 486.24,139.1 484.74,139.1 C483.34,139.1 482.02,140.18 481.62,140.8 L481.62,139.34 L480.58,139.34 L480.58,149 L481.62,149 L481.62,141.7 C482.2,140.82 483.36,140.04 484.4,140.04 C485.76,140.04 486.32,140.88 486.32,142.24 L486.32,149 L487.38,149 L487.38,141.68 C487.92,140.8 489.1,140.04 490.14,140.04 C491.5,140.04 492.08,140.88 492.08,142.24 L492.08,149 L493.12,149 Z M500.44,149.24 C503.3,149.24 505.1,146.98 505.1,144.16 C505.1,141.34 503.3,139.1 500.44,139.1 C497.62,139.1 495.82,141.34 495.82,144.16 C495.82,146.98 497.62,149.24 500.44,149.24 L500.44,149.24 Z M500.44,148.3 C498.2,148.3 496.92,146.32 496.92,144.16 C496.92,142.02 498.2,140.04 500.44,140.04 C502.72,140.04 503.98,142.02 503.98,144.16 C503.98,146.32 502.72,148.3 500.44,148.3 L500.44,148.3 Z M515.34,149 L515.34,139.34 L514.3,139.34 L514.3,146.7 C513.66,147.56 512.4,148.3 511.16,148.3 C509.76,148.3 508.82,147.78 508.82,145.9 L508.82,139.34 L507.78,139.34 L507.78,146.14 C507.78,148.32 508.86,149.24 510.82,149.24 C512.22,149.24 513.52,148.46 514.3,147.58 L514.3,149 L515.34,149 Z M526.14,149 L526.14,142.24 C526.14,140.06 525.06,139.1 523.1,139.1 C521.7,139.1 520.32,139.96 519.62,140.8 L519.62,139.34 L518.58,139.34 L518.58,149 L519.62,149 L519.62,141.7 C520.24,140.82 521.52,140.04 522.76,140.04 C524.16,140.04 525.1,140.6 525.1,142.46 L525.1,149 L526.14,149 Z M531.48,149.24 C532.28,149.24 532.74,149 533.12,148.64 L532.72,147.84 C532.5,148.08 532.1,148.3 531.64,148.3 C530.96,148.3 530.64,147.76 530.64,146.98 L530.64,140.26 L532.6,140.26 L532.6,139.34 L530.64,139.34 L530.64,136.7 L529.58,136.7 L529.58,139.34 L527.98,139.34 L527.98,140.26 L529.58,140.26 L529.58,147.14 C529.58,148.46 530.2,149.24 531.48,149.24 L531.48,149.24 Z M548.24,149 L548.24,135.66 L547.18,135.66 L547.18,140.9 C546.42,139.8 545.2,139.1 543.82,139.1 C541.26,139.1 539.52,141.12 539.52,144.18 C539.52,147.28 541.26,149.24 543.82,149.24 C545.26,149.24 546.5,148.46 547.18,147.46 L547.18,149 L548.24,149 Z M544,148.3 C541.86,148.3 540.62,146.52 540.62,144.18 C540.62,141.84 541.86,140.04 544,140.04 C545.36,140.04 546.62,140.86 547.18,141.8 L547.18,146.58 C546.62,147.5 545.36,148.3 544,148.3 L544,148.3 Z M559.04,149 L559.04,139.34 L558,139.34 L558,146.7 C557.36,147.56 556.1,148.3 554.86,148.3 C553.46,148.3 552.52,147.78 552.52,145.9 L552.52,139.34 L551.48,139.34 L551.48,146.14 C551.48,148.32 552.56,149.24 554.52,149.24 C555.92,149.24 557.22,148.46 558,147.58 L558,149 L559.04,149 Z M566.56,149.24 C568.16,149.24 569.38,148.68 570.34,147.68 L569.8,147 C568.98,147.88 567.86,148.34 566.64,148.34 C564.36,148.34 562.96,146.6 562.86,144.5 L570.94,144.5 L570.94,144.22 C570.94,141.42 569.32,139.1 566.38,139.1 C563.7,139.1 561.74,141.36 561.74,144.16 C561.74,147.14 563.74,149.24 566.56,149.24 L566.56,149.24 Z M569.88,143.68 L562.86,143.68 C562.94,142 564.08,140 566.36,140 C568.78,140 569.86,142.04 569.88,143.68 L569.88,143.68 Z" id="Amount-due" fill="#2F2F2F" sketch:type="MSShapeGroup"></path>
                <path d="M490.224,31 L490.224,23.104 L493.052,23.104 L493.052,21.662 L485.758,21.662 L485.758,23.104 L488.586,23.104 L488.586,31 L490.224,31 Z M495.992,31.168 C498.148,31.168 499.464,29.544 499.464,27.612 C499.464,25.666 498.148,24.07 495.992,24.07 C493.836,24.07 492.52,25.666 492.52,27.612 C492.52,29.544 493.836,31.168 495.992,31.168 L495.992,31.168 Z M495.992,29.866 C494.746,29.866 494.046,28.816 494.046,27.612 C494.046,26.422 494.746,25.372 495.992,25.372 C497.252,25.372 497.938,26.422 497.938,27.612 C497.938,28.816 497.252,29.866 495.992,29.866 L495.992,29.866 Z M503.006,31.168 C503.678,31.168 504.112,30.972 504.378,30.734 L504.028,29.614 C503.916,29.74 503.664,29.866 503.384,29.866 C502.964,29.866 502.74,29.516 502.74,29.054 L502.74,25.512 L504.112,25.512 L504.112,24.238 L502.74,24.238 L502.74,22.39 L501.27,22.39 L501.27,24.238 L500.15,24.238 L500.15,25.512 L501.27,25.512 L501.27,29.418 C501.27,30.552 501.858,31.168 503.006,31.168 L503.006,31.168 Z M511.042,31 L511.042,26.506 C511.042,24.7 509.726,24.07 508.214,24.07 C507.136,24.07 506.156,24.406 505.372,25.162 L505.988,26.184 C506.562,25.596 507.234,25.316 507.99,25.316 C508.914,25.316 509.572,25.792 509.572,26.576 L509.572,27.584 C509.068,27.01 508.298,26.716 507.374,26.716 C506.268,26.716 505.036,27.36 505.036,28.928 C505.036,30.412 506.282,31.168 507.374,31.168 C508.27,31.168 509.068,30.846 509.572,30.258 L509.572,31 L511.042,31 Z M507.962,30.16 C507.136,30.16 506.506,29.684 506.506,28.942 C506.506,28.214 507.136,27.724 507.962,27.724 C508.592,27.724 509.222,27.962 509.572,28.424 L509.572,29.46 C509.222,29.922 508.592,30.16 507.962,30.16 L507.962,30.16 Z M514.416,31 L514.416,21.662 L512.946,21.662 L512.946,31 L514.416,31 Z M520.674,23.412 C521.178,23.412 521.584,23.006 521.584,22.502 C521.584,21.998 521.178,21.592 520.674,21.592 C520.17,21.592 519.764,21.998 519.764,22.502 C519.764,23.006 520.17,23.412 520.674,23.412 L520.674,23.412 Z M521.402,31 L521.402,24.238 L519.932,24.238 L519.932,31 L521.402,31 Z M529.354,31 L529.354,26.24 C529.354,24.854 528.626,24.07 527.17,24.07 C526.106,24.07 525.224,24.616 524.776,25.148 L524.776,24.238 L523.306,24.238 L523.306,31 L524.776,31 L524.776,26.268 C525.126,25.82 525.77,25.372 526.512,25.372 C527.338,25.372 527.884,25.708 527.884,26.772 L527.884,31 L529.354,31 Z M534.338,31.168 C535.668,31.168 536.452,30.594 536.928,29.964 L535.962,29.054 C535.584,29.586 535.066,29.866 534.408,29.866 C533.19,29.866 532.364,28.928 532.364,27.612 C532.364,26.296 533.19,25.372 534.408,25.372 C535.066,25.372 535.584,25.624 535.962,26.156 L536.928,25.274 C536.452,24.63 535.668,24.07 534.338,24.07 C532.294,24.07 530.852,25.568 530.852,27.612 C530.852,29.656 532.294,31.168 534.338,31.168 L534.338,31.168 Z M539.7,31 L539.7,21.662 L538.23,21.662 L538.23,31 L539.7,31 Z M542.374,31.154 C542.906,31.154 543.354,30.692 543.354,30.16 C543.354,29.642 542.906,29.194 542.374,29.194 C541.842,29.194 541.394,29.642 541.394,30.16 C541.394,30.692 541.842,31.154 542.374,31.154 L542.374,31.154 Z M553.196,31.182 C554.806,31.182 556.122,30.496 557.032,29.474 L557.032,25.988 L552.608,25.988 L552.608,27.43 L555.408,27.43 L555.408,28.872 C554.988,29.278 554.148,29.712 553.196,29.712 C551.348,29.712 549.976,28.284 549.976,26.338 C549.976,24.364 551.348,22.964 553.196,22.964 C554.232,22.964 555.114,23.51 555.618,24.21 L556.948,23.44 C556.206,22.376 555.016,21.508 553.196,21.508 C550.48,21.508 548.296,23.398 548.296,26.338 C548.296,29.264 550.48,31.182 553.196,31.182 L553.196,31.182 Z M561.946,31.168 C564.452,31.168 565.558,29.824 565.558,28.27 C565.558,24.798 560.126,25.876 560.126,24.126 C560.126,23.44 560.742,22.964 561.694,22.964 C562.674,22.964 563.668,23.3 564.41,24.042 L565.334,22.824 C564.48,21.984 563.29,21.508 561.848,21.508 C559.79,21.508 558.446,22.698 558.446,24.252 C558.446,27.682 563.878,26.464 563.878,28.424 C563.878,29.054 563.36,29.712 562.016,29.712 C560.714,29.712 559.692,29.096 559.062,28.41 L558.138,29.684 C558.978,30.552 560.224,31.168 561.946,31.168 L561.946,31.168 Z M570.78,31 L570.78,23.104 L573.608,23.104 L573.608,21.662 L566.314,21.662 L566.314,23.104 L569.142,23.104 L569.142,31 L570.78,31 Z" id="Total-incl.-GST" fill="#2F2F2F" sketch:type="MSShapeGroup"></path>
                <path d="M656.848,32.4 L657.968,32.4 L657.968,31.14 C660.068,30.958 661.006,29.698 661.006,28.27 C661.006,26.394 659.424,25.848 657.968,25.47 L657.968,23.048 C658.654,23.188 659.326,23.51 659.858,24.042 L660.782,22.824 C660.054,22.124 659.102,21.676 657.968,21.55 L657.968,20.248 L656.848,20.248 L656.848,21.536 C655.042,21.69 653.894,22.824 653.894,24.252 C653.894,26.072 655.406,26.59 656.848,26.954 L656.848,29.67 C655.84,29.516 655.028,28.984 654.51,28.41 L653.586,29.684 C654.328,30.454 655.406,31.028 656.848,31.14 L656.848,32.4 Z M659.326,28.424 C659.326,28.97 658.934,29.544 657.968,29.684 L657.968,27.248 C658.738,27.486 659.326,27.794 659.326,28.424 L659.326,28.424 Z M655.574,24.126 C655.574,23.51 656.064,23.076 656.848,22.978 L656.848,25.176 C656.106,24.952 655.574,24.672 655.574,24.126 L655.574,24.126 Z M665.878,31 L665.878,21.662 L664.45,21.662 L661.762,24.378 L662.714,25.372 L664.24,23.776 L664.24,31 L665.878,31 Z M674.334,31 L674.334,29.558 L670.204,29.558 C672.696,27.668 674.278,26.128 674.278,24.392 C674.278,22.53 672.71,21.522 670.904,21.522 C669.588,21.522 668.272,22.012 667.446,23.02 L668.398,24.084 C669,23.412 669.826,22.978 670.918,22.978 C671.772,22.978 672.626,23.412 672.626,24.392 C672.626,25.75 671.198,26.954 667.572,29.698 L667.572,31 L674.334,31 Z M679.528,31 L679.528,21.662 L678.1,21.662 L675.412,24.378 L676.364,25.372 L677.89,23.776 L677.89,31 L679.528,31 Z M682.244,31.154 C682.776,31.154 683.224,30.692 683.224,30.16 C683.224,29.642 682.776,29.194 682.244,29.194 C681.712,29.194 681.264,29.642 681.264,30.16 C681.264,30.692 681.712,31.154 682.244,31.154 L682.244,31.154 Z M687.69,31.154 C690.392,31.154 691.806,29.026 691.806,26.324 C691.806,23.734 690.7,21.508 687.956,21.508 C685.87,21.508 684.512,22.908 684.512,24.644 C684.512,26.632 685.954,27.654 687.634,27.654 C688.74,27.654 689.72,26.982 690.14,26.352 C690.154,26.436 690.154,26.534 690.154,26.618 C690.154,28.144 689.384,29.698 687.69,29.698 C686.794,29.698 686.262,29.39 685.772,28.872 L685.002,30.118 C685.632,30.734 686.528,31.154 687.69,31.154 L687.69,31.154 Z M688.082,26.254 C687.06,26.254 686.164,25.736 686.164,24.588 C686.164,23.832 686.808,22.964 688.04,22.964 C689.482,22.964 690.028,24.14 690.126,25.148 C689.65,25.82 688.88,26.254 688.082,26.254 L688.082,26.254 Z M698.862,31 L698.862,28.886 L700.108,28.886 L700.108,27.444 L698.862,27.444 L698.862,21.662 L696.608,21.662 L692.772,27.57 L692.772,28.886 L697.224,28.886 L697.224,31 L698.862,31 Z M697.224,27.444 L694.382,27.444 L697.224,23.132 L697.224,27.444 Z" id="$121.94" fill="#2F2F2F" sketch:type="MSShapeGroup"></path>
                <path d="M651.34,151 L652.94,151 L652.94,149.2 C655.94,148.94 657.28,147.14 657.28,145.1 C657.28,142.42 655.02,141.64 652.94,141.1 L652.94,137.64 C653.92,137.84 654.88,138.3 655.64,139.06 L656.96,137.32 C655.92,136.32 654.56,135.68 652.94,135.5 L652.94,133.64 L651.34,133.64 L651.34,135.48 C648.76,135.7 647.12,137.32 647.12,139.36 C647.12,141.96 649.28,142.7 651.34,143.22 L651.34,147.1 C649.9,146.88 648.74,146.12 648,145.3 L646.68,147.12 C647.74,148.22 649.28,149.04 651.34,149.2 L651.34,151 Z M654.88,145.32 C654.88,146.1 654.32,146.92 652.94,147.12 L652.94,143.64 C654.04,143.98 654.88,144.42 654.88,145.32 L654.88,145.32 Z M649.52,139.18 C649.52,138.3 650.22,137.68 651.34,137.54 L651.34,140.68 C650.28,140.36 649.52,139.96 649.52,139.18 L649.52,139.18 Z M664.24,149.24 C667.98,149.24 669.56,145.68 669.56,142.34 C669.56,138.98 667.98,135.46 664.24,135.46 C660.48,135.46 658.9,138.98 658.9,142.34 C658.9,145.68 660.48,149.24 664.24,149.24 L664.24,149.24 Z M664.24,147.16 C662.06,147.16 661.28,144.88 661.28,142.34 C661.28,139.78 662.06,137.54 664.24,137.54 C666.42,137.54 667.18,139.78 667.18,142.34 C667.18,144.88 666.4,147.16 664.24,147.16 L664.24,147.16 Z M672.36,149.22 C673.12,149.22 673.76,148.56 673.76,147.8 C673.76,147.06 673.12,146.42 672.36,146.42 C671.6,146.42 670.96,147.06 670.96,147.8 C670.96,148.56 671.6,149.22 672.36,149.22 L672.36,149.22 Z M680.5,149.24 C684.24,149.24 685.82,145.68 685.82,142.34 C685.82,138.98 684.24,135.46 680.5,135.46 C676.74,135.46 675.16,138.98 675.16,142.34 C675.16,145.68 676.74,149.24 680.5,149.24 L680.5,149.24 Z M680.5,147.16 C678.32,147.16 677.54,144.88 677.54,142.34 C677.54,139.78 678.32,137.54 680.5,137.54 C682.68,137.54 683.44,139.78 683.44,142.34 C683.44,144.88 682.66,147.16 680.5,147.16 L680.5,147.16 Z M692.84,149.24 C696.58,149.24 698.16,145.68 698.16,142.34 C698.16,138.98 696.58,135.46 692.84,135.46 C689.08,135.46 687.5,138.98 687.5,142.34 C687.5,145.68 689.08,149.24 692.84,149.24 L692.84,149.24 Z M692.84,147.16 C690.66,147.16 689.88,144.88 689.88,142.34 C689.88,139.78 690.66,137.54 692.84,137.54 C695.02,137.54 695.78,139.78 695.78,142.34 C695.78,144.88 695,147.16 692.84,147.16 L692.84,147.16 Z" id="$0.00" fill="#2F2F2F" sketch:type="MSShapeGroup"></path>
                <path d="M0.475520196,1.5 L700.47552,1.5" id="Line-5" stroke="#979797" stroke-linecap="square" opacity="0.4" sketch:type="MSShapeGroup"></path>
                <path d="M449,118.5 L699,118.5" id="Line-5-Copy" stroke="#979797" stroke-linecap="square" opacity="0.4" sketch:type="MSShapeGroup"></path>
                <path d="M449,173.5 L699,173.5" id="Line-5-Copy-3" stroke="#979797" stroke-linecap="square" opacity="0.4" sketch:type="MSShapeGroup"></path>
            </g>
        </g>
    </g>
</svg>