<?xml version="1.0" encoding="UTF-8" standalone="no"?>
<svg width="701px" height="50px" viewBox="0 0 701 50" version="1.1" xmlns="http://www.w3.org/2000/svg" xmlns:xlink="http://www.w3.org/1999/xlink" xmlns:sketch="http://www.bohemiancoding.com/sketch/ns">
    <!-- Generator: Sketch 3.4.2 (15855) - http://www.bohemiancoding.com/sketch -->
    <title>Group</title>
    <desc>Created with Sketch.</desc>
    <defs></defs>
    <g id="Page-1" stroke="none" stroke-width="1" fill="none" fill-rule="evenodd" sketch:type="MSPage">
        <g id="Inclusive-simple-Copy-4" sketch:type="MSArtboardGroup" transform="translate(-42.000000, -434.000000)">
            <g id="Group" sketch:type="MSLayerGroup" transform="translate(42.000000, 433.000000)">
                <path d="M3.19543509,22 C5.2724679,22 6.67047076,20.63 6.67047076,18.66 C6.67047076,16.71 5.2724679,15.33 3.18544936,15.33 L0.708987161,15.33 L0.708987161,22 L3.19543509,22 Z M3.18544936,20.97 L1.87731812,20.97 L1.87731812,16.36 L3.19543509,16.36 C4.67332382,16.36 5.4721826,17.38 5.4721826,18.66 C5.4721826,19.93 4.63338088,20.97 3.18544936,20.97 L3.18544936,20.97 Z M12.3623395,22 L12.3623395,20.97 L8.96718973,20.97 L8.96718973,19.11 L12.2924394,19.11 L12.2924394,18.08 L8.96718973,18.08 L8.96718973,16.36 L12.3623395,16.36 L12.3623395,15.33 L7.79885877,15.33 L7.79885877,22 L12.3623395,22 Z M15.8473609,22.12 C17.6348074,22.12 18.4236805,21.16 18.4236805,20.05 C18.4236805,17.57 14.5492154,18.34 14.5492154,17.09 C14.5492154,16.6 14.9885877,16.26 15.6676177,16.26 C16.3666191,16.26 17.0756063,16.5 17.6048502,17.03 L18.2639087,16.16 C17.6547789,15.56 16.8059914,15.22 15.7774608,15.22 C14.3095578,15.22 13.3509272,16.07 13.3509272,17.18 C13.3509272,19.63 17.2253923,18.76 17.2253923,20.16 C17.2253923,20.61 16.8559201,21.08 15.8972896,21.08 C14.9686163,21.08 14.2396576,20.64 13.7902996,20.15 L13.1312411,21.06 C13.7303852,21.68 14.6191155,22.12 15.8473609,22.12 L15.8473609,22.12 Z M22.6975749,22.12 C24.0356633,22.12 24.8644793,21.41 25.3737518,20.61 L24.3751783,20.11 C24.0556348,20.66 23.4065621,21.08 22.6975749,21.08 C21.3794579,21.08 20.4008559,20.06 20.4008559,18.67 C20.4008559,17.26 21.3794579,16.26 22.6975749,16.26 C23.4065621,16.26 24.0556348,16.67 24.3751783,17.23 L25.363766,16.71 C24.874465,15.91 24.0356633,15.22 22.6975749,15.22 C20.7303852,15.22 19.2025678,16.61 19.2025678,18.67 C19.2025678,20.72 20.7303852,22.12 22.6975749,22.12 L22.6975749,22.12 Z M31.4650499,22 L29.8273894,19.38 C30.636234,19.25 31.4151213,18.6 31.4151213,17.42 C31.4151213,16.18 30.5463623,15.33 29.2282454,15.33 L26.3024251,15.33 L26.3024251,22 L27.4707561,22 L27.4707561,19.51 L28.639087,19.51 L30.10699,22 L31.4650499,22 Z M29.0784593,18.48 L27.4707561,18.48 L27.4707561,16.36 L29.0784593,16.36 C29.7375178,16.36 30.2168331,16.77 30.2168331,17.41 C30.2168331,18.06 29.7375178,18.48 29.0784593,18.48 L29.0784593,18.48 Z M33.7517832,22 L33.7517832,15.33 L32.5834522,15.33 L32.5834522,22 L33.7517832,22 Z M36.3380884,22 L36.3380884,19.5 L38.1055635,19.5 C39.4935806,19.5 40.2724679,18.55 40.2724679,17.42 C40.2724679,16.28 39.5035663,15.33 38.1055635,15.33 L35.1697575,15.33 L35.1697575,22 L36.3380884,22 Z M37.9457917,18.47 L36.3380884,18.47 L36.3380884,16.36 L37.9457917,16.36 C38.6048502,16.36 39.0741797,16.78 39.0741797,17.42 C39.0741797,18.05 38.6048502,18.47 37.9457917,18.47 L37.9457917,18.47 Z M44.0071327,22 L44.0071327,16.36 L46.0242511,16.36 L46.0242511,15.33 L40.8216833,15.33 L40.8216833,16.36 L42.8388017,16.36 L42.8388017,22 L44.0071327,22 Z M48.1811698,22 L48.1811698,15.33 L47.0128388,15.33 L47.0128388,22 L48.1811698,22 Z M52.7146933,22.12 C54.7018545,22.12 56.1198288,20.66 56.1198288,18.67 C56.1198288,16.68 54.7018545,15.22 52.7146933,15.22 C50.7175464,15.22 49.3095578,16.68 49.3095578,18.67 C49.3095578,20.66 50.7175464,22.12 52.7146933,22.12 L52.7146933,22.12 Z M52.7146933,21.08 C51.3666191,21.08 50.5078459,20.04 50.5078459,18.67 C50.5078459,17.29 51.3666191,16.26 52.7146933,16.26 C54.0527817,16.26 54.9215407,17.29 54.9215407,18.67 C54.9215407,20.04 54.0527817,21.08 52.7146933,21.08 L52.7146933,21.08 Z M63.0099857,22 L63.0099857,15.33 L61.8416548,15.33 L61.8416548,19.95 L58.4365193,15.33 L57.2382311,15.33 L57.2382311,22 L58.4065621,22 L58.4065621,17.23 L61.8815977,22 L63.0099857,22 Z" id="DESCRIPTION" fill="#2F2F2F" sketch:type="MSShapeGroup"></path>
                <path d="M417.00428,23.12 C418.941512,23.12 419.890157,22.01 419.890157,20.36 L419.890157,16.33 L418.701854,16.33 L418.701854,20.33 C418.701854,21.39 418.112696,22.08 417.00428,22.08 C415.895863,22.08 415.306705,21.39 415.306705,20.33 L415.306705,16.33 L414.118402,16.33 L414.118402,20.36 C414.118402,22.01 415.077033,23.12 417.00428,23.12 L417.00428,23.12 Z M427.079886,23 L427.079886,16.33 L425.911555,16.33 L425.911555,20.95 L422.506419,16.33 L421.308131,16.33 L421.308131,23 L422.476462,23 L422.476462,18.23 L425.951498,23 L427.079886,23 Z M429.666191,23 L429.666191,16.33 L428.49786,16.33 L428.49786,23 L429.666191,23 Z M433.840228,23 L433.840228,17.36 L435.857347,17.36 L435.857347,16.33 L430.654779,16.33 L430.654779,17.36 L432.671897,17.36 L432.671897,23 L433.840228,23 Z M439.082739,23.12 C440.870185,23.12 441.659058,22.16 441.659058,21.05 C441.659058,18.57 437.784593,19.34 437.784593,18.09 C437.784593,17.6 438.223966,17.26 438.902996,17.26 C439.601997,17.26 440.310984,17.5 440.840228,18.03 L441.499287,17.16 C440.890157,16.56 440.041369,16.22 439.012839,16.22 C437.544936,16.22 436.586305,17.07 436.586305,18.18 C436.586305,20.63 440.46077,19.76 440.46077,21.16 C440.46077,21.61 440.091298,22.08 439.132668,22.08 C438.203994,22.08 437.475036,21.64 437.025678,21.15 L436.366619,22.06 C436.965763,22.68 437.854494,23.12 439.082739,23.12 L439.082739,23.12 Z" id="Units" fill="#2F2F2F" sketch:type="MSShapeGroup"></path>
                <path d="M523.851641,23.12 C525.788873,23.12 526.737518,22.01 526.737518,20.36 L526.737518,16.33 L525.549215,16.33 L525.549215,20.33 C525.549215,21.39 524.960057,22.08 523.851641,22.08 C522.743224,22.08 522.154066,21.39 522.154066,20.33 L522.154066,16.33 L520.965763,16.33 L520.965763,20.36 C520.965763,22.01 521.924394,23.12 523.851641,23.12 L523.851641,23.12 Z M533.927247,23 L533.927247,16.33 L532.758916,16.33 L532.758916,20.95 L529.35378,16.33 L528.155492,16.33 L528.155492,23 L529.323823,23 L529.323823,18.23 L532.798859,23 L533.927247,23 Z M536.513552,23 L536.513552,16.33 L535.345221,16.33 L535.345221,23 L536.513552,23 Z M540.687589,23 L540.687589,17.36 L542.704708,17.36 L542.704708,16.33 L537.50214,16.33 L537.50214,17.36 L539.519258,17.36 L539.519258,23 L540.687589,23 Z M547.437946,23 L547.437946,20.5 L549.205421,20.5 C550.593438,20.5 551.372325,19.55 551.372325,18.42 C551.372325,17.28 550.603424,16.33 549.205421,16.33 L546.269615,16.33 L546.269615,23 L547.437946,23 Z M549.045649,19.47 L547.437946,19.47 L547.437946,17.36 L549.045649,17.36 C549.704708,17.36 550.174037,17.78 550.174037,18.42 C550.174037,19.05 549.704708,19.47 549.045649,19.47 L549.045649,19.47 Z M557.513552,23 L555.875892,20.38 C556.684736,20.25 557.463623,19.6 557.463623,18.42 C557.463623,17.18 556.594864,16.33 555.276748,16.33 L552.350927,16.33 L552.350927,23 L553.519258,23 L553.519258,20.51 L554.687589,20.51 L556.155492,23 L557.513552,23 Z M555.126961,19.48 L553.519258,19.48 L553.519258,17.36 L555.126961,17.36 C555.78602,17.36 556.265335,17.77 556.265335,18.41 C556.265335,19.06 555.78602,19.48 555.126961,19.48 L555.126961,19.48 Z M559.800285,23 L559.800285,16.33 L558.631954,16.33 L558.631954,23 L559.800285,23 Z M564.42368,23.12 C565.761769,23.12 566.590585,22.41 567.099857,21.61 L566.101284,21.11 C565.78174,21.66 565.132668,22.08 564.42368,22.08 C563.105563,22.08 562.126961,21.06 562.126961,19.67 C562.126961,18.26 563.105563,17.26 564.42368,17.26 C565.132668,17.26 565.78174,17.67 566.101284,18.23 L567.089872,17.71 C566.600571,16.91 565.761769,16.22 564.42368,16.22 C562.456491,16.22 560.928673,17.61 560.928673,19.67 C560.928673,21.72 562.456491,23.12 564.42368,23.12 L564.42368,23.12 Z M572.592011,23 L572.592011,21.97 L569.196862,21.97 L569.196862,20.11 L572.522111,20.11 L572.522111,19.08 L569.196862,19.08 L569.196862,17.36 L572.592011,17.36 L572.592011,16.33 L568.028531,16.33 L568.028531,23 L572.592011,23 Z" id="UNIT-PRICE" fill="#2F2F2F" sketch:type="MSShapeGroup"></path>
                <path d="M532.559201,38.75 C531.9301,37.48 531.500713,36.3 531.500713,34.57 C531.500713,32.83 531.9301,31.66 532.559201,30.37 L532.249643,30.15 C531.39087,31.45 530.911555,32.96 530.911555,34.57 C530.911555,36.18 531.39087,37.69 532.249643,38.99 L532.559201,38.75 Z M534.126961,37 L534.126961,30.33 L533.557775,30.33 L533.557775,37 L534.126961,37 Z M539.53923,37 L539.53923,33.62 C539.53923,32.53 539,32.05 538.021398,32.05 C537.322397,32.05 536.633381,32.48 536.28388,32.9 L536.28388,32.17 L535.764622,32.17 L535.764622,37 L536.28388,37 L536.28388,33.35 C536.593438,32.91 537.232525,32.52 537.851641,32.52 C538.550642,32.52 539.019971,32.8 539.019971,33.73 L539.019971,37 L539.53923,37 Z M543.223966,37.12 C544.062767,37.12 544.542083,36.79 544.931526,36.29 L544.57204,35.97 C544.222539,36.45 543.783167,36.65 543.253923,36.65 C542.125535,36.65 541.436519,35.74 541.436519,34.58 C541.436519,33.42 542.125535,32.52 543.253923,32.52 C543.783167,32.52 544.222539,32.71 544.57204,33.19 L544.931526,32.87 C544.542083,32.38 544.062767,32.05 543.223966,32.05 C541.805991,32.05 540.887304,33.17 540.887304,34.58 C540.887304,35.99 541.805991,37.12 543.223966,37.12 L543.223966,37.12 Z M546.60913,37 L546.60913,30.33 L546.089872,30.33 L546.089872,37 L546.60913,37 Z M548.516405,37.09 C548.756063,37.09 548.955777,36.89 548.955777,36.65 C548.955777,36.42 548.756063,36.22 548.516405,36.22 C548.276748,36.22 548.067047,36.42 548.067047,36.65 C548.067047,36.89 548.276748,37.09 548.516405,37.09 L548.516405,37.09 Z M556.145506,37.13 C557.194009,37.13 558.082739,36.68 558.671897,36.02 L558.671897,33.69 L555.586305,33.69 L555.586305,34.2 L558.10271,34.2 L558.10271,35.8 C557.743224,36.17 557.034237,36.61 556.145506,36.61 C554.587732,36.61 553.369472,35.39 553.369472,33.67 C553.369472,31.93 554.587732,30.74 556.145506,30.74 C556.994294,30.74 557.75321,31.11 558.222539,31.67 L558.651926,31.36 C558.042796,30.66 557.243937,30.22 556.145506,30.22 C554.268188,30.22 552.770328,31.61 552.770328,33.67 C552.770328,35.73 554.268188,37.13 556.145506,37.13 L556.145506,37.13 Z M562.186876,37.12 C563.984308,37.12 564.553495,36.09 564.553495,35.23 C564.553495,32.74 560.559201,33.68 560.559201,31.97 C560.559201,31.25 561.228245,30.74 562.116976,30.74 C562.865906,30.74 563.544936,31 564.024251,31.58 L564.403709,31.16 C563.894437,30.57 563.135521,30.22 562.146933,30.22 C560.938659,30.22 559.960057,30.91 559.960057,32 C559.960057,34.33 563.954351,33.31 563.954351,35.27 C563.954351,35.84 563.564907,36.6 562.206847,36.6 C561.248217,36.6 560.549215,36.12 560.119829,35.63 L559.750357,36.06 C560.259629,36.67 561.088445,37.12 562.186876,37.12 L562.186876,37.12 Z M568.168331,37 L568.168331,30.85 L570.345221,30.85 L570.345221,30.33 L565.412268,30.33 L565.412268,30.85 L567.589158,30.85 L567.589158,37 L568.168331,37 Z M570.864479,38.75 C571.493581,37.48 571.922967,36.3 571.922967,34.57 C571.922967,32.83 571.493581,31.66 570.864479,30.37 L571.174037,30.15 C572.03281,31.45 572.512126,32.96 572.512126,34.57 C572.512126,36.18 572.03281,37.69 571.174037,38.99 L570.864479,38.75 Z" id="(Incl.-GST)" fill="#2F2F2F" sketch:type="MSShapeGroup"></path>
                <path d="M659.378031,38.75 C658.74893,37.48 658.319544,36.3 658.319544,34.57 C658.319544,32.83 658.74893,31.66 659.378031,30.37 L659.068474,30.15 C658.2097,31.45 657.730385,32.96 657.730385,34.57 C657.730385,36.18 658.2097,37.69 659.068474,38.99 L659.378031,38.75 Z M660.945792,37 L660.945792,30.33 L660.376605,30.33 L660.376605,37 L660.945792,37 Z M666.35806,37 L666.35806,33.62 C666.35806,32.53 665.81883,32.05 664.840228,32.05 C664.141227,32.05 663.452211,32.48 663.10271,32.9 L663.10271,32.17 L662.583452,32.17 L662.583452,37 L663.10271,37 L663.10271,33.35 C663.412268,32.91 664.051355,32.52 664.670471,32.52 C665.369472,32.52 665.838802,32.8 665.838802,33.73 L665.838802,37 L666.35806,37 Z M670.042796,37.12 C670.881598,37.12 671.360913,36.79 671.750357,36.29 L671.39087,35.97 C671.041369,36.45 670.601997,36.65 670.072753,36.65 C668.944365,36.65 668.25535,35.74 668.25535,34.58 C668.25535,33.42 668.944365,32.52 670.072753,32.52 C670.601997,32.52 671.041369,32.71 671.39087,33.19 L671.750357,32.87 C671.360913,32.38 670.881598,32.05 670.042796,32.05 C668.624822,32.05 667.706134,33.17 667.706134,34.58 C667.706134,35.99 668.624822,37.12 670.042796,37.12 L670.042796,37.12 Z M673.42796,37 L673.42796,30.33 L672.908702,30.33 L672.908702,37 L673.42796,37 Z M675.335235,37.09 C675.574893,37.09 675.774608,36.89 675.774608,36.65 C675.774608,36.42 675.574893,36.22 675.335235,36.22 C675.095578,36.22 674.885877,36.42 674.885877,36.65 C674.885877,36.89 675.095578,37.09 675.335235,37.09 L675.335235,37.09 Z M682.964337,37.13 C684.012839,37.13 684.901569,36.68 685.490728,36.02 L685.490728,33.69 L682.405136,33.69 L682.405136,34.2 L684.921541,34.2 L684.921541,35.8 C684.562054,36.17 683.853067,36.61 682.964337,36.61 C681.406562,36.61 680.188302,35.39 680.188302,33.67 C680.188302,31.93 681.406562,30.74 682.964337,30.74 C683.813124,30.74 684.57204,31.11 685.041369,31.67 L685.470756,31.36 C684.861626,30.66 684.062767,30.22 682.964337,30.22 C681.087019,30.22 679.589158,31.61 679.589158,33.67 C679.589158,35.73 681.087019,37.13 682.964337,37.13 L682.964337,37.13 Z M689.005706,37.12 C690.803138,37.12 691.372325,36.09 691.372325,35.23 C691.372325,32.74 687.378031,33.68 687.378031,31.97 C687.378031,31.25 688.047076,30.74 688.935806,30.74 C689.684736,30.74 690.363766,31 690.843081,31.58 L691.222539,31.16 C690.713267,30.57 689.954351,30.22 688.965763,30.22 C687.757489,30.22 686.778887,30.91 686.778887,32 C686.778887,34.33 690.773181,33.31 690.773181,35.27 C690.773181,35.84 690.383738,36.6 689.025678,36.6 C688.067047,36.6 687.368046,36.12 686.938659,35.63 L686.569187,36.06 C687.078459,36.67 687.907275,37.12 689.005706,37.12 L689.005706,37.12 Z M694.987161,37 L694.987161,30.85 L697.164051,30.85 L697.164051,30.33 L692.231098,30.33 L692.231098,30.85 L694.407989,30.85 L694.407989,37 L694.987161,37 Z M697.68331,38.75 C698.312411,37.48 698.741797,36.3 698.741797,34.57 C698.741797,32.83 698.312411,31.66 697.68331,30.37 L697.992867,30.15 C698.851641,31.45 699.330956,32.96 699.330956,34.57 C699.330956,36.18 698.851641,37.69 697.992867,38.99 L697.68331,38.75 Z" id="(Incl.-GST)" fill="#2F2F2F" sketch:type="MSShapeGroup"></path>
                <path d="M663.871612,23 L661.25535,16.33 L659.797432,16.33 L657.18117,23 L658.509272,23 L658.998573,21.71 L662.054208,21.71 L662.543509,23 L663.871612,23 Z M661.724679,20.68 L659.328103,20.68 L660.526391,17.5 L661.724679,20.68 Z M671.510699,23 L671.510699,16.33 L669.863053,16.33 L668.055635,20.91 L666.238231,16.33 L664.590585,16.33 L664.590585,23 L665.758916,23 L665.758916,17.85 L667.805991,23 L668.305278,23 L670.342368,17.85 L670.342368,23 L671.510699,23 Z M676.044223,23.12 C678.031384,23.12 679.449358,21.66 679.449358,19.67 C679.449358,17.68 678.031384,16.22 676.044223,16.22 C674.047076,16.22 672.639087,17.68 672.639087,19.67 C672.639087,21.66 674.047076,23.12 676.044223,23.12 L676.044223,23.12 Z M676.044223,22.08 C674.696148,22.08 673.837375,21.04 673.837375,19.67 C673.837375,18.29 674.696148,17.26 676.044223,17.26 C677.382311,17.26 678.25107,18.29 678.25107,19.67 C678.25107,21.04 677.382311,22.08 676.044223,22.08 L676.044223,22.08 Z M683.453638,23.12 C685.39087,23.12 686.339515,22.01 686.339515,20.36 L686.339515,16.33 L685.151213,16.33 L685.151213,20.33 C685.151213,21.39 684.562054,22.08 683.453638,22.08 C682.345221,22.08 681.756063,21.39 681.756063,20.33 L681.756063,16.33 L680.56776,16.33 L680.56776,20.36 C680.56776,22.01 681.526391,23.12 683.453638,23.12 L683.453638,23.12 Z M693.529244,23 L693.529244,16.33 L692.360913,16.33 L692.360913,20.95 L688.955777,16.33 L687.757489,16.33 L687.757489,23 L688.92582,23 L688.92582,18.23 L692.400856,23 L693.529244,23 Z M697.703281,23 L697.703281,17.36 L699.720399,17.36 L699.720399,16.33 L694.517832,16.33 L694.517832,17.36 L696.53495,17.36 L696.53495,23 L697.703281,23 Z" id="AMOUNT" fill="#2F2F2F" sketch:type="MSShapeGroup"></path>
                <path d="M1.47484185,1.5 L700.476268,1.5" id="Line-Copy-2" stroke="#979797" stroke-linecap="square" opacity="0.4" sketch:type="MSShapeGroup"></path>
                <path d="M1.47484185,50.5 L700.476268,50.5" id="Line-4" stroke="#979797" stroke-linecap="square" opacity="0.4" sketch:type="MSShapeGroup"></path>
            </g>
        </g>
    </g>
</svg>